<svg width="655" height="228" viewBox="0 0 655 228" fill="none" xmlns="http://www.w3.org/2000/svg">
<g clip-path="url(#clip0_8_1604)">
<rect width="655" height="228" fill="#DAE8FF"/>
<g opacity="0.5" clip-path="url(#clip1_8_1604)">
<rect width="51.4733" height="29.4133" transform="matrix(-1 0 0 1 66.4739 185.904)" fill="#667AF9"/>
<path fill-rule="evenodd" clip-rule="evenodd" d="M434.14 90.3107H437.817V97.664H441.494V105.017H445.17V112.371H448.847V119.724H452.524V127.077H456.2V134.431H459.877V141.784H463.554V149.137H467.23V156.491H470.907V163.844H474.584V171.197H478.26V178.551H481.937V185.904H485.614V193.257H489.29V200.611H492.967V207.964H496.644V215.317H500.32V222.671H503.997V230.024H507.674V237.377H364.284V230.024H367.96V222.671H371.637V215.317H375.314V207.964H378.99V200.611H382.667V193.257H386.344V185.904H390.02V178.551H393.697V171.197H397.374V163.844H401.05V156.491H404.727V149.137H408.404V141.784H412.08V134.431H415.757V127.077H419.434V119.724H423.11V112.371H426.787V105.017H430.464V97.664H434.14V90.3107ZM448.847 207.964V163.844H452.524V171.197H456.2V178.551H459.877V185.904H463.554V193.257H467.23V200.611H470.907V207.964H448.847ZM401.05 207.964V200.611H404.727V193.257H408.404V185.904H412.08V178.551H415.757V171.197H419.434V163.844H423.11V207.964H401.05Z" fill="#667AF9"/>
<path d="M452.524 163.844H448.847V207.964H470.907V200.611H467.23V193.257H463.554V185.904H459.877V178.551H456.2V171.197H452.524V163.844Z" fill="#667AF9"/>
<path d="M401.05 200.611V207.964H423.11V163.844H419.434V171.197H415.757V178.551H412.08V185.904H408.404V193.257H404.727V200.611H401.05Z" fill="#667AF9"/>
<rect width="234.204" height="69.8566" transform="matrix(-1 0 0 1 300.677 145.461)" fill="#667AF9"/>
<rect width="51.4733" height="47.7966" transform="matrix(-1 0 0 1 18.6772 167.521)" fill="#667AF9"/>
<rect width="334.577" height="69.8566" transform="matrix(-1 0 0 1 673.124 167.521)" fill="#667AF9"/>
<path fill-rule="evenodd" clip-rule="evenodd" d="M651.064 93.9874H654.74V97.6641H658.417V101.341H662.094V105.017H665.77V108.694H669.447V112.371H673.124V116.047H676.8V119.724H680.477V123.401H684.154V127.077H687.83V130.754H691.507V134.431H695.184V138.107H698.86V141.784H702.537V145.461H706.214V149.137H709.89V152.814H713.567V156.491H717.244V160.167H720.92V163.844H724.597V167.521H581.207V163.844H584.884V160.167H588.56V156.491H592.237V152.814H595.914V149.137H599.59V145.461H603.267V141.784H606.944V138.107H610.62V134.431H614.297V130.754H617.974V127.077H621.65V123.401H625.327V119.724H629.004V116.047H632.68V112.371H636.357V108.694H640.034V105.017H643.71V101.341H647.387V97.6641H651.064V93.9874ZM665.77 152.814V130.754H669.447V134.431H673.124V138.107H676.8V141.784H680.477V145.461H684.154V149.137H687.83V152.814H665.77ZM617.974 152.814V149.137H621.65V145.461H625.327V141.784H629.004V138.107H632.68V134.431H636.357V130.754H640.034V152.814H617.974Z" fill="#667AF9"/>
<path d="M669.447 130.754H665.77V152.814H687.83V149.137H684.154V145.461H680.477V141.784H676.8V138.107H673.124V134.431H669.447V130.754Z" fill="#667AF9"/>
<path d="M617.974 149.137V152.814H640.034V130.754H636.357V134.431H632.68V138.107H629.004V141.784H625.327V145.461H621.65V149.137H617.974Z" fill="#667AF9"/>
<path fill-rule="evenodd" clip-rule="evenodd" d="M-54.8561 93.9874H-51.1794V97.6641H-47.5027V101.341H-43.8261V105.017H-40.1494V108.694H-36.4727V112.371H-32.7961V116.047H-29.1194V119.724H-25.4427V123.401H-21.7661V127.077H-18.0894V130.754H-14.4127V134.431H-10.7361V138.107H-7.05941V141.784H-3.38274V145.461H0.29392V149.137H3.97059V152.814H7.64725V156.491H11.3239V160.167H15.0006V163.844H18.6772V167.521H-124.713V163.844H-121.036V160.167H-117.359V156.491H-113.683V152.814H-110.006V149.137H-106.329V145.461H-102.653V141.784H-98.976V138.107H-95.2994V134.431H-91.6227V130.754H-87.946V127.077H-84.2694V123.401H-80.5927V119.724H-76.916V116.047H-73.2394V112.371H-69.5627V108.694H-65.8861V105.017H-62.2094V101.341H-58.5327V97.6641H-54.8561V93.9874ZM-40.1494 152.814V130.754H-36.4727V134.431H-32.7961V138.107H-29.1194V141.784H-25.4427V145.461H-21.7661V149.137H-18.0894V152.814H-40.1494ZM-87.946 152.814V149.137H-84.2694V145.461H-80.5927V141.784H-76.916V138.107H-73.2394V134.431H-69.5627V130.754H-65.8861V152.814H-87.946Z" fill="#667AF9"/>
<path d="M-36.4727 130.754H-40.1494V152.814H-18.0894V149.137H-21.7661V145.461H-25.4427V141.784H-29.1194V138.107H-32.7961V134.431H-36.4727V130.754Z" fill="#667AF9"/>
<path d="M-87.946 149.137V152.814H-65.8861V130.754H-69.5627V134.431H-73.2394V138.107H-76.916V141.784H-80.5927V145.461H-84.2694V149.137H-87.946Z" fill="#667AF9"/>
<path fill-rule="evenodd" clip-rule="evenodd" d="M-21.7661 127.077H-18.0894V130.754H-14.4128V134.431H-10.7361V138.107H-7.05943V141.784H-3.38276V145.461H0.2939V149.137H3.97057V152.814H7.64723V156.491H11.3239V160.167H15.0006V163.844H18.6772V167.521H22.3539V171.197H26.0306V174.874H29.7072V178.551H33.3839V182.227H37.0606V185.904H40.7372V189.581H44.4139V193.257H48.0905V196.934H51.7672V200.611H-91.6227V196.934H-87.9461V193.257H-84.2694V189.581H-80.5927V185.904H-76.9161V182.227H-73.2394V178.551H-69.5627V174.874H-65.8861V171.197H-62.2094V167.521H-58.5327V163.844H-54.8561V160.167H-51.1794V156.491H-47.5027V152.814H-43.8261V149.137H-40.1494V145.461H-36.4728V141.784H-32.7961V138.107H-29.1194V134.431H-25.4428V130.754H-21.7661V127.077ZM-7.05943 185.904V163.844H-3.38276V167.521H0.2939V171.197H3.97057V174.874H7.64723V178.551H11.3239V182.227H15.0006V185.904H-7.05943ZM-54.8561 185.904V182.227H-51.1794V178.551H-47.5027V174.874H-43.8261V171.197H-40.1494V167.521H-36.4728V163.844H-32.7961V185.904H-54.8561Z" fill="#667AF9"/>
<path d="M-3.38276 163.844H-7.05943V185.904H15.0006V182.227H11.3239V178.551H7.64723V174.874H3.97057V171.197H0.2939V167.521H-3.38276V163.844Z" fill="#667AF9"/>
<path d="M-54.8561 182.227V185.904H-32.7961V163.844H-36.4728V167.521H-40.1494V171.197H-43.8261V174.874H-47.5027V178.551H-51.1794V182.227H-54.8561Z" fill="#667AF9"/>
<path fill-rule="evenodd" clip-rule="evenodd" d="M276.044 68.2507H279.721V75.6041H283.397V82.9574H287.074V90.3107H290.751V97.6641H294.427V105.017H298.104V112.371H301.781V119.724H305.457V127.077H309.134V134.431H312.81V141.784H316.487V149.137H320.164V156.491H323.84V163.844H327.517V171.197H331.194V178.551H334.87V185.904H338.547V193.257H342.224V200.611H345.9V207.964H349.577V215.317H206.187V207.964H209.864V200.611H213.541V193.257H217.217V185.904H220.894V178.551H224.571V171.197H228.247V163.844H231.924V156.491H235.601V149.137H239.277V141.784H242.954V134.431H246.631V127.077H250.307V119.724H253.984V112.371H257.661V105.017H261.337V97.6641H265.014V90.3107H268.691V82.9574H272.367V75.6041H276.044V68.2507ZM290.751 185.904V141.784H294.427V149.137H298.104V156.491H301.781V163.844H305.457V171.197H309.134V178.551H312.81V185.904H290.751ZM242.954 185.904V178.551H246.631V171.197H250.307V163.844H253.984V156.491H257.661V149.137H261.337V141.784H265.014V185.904H242.954Z" fill="#667AF9"/>
<path d="M294.427 141.784H290.751V185.904H312.81V178.551H309.134V171.197H305.457V163.844H301.781V156.491H298.104V149.137H294.427V141.784Z" fill="#667AF9"/>
<path d="M242.954 178.551V185.904H265.014V141.784H261.337V149.137H257.661V156.491H253.984V163.844H250.307V171.197H246.631V178.551H242.954Z" fill="#667AF9"/>
<path d="M73.8274 119.724V127.077H70.1507V134.431H66.474V141.784H62.7974V149.137H59.1207V156.491H92.2107V149.137H88.534V141.784H84.8574V134.431H81.1807V127.077H77.504V119.724H73.8274Z" fill="#667AF9"/>
<path d="M59.1206 149.137V156.491H55.4439V163.844H51.7673V171.197H48.0906V178.551H44.4139V185.904H77.5039V178.551H73.8272V171.197H70.1506V163.844H66.4739V156.491H62.7972V149.137H59.1206Z" fill="#667AF9"/>
<path d="M478.26 149.137V152.814H474.584V156.491H470.907V160.167H467.23V163.844H463.554V167.521H496.644V163.844H492.967V160.167H489.29V156.491H485.614V152.814H481.937V149.137H478.26Z" fill="#667AF9"/>
<path d="M206.187 90.3107V93.9873H202.511V97.664H198.834V101.341H195.157V105.017H191.481V108.694H187.804V112.371H184.127V116.047H180.451V119.724H176.774V123.401H173.097V127.077H169.421V130.754H165.744V134.431H162.067V138.107H158.391V141.784H154.714V145.461H261.337V141.784H257.661V138.107H253.984V134.431H250.307V130.754H246.631V127.077H242.954V123.401H239.277V119.724H235.601V116.047H231.924V112.371H228.247V108.694H224.571V105.017H220.894V101.341H217.217V97.664H213.541V93.9873H209.864V90.3107H206.187Z" fill="#667AF9"/>
<path d="M540.764 123.401V127.077H537.087V130.754H533.411V134.431H529.734V138.107H526.057V141.784H522.381V145.461H518.704V149.137H515.027V152.814H511.351V156.491H507.674V160.167H503.997V163.844H500.321V167.521H496.644V171.197H492.967V174.874H489.291V178.551H595.914V174.874H592.237V171.197H588.56V167.521H584.884V163.844H581.207V160.167H577.53V156.491H573.854V152.814H570.177V149.137H566.5V145.461H562.824V141.784H559.147V138.107H555.471V134.431H551.794V130.754H548.117V127.077H544.441V123.401H540.764Z" fill="#667AF9"/>
<path d="M375.314 130.754V134.431H371.637V138.107H367.96V141.784H364.284V145.461H360.607V149.137H356.93V152.814H353.254V156.491H349.577V160.167H345.9V163.844H342.224V167.521H338.547V171.197H334.87V174.874H331.194V178.551H327.517V182.227H323.84V185.904H430.464V182.227H426.787V178.551H423.11V174.874H419.434V171.197H415.757V167.521H412.08V163.844H408.404V160.167H404.727V156.491H401.05V152.814H397.374V149.137H393.697V145.461H390.02V141.784H386.344V138.107H382.667V134.431H378.99V130.754H375.314Z" fill="#667AF9"/>
<path d="M173.097 123.401V127.077H169.42V130.754H165.744V134.431H162.067V138.107H158.39V141.784H154.714V145.461H151.037V149.137H147.36V152.814H143.684V156.491H140.007V160.167H136.33V163.844H132.654V167.521H128.977V171.197H125.3V174.874H121.624V178.551H228.247V174.874H224.57V171.197H220.894V167.521H217.217V163.844H213.54V160.167H209.864V156.491H206.187V152.814H202.51V149.137H198.834V145.461H195.157V141.784H191.48V138.107H187.804V134.431H184.127V130.754H180.45V127.077H176.774V123.401H173.097Z" fill="#667AF9"/>
<path d="M110.594 123.401V119.724H114.27V123.401H117.947V127.077H121.624V130.754H125.3V134.431H128.977V138.107H132.654V141.784H136.33V145.461H140.007V149.137H143.684V152.814H147.36V156.491H77.5038V152.814H81.1805V149.137H84.8572V145.461H88.5338V141.784H92.2105V138.107H95.8872V134.431H99.5638V130.754H103.24V127.077H106.917V123.401H110.594Z" fill="#667AF9"/>
<rect x="606.944" y="207.964" width="51.4733" height="29.4133" fill="#00499C"/>
<path fill-rule="evenodd" clip-rule="evenodd" d="M239.277 112.371H235.6V119.724H231.924V127.077H228.247V134.431H224.57V141.784H220.894V149.137H217.217V156.491H213.54V163.844H209.864V171.197H206.187V178.551H202.51V185.904H198.834V193.257H195.157V200.611H191.48V207.964H187.804V215.317H184.127V222.671H180.45V230.024H176.774V237.377H173.097V244.731H169.42V252.084H165.744V259.437H309.134V252.084H305.457V244.731H301.78V237.377H298.104V230.024H294.427V222.671H290.75V215.317H287.074V207.964H283.397V200.611H279.72V193.257H276.044V185.904H272.367V178.551H268.69V171.197H265.014V163.844H261.337V156.491H257.66V149.137H253.984V141.784H250.307V134.431H246.63V127.077H242.954V119.724H239.277V112.371ZM224.57 230.024V185.904H220.894V193.257H217.217V200.611H213.54V207.964H209.864V215.317H206.187V222.671H202.51V230.024H224.57ZM272.367 230.024V222.671H268.69V215.317H265.014V207.964H261.337V200.611H257.66V193.257H253.984V185.904H250.307V230.024H272.367Z" fill="#00499C"/>
<path d="M220.894 185.904H224.57V230.024H202.51V222.671H206.187V215.317H209.864V207.964H213.54V200.611H217.217V193.257H220.894V185.904Z" fill="#00499C"/>
<path d="M272.367 222.671V230.024H250.307V185.904H253.984V193.257H257.66V200.611H261.337V207.964H265.014V215.317H268.69V222.671H272.367Z" fill="#00499C"/>
<rect x="372.74" y="167.521" width="234.204" height="69.8566" fill="#00499C"/>
<rect x="654.74" y="189.581" width="51.4733" height="47.7966" fill="#00499C"/>
<rect x="0.293945" y="189.581" width="334.577" height="69.8566" fill="#00499C"/>
<path fill-rule="evenodd" clip-rule="evenodd" d="M22.3539 116.047H18.6772V119.724H15.0005V123.401H11.3239V127.077H7.6472V130.754H3.97053V134.431H0.293868V138.107H-3.3828V141.784H-7.05946V145.461H-10.7361V149.137H-14.4128V152.814H-18.0895V156.491H-21.7661V160.167H-25.4428V163.844H-29.1195V167.521H-32.7961V171.197H-36.4728V174.874H-40.1494V178.551H-43.8261V182.227H-47.5028V185.904H-51.1794V189.581H92.2105V185.904H88.5338V182.227H84.8572V178.551H81.1805V174.874H77.5038V171.197H73.8272V167.521H70.1505V163.844H66.4738V160.167H62.7972V156.491H59.1205V152.814H55.4438V149.137H51.7672V145.461H48.0905V141.784H44.4138V138.107H40.7372V134.431H37.0605V130.754H33.3839V127.077H29.7072V123.401H26.0305V119.724H22.3539V116.047ZM7.6472 174.874V152.814H3.97053V156.491H0.293868V160.167H-3.3828V163.844H-7.05946V167.521H-10.7361V171.197H-14.4128V174.874H7.6472ZM55.4438 174.874V171.197H51.7672V167.521H48.0905V163.844H44.4138V160.167H40.7372V156.491H37.0605V152.814H33.3839V174.874H55.4438Z" fill="#00499C"/>
<path d="M3.97053 152.814H7.6472V174.874H-14.4128V171.197H-10.7361V167.521H-7.05946V163.844H-3.3828V160.167H0.293868V156.491H3.97053V152.814Z" fill="#00499C"/>
<path d="M55.4438 171.197V174.874H33.3839V152.814H37.0605V156.491H40.7372V160.167H44.4138V163.844H48.0905V167.521H51.7672V171.197H55.4438Z" fill="#00499C"/>
<path fill-rule="evenodd" clip-rule="evenodd" d="M728.274 116.047H724.597V119.724H720.92V123.401H717.244V127.077H713.567V130.754H709.89V134.431H706.214V138.107H702.537V141.784H698.86V145.461H695.184V149.137H691.507V152.814H687.83V156.491H684.154V160.167H680.477V163.844H676.8V167.521H673.124V171.197H669.447V174.874H665.77V178.551H662.094V182.227H658.417V185.904H654.74V189.581H798.13V185.904H794.454V182.227H790.777V178.551H787.1V174.874H783.424V171.197H779.747V167.521H776.07V163.844H772.394V160.167H768.717V156.491H765.04V152.814H761.364V149.137H757.687V145.461H754.01V141.784H750.334V138.107H746.657V134.431H742.98V130.754H739.304V127.077H735.627V123.401H731.95V119.724H728.274V116.047ZM713.567 174.874V152.814H709.89V156.491H706.214V160.167H702.537V163.844H698.86V167.521H695.184V171.197H691.507V174.874H713.567ZM761.364 174.874V171.197H757.687V167.521H754.01V163.844H750.334V160.167H746.657V156.491H742.98V152.814H739.304V174.874H761.364Z" fill="#00499C"/>
<path d="M709.89 152.814H713.567V174.874H691.507V171.197H695.184V167.521H698.86V163.844H702.537V160.167H706.214V156.491H709.89V152.814Z" fill="#00499C"/>
<path d="M761.364 171.197V174.874H739.304V152.814H742.98V156.491H746.657V160.167H750.334V163.844H754.01V167.521H757.687V171.197H761.364Z" fill="#00499C"/>
<path fill-rule="evenodd" clip-rule="evenodd" d="M695.184 149.137H691.507V152.814H687.83V156.491H684.154V160.167H680.477V163.844H676.8V167.521H673.124V171.197H669.447V174.874H665.77V178.551H662.094V182.227H658.417V185.904H654.74V189.581H651.064V193.257H647.387V196.934H643.71V200.611H640.034V204.287H636.357V207.964H632.68V211.641H629.004V215.317H625.327V218.994H621.65V222.671H765.04V218.994H761.364V215.317H757.687V211.641H754.01V207.964H750.334V204.287H746.657V200.611H742.98V196.934H739.304V193.257H735.627V189.581H731.95V185.904H728.274V182.227H724.597V178.551H720.92V174.874H717.244V171.197H713.567V167.521H709.89V163.844H706.214V160.167H702.537V156.491H698.86V152.814H695.184V149.137ZM680.477 207.964V185.904H676.8V189.581H673.124V193.257H669.447V196.934H665.77V200.611H662.094V204.287H658.417V207.964H680.477ZM728.274 207.964V204.287H724.597V200.611H720.92V196.934H717.244V193.257H713.567V189.581H709.89V185.904H706.214V207.964H728.274Z" fill="#00499C"/>
<path d="M676.8 185.904H680.477V207.964H658.417V204.287H662.094V200.611H665.77V196.934H669.447V193.257H673.124V189.581H676.8V185.904Z" fill="#00499C"/>
<path d="M728.274 204.287V207.964H706.214V185.904H709.89V189.581H713.567V193.257H717.244V196.934H720.92V200.611H724.597V204.287H728.274Z" fill="#00499C"/>
<path fill-rule="evenodd" clip-rule="evenodd" d="M397.374 90.3108H393.697V97.6641H390.02V105.017H386.344V112.371H382.667V119.724H378.99V127.077H375.314V134.431H371.637V141.784H367.96V149.137H364.284V156.491H360.607V163.844H356.93V171.197H353.254V178.551H349.577V185.904H345.9V193.257H342.224V200.611H338.547V207.964H334.87V215.317H331.194V222.671H327.517V230.024H323.84V237.377H467.23V230.024H463.554V222.671H459.877V215.317H456.2V207.964H452.524V200.611H448.847V193.257H445.17V185.904H441.494V178.551H437.817V171.197H434.14V163.844H430.464V156.491H426.787V149.137H423.11V141.784H419.434V134.431H415.757V127.077H412.08V119.724H408.404V112.371H404.727V105.017H401.05V97.6641H397.374V90.3108ZM382.667 207.964V163.844H378.99V171.197H375.314V178.551H371.637V185.904H367.96V193.257H364.284V200.611H360.607V207.964H382.667ZM430.464 207.964V200.611H426.787V193.257H423.11V185.904H419.434V178.551H415.757V171.197H412.08V163.844H408.404V207.964H430.464Z" fill="#00499C"/>
<path d="M378.99 163.844H382.667V207.964H360.607V200.611H364.284V193.257H367.96V185.904H371.637V178.551H375.314V171.197H378.99V163.844Z" fill="#00499C"/>
<path d="M430.464 200.611V207.964H408.404V163.844H412.08V171.197H415.757V178.551H419.434V185.904H423.11V193.257H426.787V200.611H430.464Z" fill="#00499C"/>
<path d="M599.59 141.784V149.137H603.267V156.491H606.944V163.844H610.62V171.197H614.297V178.551H581.207V171.197H584.884V163.844H588.56V156.491H592.237V149.137H595.914V141.784H599.59Z" fill="#00499C"/>
<path d="M614.297 171.197V178.551H617.974V185.904H621.65V193.257H625.327V200.611H629.004V207.964H595.914V200.611H599.59V193.257H603.267V185.904H606.944V178.551H610.62V171.197H614.297Z" fill="#00499C"/>
<path d="M195.157 171.197V174.874H198.834V178.551H202.51V182.227H206.187V185.904H209.864V189.581H176.774V185.904H180.45V182.227H184.127V178.551H187.804V174.874H191.48V171.197H195.157Z" fill="#00499C"/>
<path d="M467.23 112.371V116.047H470.907V119.724H474.584V123.401H478.26V127.077H481.937V130.754H485.614V134.431H489.29V138.107H492.967V141.784H496.644V145.461H500.32V149.137H503.997V152.814H507.674V156.491H511.35V160.167H515.027V163.844H518.704V167.521H412.08V163.844H415.757V160.167H419.434V156.491H423.11V152.814H426.787V149.137H430.464V145.461H434.14V141.784H437.817V138.107H441.494V134.431H445.17V130.754H448.847V127.077H452.524V123.401H456.2V119.724H459.877V116.047H463.554V112.371H467.23Z" fill="#00499C"/>
<path d="M132.654 145.461V149.137H136.331V152.814H140.007V156.491H143.684V160.167H147.361V163.844H151.037V167.521H154.714V171.197H158.391V174.874H162.067V178.551H165.744V182.227H169.421V185.904H173.097V189.581H176.774V193.257H180.451V196.934H184.127V200.611H77.5039V196.934H81.1806V193.257H84.8572V189.581H88.5339V185.904H92.2106V182.227H95.8872V178.551H99.5639V174.874H103.241V171.197H106.917V167.521H110.594V163.844H114.271V160.167H117.947V156.491H121.624V152.814H125.301V149.137H128.977V145.461H132.654Z" fill="#00499C"/>
<path d="M298.104 152.814V156.491H301.78V160.167H305.457V163.844H309.134V167.521H312.81V171.197H316.487V174.874H320.164V178.551H323.84V182.227H327.517V185.904H331.194V189.581H334.87V193.257H338.547V196.934H342.224V200.611H345.9V204.287H349.577V207.964H242.954V204.287H246.63V200.611H250.307V196.934H253.984V193.257H257.66V189.581H261.337V185.904H265.014V182.227H268.69V178.551H272.367V174.874H276.044V171.197H279.72V167.521H283.397V163.844H287.074V160.167H290.75V156.491H294.427V152.814H298.104Z" fill="#00499C"/>
<path d="M500.32 145.461V149.137H503.997V152.814H507.674V156.491H511.35V160.167H515.027V163.844H518.704V167.521H522.38V171.197H526.057V174.874H529.734V178.551H533.41V182.227H537.087V185.904H540.764V189.581H544.44V193.257H548.117V196.934H551.794V200.611H445.17V196.934H448.847V193.257H452.524V189.581H456.2V185.904H459.877V182.227H463.554V178.551H467.23V174.874H470.907V171.197H474.584V167.521H478.26V163.844H481.937V160.167H485.614V156.491H489.29V152.814H492.967V149.137H496.644V145.461H500.32Z" fill="#00499C"/>
<path d="M562.824 145.461V141.784H559.147V145.461H555.47V149.137H551.794V152.814H548.117V156.491H544.44V160.167H540.764V163.844H537.087V167.521H533.41V171.197H529.734V174.874H526.057V178.551H595.914V174.874H592.237V171.197H588.56V167.521H584.884V163.844H581.207V160.167H577.53V156.491H573.854V152.814H570.177V149.137H566.5V145.461H562.824Z" fill="#00499C"/>
<rect width="13.4076" height="2.68153" transform="matrix(-1 0 0 1 598.595 74.1381)" fill="white"/>
<rect width="24.1337" height="2.68153" transform="matrix(-1 0 0 1 603.958 76.8197)" fill="white"/>
<rect width="29.4968" height="2.68153" transform="matrix(-1 0 0 1 606.64 79.5012)" fill="white"/>
<rect width="34.8598" height="2.68153" transform="matrix(-1 0 0 1 609.321 82.1826)" fill="white"/>
<rect width="40.2229" height="2.68153" transform="matrix(-1 0 0 1 612.003 84.8643)" fill="white"/>
<rect width="45.586" height="2.68153" transform="matrix(-1 0 0 1 617.366 87.5458)" fill="white"/>
<rect width="53.6305" height="2.68153" transform="matrix(-1 0 0 1 622.729 90.2273)" fill="white"/>
<rect width="56.3121" height="2.68153" transform="matrix(-1 0 0 1 625.411 92.9088)" fill="white"/>
<rect width="56.3121" height="2.68153" transform="matrix(-1 0 0 1 625.411 95.5903)" fill="white"/>
<rect width="58.9936" height="2.68153" transform="matrix(-1 0 0 1 628.092 98.2719)" fill="white"/>
<rect width="61.6751" height="2.68153" transform="matrix(-1 0 0 1 628.092 100.953)" fill="white"/>
<rect width="64.3566" height="2.68153" transform="matrix(-1 0 0 1 628.092 103.635)" fill="white"/>
<rect width="64.3566" height="2.68153" transform="matrix(-1 0 0 1 628.092 106.316)" fill="white"/>
<rect width="61.6751" height="2.68153" transform="matrix(-1 0 0 1 625.411 108.998)" fill="white"/>
<rect width="61.6751" height="2.68153" transform="matrix(-1 0 0 1 625.411 111.679)" fill="white"/>
<rect width="56.3121" height="2.68153" transform="matrix(-1 0 0 1 622.729 114.361)" fill="white"/>
<rect width="48.2675" height="2.68153" transform="matrix(-1 0 0 1 617.366 117.042)" fill="white"/>
</g>
<path fill-rule="evenodd" clip-rule="evenodd" d="M599.59 156.491H603.267V163.844H606.944V167.521H603.267V167.521H599.59V167.521H595.914V163.844H599.59V163.844H595.914V160.168H599.59V156.491Z" fill="#0B5027"/>
<path d="M213.54 402.827H165.744V399.151H151.037V395.474H140.007V391.797H132.654V388.121H125.3V384.444H121.624V380.767H114.27V377.091H110.594V373.414H103.24V369.737H99.5638V366.061H95.8872V362.384H92.2105V355.031H88.5338V351.354H84.8572V344.001H81.1805V340.324H77.5038V332.971H73.8272V325.617H70.1505V314.587H66.4738V299.881H62.7972V252.084H66.4738V237.377H70.1505V226.347H73.8272V218.994H77.5038V211.641H81.1805V207.964H84.8572V200.611H88.5338V196.934H92.2105V189.581H95.8872V185.904H99.5638V182.227H103.24V178.551H110.594V174.874H114.27V171.197H121.624V167.521H125.3V163.844H132.654V160.167H140.007V156.491H151.037V152.814H165.744V149.137H213.54V152.814H228.247V156.491H239.277V160.167H246.63V163.844H253.984V167.521H257.66V171.197H265.014V174.874H268.69V178.551H276.044V182.227H279.72V185.904H283.397V189.581H287.074V196.934H290.75V200.611H294.427V207.964H298.104V211.641H301.78V218.994H305.457V226.347H309.134V237.377H312.81V252.084H316.487V299.881H312.81V314.587H309.134V325.617H305.457V332.971H301.78V340.324H298.104V344.001H294.427V351.354H290.75V355.031H287.074V362.384H283.397V366.061H279.72V369.737H276.044V373.414H268.69V377.091H265.014V380.767H257.66V384.444H253.984V388.121H246.63V391.797H239.277V395.474H228.247V399.151H213.54V402.827Z" fill="#068940"/>
<path d="M765.04 325.617H761.361V314.587L757.685 314.586V307.234L754.009 307.234V299.882H750.333V292.527H746.657V285.174H742.978V281.498H739.302V274.143H735.626V266.791L731.95 266.791V263.115H728.273V259.439L724.595 259.438V252.084H720.918V248.407L717.242 248.407V244.731L713.566 244.731V241.055H709.89V237.376H706.214V233.7H702.535V230.024H698.859V226.348L695.183 226.347V222.672H691.507V218.992H687.83V215.317H684.152V211.64H680.475V207.964L673.123 207.964V204.288H669.447V200.612H665.771V196.933H658.416V193.257H651.064V189.581H647.387V185.905H640.033V182.228H632.68V178.55H625.325V174.873H617.973V171.197H606.942V167.521H599.59V163.845H588.561V160.169H573.854V156.49H555.47V152.814H529.735V149.138H485.613V152.814H459.877V156.49H441.494V160.169H426.787V163.845H415.758V167.521H408.403V171.197H397.375V174.873H390.02V178.55H382.667V182.228H375.315V185.905H367.96V189.581H364.284V193.257H356.932V196.933H349.577V200.612H345.901V204.288H342.224V207.964H334.872V211.64H331.193V215.316H327.517V218.992H323.841V222.671H320.165V226.347H316.489V230.024H312.813V233.7H309.134V237.376H305.458V241.055H301.781V244.731H298.105V248.407H294.429V252.083H290.75V259.438H287.074V263.114H283.398V266.791H279.722V274.143H276.046V281.498H272.367V285.174H268.691V292.527H265.015V299.882H261.338V307.234H257.662V314.586H253.984V325.617H250.307V332.97H246.631V344.001H242.955V358.708H239.279V377.092H235.603V402.828H231.924V446.947L235.603 446.947V472.683L239.279 472.683V491.066L242.955 491.067V505.774L246.631 505.774V516.805L250.307 516.805V524.157L253.984 524.157V535.189H257.662V542.541L261.338 542.541V549.893H265.015V557.248H268.691V564.601H272.367V568.276L276.046 568.277V575.632H279.722V582.984H283.398V586.66H287.074V590.337H290.75V597.691H294.429V601.367L298.105 601.368V605.044L301.781 605.044V608.72H305.458V612.399H309.134V616.075L312.813 616.075V619.751L316.489 619.751V623.427L320.165 623.427V627.104H323.841V630.782H327.517V634.459H331.193V638.135H334.872V641.811L342.224 641.811V645.487H345.901V649.163H349.577V652.842H356.932V656.518H364.284V660.194H367.96V663.87H375.315V667.546H382.667V671.225H390.02V674.901H397.375V678.578H408.403V682.254H415.758V685.93H426.787V689.606H441.494V693.285H459.877V696.961H485.613V700.637H529.735V696.961H555.47V693.285H573.854V689.606H588.561V685.93H599.59V682.254H606.942V678.578H617.973V674.901H625.325V671.225H632.68V667.546H640.033V663.87H647.387V660.194H651.064V656.518H658.416V652.842H665.771V649.163H669.447V645.487H673.123V641.811H680.475V638.135H684.152V634.459H687.83V630.782H691.507V627.104H695.183V623.427H698.859V619.751H702.535V616.075H706.214V612.399H709.89V608.72H713.566V605.044H717.242V601.368H720.918V597.691H724.595V590.337H728.273V586.66H731.95V582.984H735.626V575.632H739.302V568.277H742.978V564.601H746.657V557.248H750.333V549.893H754.009V542.541H757.685V535.189H761.361V524.157H765.04V516.805H768.716V505.774H772.393V491.067H776.069V472.683H779.745V446.947H783.424V402.828H779.745V377.092H776.069V358.709H772.393V344.001H768.716V332.97H765.04V325.617Z" fill="#068940"/>
<path fill-rule="evenodd" clip-rule="evenodd" d="M487.452 209.306H483.775V212.982H487.452V209.306ZM480.098 216.659V212.982H491.128V216.659H480.098ZM476.422 216.659V220.336H494.805V216.659H476.422ZM472.745 227.689V231.366H498.482V227.689H472.745ZM494.805 224.012V227.689H476.422V224.012H480.098V220.336H491.128V224.012H494.805Z" fill="#0B5027"/>
<path fill-rule="evenodd" clip-rule="evenodd" d="M202.511 178.551H198.834V182.228H202.511V178.551ZM195.157 185.904V182.228H206.187V185.904H195.157ZM191.48 185.904V189.581H209.864V185.904H191.48ZM187.804 196.934V200.611H213.54V196.934H187.804ZM209.864 193.258V196.934H191.48V193.258H209.864ZM206.187 193.258V189.581H195.157V193.258H206.187Z" fill="#0B5027"/>
<path fill-rule="evenodd" clip-rule="evenodd" d="M520.542 213.479H516.865V217.156H520.542V213.479ZM513.188 220.832V217.156H524.218V220.832H527.895V224.509H509.512V220.832H513.188ZM531.572 235.539V231.862H505.835V235.539H531.572ZM527.895 228.186V231.862H509.512V228.186H527.895ZM524.218 228.186V224.509H513.188V228.186H524.218Z" fill="#0B5027"/>
<path fill-rule="evenodd" clip-rule="evenodd" d="M595.914 207.964H592.237V211.641H595.914V207.964ZM588.56 215.318V211.641H599.59V215.318H588.56ZM584.884 215.318V218.994H603.267V215.318H584.884ZM581.207 226.348V230.024H606.944V226.348H581.207ZM603.267 222.671V226.348H584.884V222.671H603.267ZM599.59 222.671V218.994H588.56V222.671H599.59Z" fill="#0B5027"/>
<path d="M213.54 200.61H209.864V196.934H206.188V193.258H198.833V189.582H191.48V185.903H184.125V182.227H176.773V178.551H165.742V174.874H158.39V171.198H147.361V167.522H132.654V163.843H114.271V160.167H88.5349V156.491H44.413V160.167H18.6774V163.843H0.293945V167.522V399.458L515.027 399.458L518.703 399.458H706.214V167.522H691.506V171.198H680.478V174.874H673.123V178.551H662.094V182.227H654.739V185.903H647.387V189.582H640.035V193.258H632.68V196.934H629.004V200.61H621.651V204.286H614.296V207.965H610.62V211.641H606.944V215.317H599.592L599.59 215.317V218.993H595.913V222.67H592.237V226.346H588.561L588.56 226.347V230.024H584.884V233.701L581.208 233.701L581.207 233.701V237.377L577.532 237.377H573.854V241.054H566.5V244.731H551.794V248.408H533.41V244.732H515.027V241.053H500.32V237.377H489.291V233.701H481.936V230.024H470.908V226.348L470.908 226.346H463.553L463.553 222.672L463.553 222.67H456.2L456.201 218.993H452.524V215.318L448.848 215.317H445.169V211.642L441.493 211.641H437.817V207.965L437.817 207.963H430.465V204.289H430.462V204.287H423.11L423.11 200.611L412.079 200.611V196.934H404.726V193.258H393.698V189.582H378.99V185.903H360.607V182.227H334.871V178.551H290.75V182.227H265.014V185.903H246.63V189.582H231.923V193.258H220.895V196.934H213.54V200.61Z" fill="#8DD122"/>
<path fill-rule="evenodd" clip-rule="evenodd" d="M62.7973 134.431H59.1207V138.108H62.7973V134.431ZM55.4438 141.784V138.108H66.4738V141.784H55.4438ZM51.7672 141.784V145.461H70.1505V141.784H51.7672ZM48.0906 152.814V156.491H73.8272V152.814H70.1505V149.138H51.7672V152.814H48.0906ZM66.4738 149.138V145.461H55.4438V149.138H66.4738Z" fill="#068940"/>
<path fill-rule="evenodd" clip-rule="evenodd" d="M99.5639 138.108H95.8873V141.784H99.5639V138.108ZM92.2106 145.461V141.784H103.241V145.461H92.2106ZM88.534 145.461V149.138H106.917V145.461H88.534ZM84.8572 156.491V160.168H110.594V156.491H84.8572ZM106.917 152.814V156.491H88.534V152.814H92.2106V149.138H103.241V152.814H106.917Z" fill="#068940"/>
<path fill-rule="evenodd" clip-rule="evenodd" d="M309.134 156.491H305.457V160.168H309.134V156.491ZM301.78 163.844V160.168H312.81V163.844H301.78ZM298.104 163.844V167.521H316.487V163.844H298.104ZM294.427 174.874V178.551H320.164V174.874H294.427ZM316.487 171.198V174.874H298.104V171.198H316.487ZM312.81 171.198V167.521H301.78V171.198H312.81Z" fill="#068940"/>
<path fill-rule="evenodd" clip-rule="evenodd" d="M349.577 160.167H345.9V163.844H349.577V160.167ZM342.224 167.521V163.844H353.254V167.521H342.224ZM338.547 167.521V171.197H356.93V167.521H338.547ZM334.87 178.551V182.227H360.607V178.551H334.87ZM356.93 174.874V178.551H338.547V174.874H356.93ZM353.254 174.874V171.197H342.224V174.874H353.254Z" fill="#068940"/>
<path fill-rule="evenodd" clip-rule="evenodd" d="M158.391 141.784H162.067V149.138H165.744V152.814H162.067V152.814H158.391V152.814H154.714V149.138H158.391V149.138H154.714V145.461H158.391V141.784Z" fill="#0B5027"/>
<path fill-rule="evenodd" clip-rule="evenodd" d="M448.847 145.461H452.524V152.814H456.2V156.491H452.524V156.491H448.847V145.461ZM448.847 149.137H445.17V152.814V152.814V156.491H448.847V152.814V152.814V149.137Z" fill="#0B5027"/>
<path fill-rule="evenodd" clip-rule="evenodd" d="M481.937 141.784H478.26V149.138H474.584V152.814H478.26V152.814H481.937V152.814H485.614V149.138H481.937V149.138H485.614V145.461H481.937V141.784Z" fill="#0B5027"/>
<path fill-rule="evenodd" clip-rule="evenodd" d="M198.834 138.108H202.511V141.784H206.187V145.461H202.511V145.461H206.187H206.187H209.864V149.138H206.187H206.187H202.511V149.138H198.834V138.108ZM195.157 145.461H198.834V149.138H195.157V145.461Z" fill="#0B5027"/>
<path fill-rule="evenodd" clip-rule="evenodd" d="M191.481 138.108H187.804V145.461H184.127V149.138H187.804V149.138H191.481V149.138H195.157V145.461H191.481V145.461H195.157V141.784H191.481V138.108Z" fill="#0B5027"/>
<rect x="79.2662" y="56.7949" width="14.1708" height="2.83416" fill="white"/>
<rect x="73.598" y="59.6292" width="25.5075" height="2.83416" fill="white"/>
<rect x="70.7639" y="62.4633" width="31.1758" height="2.83416" fill="white"/>
<rect x="67.9298" y="65.2975" width="36.8441" height="2.83416" fill="white"/>
<rect x="65.0955" y="68.1316" width="42.5125" height="2.83416" fill="white"/>
<rect x="59.4272" y="70.9658" width="48.1808" height="2.83416" fill="white"/>
<rect x="53.7588" y="73.7999" width="56.6833" height="2.83416" fill="white"/>
<rect x="50.9247" y="76.6342" width="59.5175" height="2.83416" fill="white"/>
<rect x="50.9247" y="79.4683" width="59.5175" height="2.83416" fill="white"/>
<rect x="48.0906" y="82.3025" width="62.3516" height="2.83416" fill="white"/>
<rect x="48.0906" y="85.1366" width="65.1858" height="2.83416" fill="white"/>
<rect x="48.0906" y="87.9708" width="68.0199" height="2.83416" fill="white"/>
<rect x="48.0906" y="90.8049" width="68.0199" height="2.83416" fill="white"/>
<rect x="50.9247" y="93.6392" width="65.1858" height="2.83416" fill="white"/>
<rect x="50.9247" y="96.4733" width="65.1858" height="2.83416" fill="white"/>
<rect x="53.7588" y="99.3074" width="59.5175" height="2.83416" fill="white"/>
<rect x="59.4272" y="102.142" width="51.015" height="2.83416" fill="white"/>
</g>
<defs>
<clipPath id="clip0_8_1604">
<rect width="655" height="228" fill="white"/>
</clipPath>
<clipPath id="clip1_8_1604">
<rect width="705.92" height="183.833" fill="white" transform="translate(0.293945 31.4841)"/>
</clipPath>
</defs>
</svg>
