<svg width="655" height="229" viewBox="0 0 655 229" fill="none" xmlns="http://www.w3.org/2000/svg">
<g clip-path="url(#clip0_11_112)">
<rect width="655" height="228" transform="translate(0 0.500061)" fill="#122A52"/>
<g opacity="0.5" clip-path="url(#clip1_11_112)">
<rect width="51.4733" height="29.4133" transform="matrix(-1 0 0 1 61.4905 186.404)" fill="#667AF9"/>
<path fill-rule="evenodd" clip-rule="evenodd" d="M429.157 90.8109H432.834V98.1642H436.51V105.518H440.187V112.871H443.864V120.224H447.54V127.578H451.217V134.931H454.894V142.284H458.57V149.638H462.247V156.991H465.924V164.344H469.6V171.698H473.277V179.051H476.954V186.404H480.63V193.758H484.307V201.111H487.984V208.464H491.66V215.818H495.337V223.171H499.014V230.524H502.69V237.878H359.3V230.524H362.977V223.171H366.654V215.818H370.33V208.464H374.007V201.111H377.684V193.758H381.36V186.404H385.037V179.051H388.714V171.698H392.39V164.344H396.067V156.991H399.744V149.638H403.42V142.284H407.097V134.931H410.774V127.578H414.45V120.224H418.127V112.871H421.804V105.518H425.48V98.1642H429.157V90.8109ZM443.864 208.464V164.344H447.54V171.698H451.217V179.051H454.894V186.404H458.57V193.758H462.247V201.111H465.924V208.464H443.864ZM396.067 208.464V201.111H399.744V193.758H403.42V186.404H407.097V179.051H410.774V171.698H414.45V164.344H418.127V208.464H396.067Z" fill="#667AF9"/>
<path d="M447.54 164.344H443.864V208.464H465.924V201.111H462.247V193.758H458.57V186.404H454.894V179.051H451.217V171.698H447.54V164.344Z" fill="#667AF9"/>
<path d="M396.067 201.111V208.464H418.127V164.344H414.45V171.698H410.774V179.051H407.097V186.404H403.42V193.758H399.744V201.111H396.067Z" fill="#667AF9"/>
<rect width="234.204" height="69.8566" transform="matrix(-1 0 0 1 295.694 145.961)" fill="#667AF9"/>
<rect width="51.4733" height="47.7966" transform="matrix(-1 0 0 1 13.6938 168.021)" fill="#667AF9"/>
<rect width="334.577" height="69.8566" transform="matrix(-1 0 0 1 668.14 168.021)" fill="#667AF9"/>
<path fill-rule="evenodd" clip-rule="evenodd" d="M646.08 94.4875H649.757V98.1642H653.434V101.841H657.11V105.518H660.787V109.194H664.464V112.871H668.14V116.548H671.817V120.224H675.494V123.901H679.17V127.578H682.847V131.254H686.524V134.931H690.2V138.608H693.877V142.284H697.554V145.961H701.23V149.638H704.907V153.314H708.584V156.991H712.26V160.668H715.937V164.344H719.614V168.021H576.224V164.344H579.9V160.668H583.577V156.991H587.254V153.314H590.93V149.638H594.607V145.961H598.284V142.284H601.96V138.608H605.637V134.931H609.314V131.254H612.99V127.578H616.667V123.901H620.344V120.224H624.02V116.548H627.697V112.871H631.374V109.194H635.05V105.518H638.727V101.841H642.404V98.1642H646.08V94.4875ZM660.787 153.314V131.254H664.464V134.931H668.14V138.608H671.817V142.284H675.494V145.961H679.17V149.638H682.847V153.314H660.787ZM612.99 153.314V149.638H616.667V145.961H620.344V142.284H624.02V138.608H627.697V134.931H631.374V131.254H635.05V153.314H612.99Z" fill="#667AF9"/>
<path d="M664.464 131.254H660.787V153.314H682.847V149.638H679.17V145.961H675.494V142.284H671.817V138.608H668.14V134.931H664.464V131.254Z" fill="#667AF9"/>
<path d="M612.99 149.638V153.314H635.05V131.254H631.374V134.931H627.697V138.608H624.02V142.284H620.344V145.961H616.667V149.638H612.99Z" fill="#667AF9"/>
<path fill-rule="evenodd" clip-rule="evenodd" d="M-59.8395 94.4875H-56.1628V98.1642H-52.4861V101.841H-48.8095V105.518H-45.1328V109.194H-41.4561V112.871H-37.7795V116.548H-34.1028V120.224H-30.4261V123.901H-26.7495V127.578H-23.0728V131.254H-19.3961V134.931H-15.7195V138.608H-12.0428V142.284H-8.36614V145.961H-4.68948V149.638H-1.01281V153.314H2.66385V156.991H6.34052V160.668H10.0172V164.344H13.6938V168.021H-129.696V164.344H-126.019V160.668H-122.343V156.991H-118.666V153.314H-114.989V149.638H-111.313V145.961H-107.636V142.284H-103.959V138.608H-100.283V134.931H-96.6061V131.254H-92.9294V127.578H-89.2528V123.901H-85.5761V120.224H-81.8994V116.548H-78.2228V112.871H-74.5461V109.194H-70.8695V105.518H-67.1928V101.841H-63.5161V98.1642H-59.8395V94.4875ZM-45.1328 153.314V131.254H-41.4561V134.931H-37.7795V138.608H-34.1028V142.284H-30.4261V145.961H-26.7495V149.638H-23.0728V153.314H-45.1328ZM-92.9294 153.314V149.638H-89.2528V145.961H-85.5761V142.284H-81.8994V138.608H-78.2228V134.931H-74.5461V131.254H-70.8695V153.314H-92.9294Z" fill="#667AF9"/>
<path d="M-41.4561 131.254H-45.1328V153.314H-23.0728V149.638H-26.7495V145.961H-30.4261V142.284H-34.1028V138.608H-37.7795V134.931H-41.4561V131.254Z" fill="#667AF9"/>
<path d="M-92.9294 149.638V153.314H-70.8695V131.254H-74.5461V134.931H-78.2228V138.608H-81.8994V142.284H-85.5761V145.961H-89.2528V149.638H-92.9294Z" fill="#667AF9"/>
<path fill-rule="evenodd" clip-rule="evenodd" d="M-26.7495 127.578H-23.0728V131.254H-19.3962V134.931H-15.7195V138.608H-12.0428V142.284H-8.36616V145.961H-4.6895V149.638H-1.01283V153.314H2.66383V156.991H6.3405V160.668H10.0172V164.344H13.6938V168.021H17.3705V171.697H21.0472V175.374H24.7238V179.051H28.4005V182.727H32.0772V186.404H35.7538V190.081H39.4305V193.757H43.1071V197.434H46.7838V201.111H-96.6061V197.434H-92.9295V193.757H-89.2528V190.081H-85.5761V186.404H-81.8995V182.727H-78.2228V179.051H-74.5461V175.374H-70.8695V171.697H-67.1928V168.021H-63.5161V164.344H-59.8395V160.668H-56.1628V156.991H-52.4861V153.314H-48.8095V149.638H-45.1328V145.961H-41.4561V142.284H-37.7795V138.608H-34.1028V134.931H-30.4262V131.254H-26.7495V127.578ZM-12.0428 186.404V164.344H-8.36616V168.021H-4.6895V171.697H-1.01283V175.374H2.66383V179.051H6.3405V182.727H10.0172V186.404H-12.0428ZM-59.8395 186.404V182.727H-56.1628V179.051H-52.4861V175.374H-48.8095V171.697H-45.1328V168.021H-41.4561V164.344H-37.7795V186.404H-59.8395Z" fill="#667AF9"/>
<path d="M-8.36616 164.344H-12.0428V186.404H10.0172V182.727H6.3405V179.051H2.66383V175.374H-1.01283V171.697H-4.6895V168.021H-8.36616V164.344Z" fill="#667AF9"/>
<path d="M-59.8395 182.727V186.404H-37.7795V164.344H-41.4561V168.021H-45.1328V171.697H-48.8095V175.374H-52.4861V179.051H-56.1628V182.727H-59.8395Z" fill="#667AF9"/>
<path fill-rule="evenodd" clip-rule="evenodd" d="M271.06 68.7509H274.737V76.1042H278.414V83.4576H282.09V90.8109H285.767V98.1642H289.444V105.518H293.12V112.871H296.797V120.224H300.474V127.578H304.15V134.931H307.827V142.284H311.504V149.638H315.18V156.991H318.857V164.344H322.534V171.698H326.21V179.051H329.887V186.404H333.564V193.758H337.24V201.111H340.917V208.464H344.594V215.818H201.204V208.464H204.88V201.111H208.557V193.758H212.234V186.404H215.91V179.051H219.587V171.698H223.264V164.344H226.94V156.991H230.617V149.638H234.294V142.284H237.97V134.931H241.647V127.578H245.324V120.224H249V112.871H252.677V105.518H256.354V98.1642H260.03V90.8109H263.707V83.4576H267.384V76.1042H271.06V68.7509ZM285.767 186.404V142.284H289.444V149.638H293.12V156.991H296.797V164.344H300.474V171.698H304.15V179.051H307.827V186.404H285.767ZM237.97 186.404V179.051H241.647V171.698H245.324V164.344H249V156.991H252.677V149.638H256.354V142.284H260.03V186.404H237.97Z" fill="#667AF9"/>
<path d="M289.444 142.284H285.767V186.404H307.827V179.051H304.15V171.698H300.474V164.344H296.797V156.991H293.12V149.638H289.444V142.284Z" fill="#667AF9"/>
<path d="M237.97 179.051V186.404H260.03V142.284H256.354V149.638H252.677V156.991H249V164.344H245.324V171.698H241.647V179.051H237.97Z" fill="#667AF9"/>
<path d="M68.844 120.224V127.578H65.1673V134.931H61.4906V142.284H57.814V149.638H54.1373V156.991H87.2273V149.638H83.5506V142.284H79.874V134.931H76.1973V127.578H72.5206V120.224H68.844Z" fill="#667AF9"/>
<path d="M54.1372 149.638V156.991H50.4605V164.344H46.7839V171.698H43.1072V179.051H39.4305V186.404H72.5205V179.051H68.8438V171.698H65.1672V164.344H61.4905V156.991H57.8138V149.638H54.1372Z" fill="#667AF9"/>
<path d="M473.277 149.638V153.314H469.6V156.991H465.924V160.668H462.247V164.344H458.57V168.021H491.66V164.344H487.983V160.668H484.307V156.991H480.63V153.314H476.953V149.638H473.277Z" fill="#667AF9"/>
<path d="M201.204 90.8109V94.4876H197.527V98.1642H193.851V101.841H190.174V105.518H186.497V109.194H182.821V112.871H179.144V116.548H175.467V120.224H171.791V123.901H168.114V127.578H164.437V131.254H160.761V134.931H157.084V138.608H153.407V142.284H149.731V145.961H256.354V142.284H252.677V138.608H249.001V134.931H245.324V131.254H241.647V127.578H237.971V123.901H234.294V120.224H230.617V116.548H226.941V112.871H223.264V109.194H219.587V105.518H215.911V101.841H212.234V98.1642H208.557V94.4876H204.881V90.8109H201.204Z" fill="#667AF9"/>
<path d="M535.78 123.901V127.578H532.104V131.254H528.427V134.931H524.75V138.608H521.074V142.284H517.397V145.961H513.72V149.638H510.044V153.314H506.367V156.991H502.69V160.668H499.014V164.344H495.337V168.021H491.66V171.698H487.984V175.374H484.307V179.051H590.93V175.374H587.254V171.698H583.577V168.021H579.9V164.344H576.224V160.668H572.547V156.991H568.87V153.314H565.194V149.638H561.517V145.961H557.84V142.284H554.164V138.608H550.487V134.931H546.81V131.254H543.134V127.578H539.457V123.901H535.78Z" fill="#667AF9"/>
<path d="M370.33 131.254V134.931H366.654V138.608H362.977V142.284H359.3V145.961H355.624V149.638H351.947V153.314H348.27V156.991H344.594V160.668H340.917V164.344H337.24V168.021H333.564V171.698H329.887V175.374H326.21V179.051H322.534V182.728H318.857V186.404H425.48V182.728H421.804V179.051H418.127V175.374H414.45V171.698H410.774V168.021H407.097V164.344H403.42V160.668H399.744V156.991H396.067V153.314H392.39V149.638H388.714V145.961H385.037V142.284H381.36V138.608H377.684V134.931H374.007V131.254H370.33Z" fill="#667AF9"/>
<path d="M168.114 123.901V127.578H164.437V131.254H160.76V134.931H157.084V138.608H153.407V142.284H149.73V145.961H146.054V149.638H142.377V153.314H138.7V156.991H135.024V160.668H131.347V164.344H127.67V168.021H123.994V171.698H120.317V175.374H116.64V179.051H223.264V175.374H219.587V171.698H215.91V168.021H212.234V164.344H208.557V160.668H204.88V156.991H201.204V153.314H197.527V149.638H193.85V145.961H190.174V142.284H186.497V138.608H182.82V134.931H179.144V131.254H175.467V127.578H171.79V123.901H168.114Z" fill="#667AF9"/>
<path d="M105.61 123.901V120.224H109.287V123.901H112.964V127.578H116.64V131.254H120.317V134.931H123.994V138.608H127.67V142.284H131.347V145.961H135.024V149.638H138.7V153.314H142.377V156.991H72.5204V153.314H76.1971V149.638H79.8738V145.961H83.5504V142.284H87.2271V138.608H90.9038V134.931H94.5804V131.254H98.2571V127.578H101.934V123.901H105.61Z" fill="#667AF9"/>
<rect x="601.96" y="208.464" width="51.4733" height="29.4133" fill="#00499C"/>
<path fill-rule="evenodd" clip-rule="evenodd" d="M234.294 112.871H230.617V120.224H226.94V127.578H223.264V134.931H219.587V142.284H215.91V149.638H212.234V156.991H208.557V164.344H204.88V171.698H201.204V179.051H197.527V186.404H193.85V193.758H190.174V201.111H186.497V208.464H182.82V215.818H179.144V223.171H175.467V230.524H171.79V237.878H168.114V245.231H164.437V252.584H160.76V259.938H304.15V252.584H300.474V245.231H296.797V237.878H293.12V230.524H289.444V223.171H285.767V215.818H282.09V208.464H278.414V201.111H274.737V193.758H271.06V186.404H267.384V179.051H263.707V171.698H260.03V164.344H256.354V156.991H252.677V149.638H249V142.284H245.324V134.931H241.647V127.578H237.97V120.224H234.294V112.871ZM219.587 230.524V186.404H215.91V193.758H212.234V201.111H208.557V208.464H204.88V215.818H201.204V223.171H197.527V230.524H219.587ZM267.384 230.524V223.171H263.707V215.818H260.03V208.464H256.354V201.111H252.677V193.758H249V186.404H245.324V230.524H267.384Z" fill="#00499C"/>
<path d="M215.91 186.404H219.587V230.524H197.527V223.171H201.204V215.818H204.88V208.464H208.557V201.111H212.234V193.758H215.91V186.404Z" fill="#00499C"/>
<path d="M267.384 223.171V230.524H245.324V186.404H249V193.758H252.677V201.111H256.354V208.464H260.03V215.818H263.707V223.171H267.384Z" fill="#00499C"/>
<rect x="367.757" y="168.021" width="234.204" height="69.8566" fill="#00499C"/>
<rect x="649.757" y="190.081" width="51.4733" height="47.7966" fill="#00499C"/>
<rect x="-4.68958" y="190.081" width="334.577" height="69.8566" fill="#00499C"/>
<path fill-rule="evenodd" clip-rule="evenodd" d="M17.3703 116.548H13.6937V120.224H10.017V123.901H6.34034V127.578H2.66368V131.254H-1.01299V134.931H-4.68965V138.608H-8.36632V142.284H-12.043V145.961H-15.7196V149.638H-19.3963V153.314H-23.073V156.991H-26.7496V160.668H-30.4263V164.344H-34.103V168.021H-37.7796V171.698H-41.4563V175.374H-45.133V179.051H-48.8096V182.728H-52.4863V186.404H-56.163V190.081H87.227V186.404H83.5503V182.728H79.8736V179.051H76.197V175.374H72.5203V171.698H68.8437V168.021H65.167V164.344H61.4903V160.668H57.8137V156.991H54.137V153.314H50.4603V149.638H46.7837V145.961H43.107V142.284H39.4303V138.608H35.7537V134.931H32.077V131.254H28.4003V127.578H24.7237V123.901H21.047V120.224H17.3703V116.548ZM2.66368 175.374V153.314H-1.01299V156.991H-4.68965V160.668H-8.36632V164.344H-12.043V168.021H-15.7196V171.698H-19.3963V175.374H2.66368ZM50.4603 175.374V171.698H46.7837V168.021H43.107V164.344H39.4303V160.668H35.7537V156.991H32.077V153.314H28.4003V175.374H50.4603Z" fill="#00499C"/>
<path d="M-1.01299 153.314H2.66368V175.374H-19.3963V171.698H-15.7196V168.021H-12.043V164.344H-8.36632V160.668H-4.68965V156.991H-1.01299V153.314Z" fill="#00499C"/>
<path d="M50.4603 171.698V175.374H28.4003V153.314H32.077V156.991H35.7537V160.668H39.4303V164.344H43.107V168.021H46.7837V171.698H50.4603Z" fill="#00499C"/>
<path fill-rule="evenodd" clip-rule="evenodd" d="M723.29 116.548H719.613V120.224H715.937V123.901H712.26V127.578H708.583V131.254H704.907V134.931H701.23V138.608H697.553V142.284H693.877V145.961H690.2V149.638H686.523V153.314H682.847V156.991H679.17V160.668H675.493V164.344H671.817V168.021H668.14V171.698H664.463V175.374H660.787V179.051H657.11V182.728H653.434V186.404H649.757V190.081H793.147V186.404H789.47V182.728H785.793V179.051H782.117V175.374H778.44V171.698H774.763V168.021H771.087V164.344H767.41V160.668H763.733V156.991H760.057V153.314H756.38V149.638H752.703V145.961H749.027V142.284H745.35V138.608H741.673V134.931H737.997V131.254H734.32V127.578H730.643V123.901H726.967V120.224H723.29V116.548ZM708.583 175.374V153.314H704.907V156.991H701.23V160.668H697.553V164.344H693.877V168.021H690.2V171.698H686.523V175.374H708.583ZM756.38 175.374V171.698H752.703V168.021H749.027V164.344H745.35V160.668H741.673V156.991H737.997V153.314H734.32V175.374H756.38Z" fill="#00499C"/>
<path d="M704.907 153.314H708.583V175.374H686.523V171.698H690.2V168.021H693.877V164.344H697.553V160.668H701.23V156.991H704.907V153.314Z" fill="#00499C"/>
<path d="M756.38 171.698V175.374H734.32V153.314H737.997V156.991H741.673V160.668H745.35V164.344H749.027V168.021H752.703V171.698H756.38Z" fill="#00499C"/>
<path fill-rule="evenodd" clip-rule="evenodd" d="M690.2 149.638H686.523V153.314H682.847V156.991H679.17V160.668H675.493V164.344H671.817V168.021H668.14V171.698H664.463V175.374H660.787V179.051H657.11V182.728H653.433V186.404H649.757V190.081H646.08V193.758H642.403V197.434H638.727V201.111H635.05V204.788H631.373V208.464H627.697V212.141H624.02V215.818H620.343V219.494H616.667V223.171H760.057V219.494H756.38V215.818H752.703V212.141H749.027V208.464H745.35V204.788H741.673V201.111H737.997V197.434H734.32V193.758H730.643V190.081H726.967V186.404H723.29V182.728H719.613V179.051H715.937V175.374H712.26V171.698H708.583V168.021H704.907V164.344H701.23V160.668H697.553V156.991H693.877V153.314H690.2V149.638ZM675.493 208.464V186.404H671.817V190.081H668.14V193.758H664.463V197.434H660.787V201.111H657.11V204.788H653.433V208.464H675.493ZM723.29 208.464V204.788H719.613V201.111H715.937V197.434H712.26V193.758H708.583V190.081H704.907V186.404H701.23V208.464H723.29Z" fill="#00499C"/>
<path d="M671.817 186.404H675.493V208.464H653.433V204.788H657.11V201.111H660.787V197.434H664.463V193.758H668.14V190.081H671.817V186.404Z" fill="#00499C"/>
<path d="M723.29 204.788V208.464H701.23V186.404H704.907V190.081H708.583V193.758H712.26V197.434H715.937V201.111H719.613V204.788H723.29Z" fill="#00499C"/>
<path fill-rule="evenodd" clip-rule="evenodd" d="M392.39 90.8109H388.713V98.1642H385.037V105.518H381.36V112.871H377.683V120.224H374.007V127.578H370.33V134.931H366.653V142.284H362.977V149.638H359.3V156.991H355.623V164.344H351.947V171.698H348.27V179.051H344.593V186.404H340.917V193.758H337.24V201.111H333.563V208.464H329.887V215.818H326.21V223.171H322.533V230.524H318.857V237.878H462.247V230.524H458.57V223.171H454.893V215.818H451.217V208.464H447.54V201.111H443.863V193.758H440.187V186.404H436.51V179.051H432.833V171.698H429.157V164.344H425.48V156.991H421.803V149.638H418.127V142.284H414.45V134.931H410.773V127.578H407.097V120.224H403.42V112.871H399.743V105.518H396.067V98.1642H392.39V90.8109ZM377.683 208.464V164.344H374.007V171.698H370.33V179.051H366.653V186.404H362.977V193.758H359.3V201.111H355.623V208.464H377.683ZM425.48 208.464V201.111H421.803V193.758H418.127V186.404H414.45V179.051H410.773V171.698H407.097V164.344H403.42V208.464H425.48Z" fill="#00499C"/>
<path d="M374.007 164.344H377.683V208.464H355.623V201.111H359.3V193.758H362.977V186.404H366.653V179.051H370.33V171.698H374.007V164.344Z" fill="#00499C"/>
<path d="M425.48 201.111V208.464H403.42V164.344H407.097V171.698H410.773V179.051H414.45V186.404H418.127V193.758H421.803V201.111H425.48Z" fill="#00499C"/>
<path d="M594.607 142.284V149.638H598.284V156.991H601.96V164.344H605.637V171.698H609.314V179.051H576.224V171.698H579.9V164.344H583.577V156.991H587.254V149.638H590.93V142.284H594.607Z" fill="#00499C"/>
<path d="M609.314 171.698V179.051H612.99V186.404H616.667V193.758H620.343V201.111H624.02V208.464H590.93V201.111H594.607V193.758H598.284V186.404H601.96V179.051H605.637V171.698H609.314Z" fill="#00499C"/>
<path d="M190.174 171.698V175.374H193.85V179.051H197.527V182.728H201.204V186.404H204.88V190.081H171.79V186.404H175.467V182.728H179.144V179.051H182.82V175.374H186.497V171.698H190.174Z" fill="#00499C"/>
<path d="M462.247 112.871V116.548H465.924V120.224H469.6V123.901H473.277V127.578H476.954V131.254H480.63V134.931H484.307V138.608H487.984V142.284H491.66V145.961H495.337V149.638H499.014V153.314H502.69V156.991H506.367V160.668H510.044V164.344H513.72V168.021H407.097V164.344H410.774V160.668H414.45V156.991H418.127V153.314H421.804V149.638H425.48V145.961H429.157V142.284H432.834V138.608H436.51V134.931H440.187V131.254H443.864V127.578H447.54V123.901H451.217V120.224H454.894V116.548H458.57V112.871H462.247Z" fill="#00499C"/>
<path d="M127.67 145.961V149.638H131.347V153.314H135.024V156.991H138.7V160.668H142.377V164.344H146.054V168.021H149.73V171.698H153.407V175.374H157.084V179.051H160.76V182.728H164.437V186.404H168.114V190.081H171.79V193.758H175.467V197.434H179.144V201.111H72.5204V197.434H76.1971V193.758H79.8737V190.081H83.5504V186.404H87.227V182.728H90.9037V179.051H94.5804V175.374H98.257V171.698H101.934V168.021H105.61V164.344H109.287V160.668H112.964V156.991H116.64V153.314H120.317V149.638H123.994V145.961H127.67Z" fill="#00499C"/>
<path d="M293.12 153.314V156.991H296.797V160.668H300.474V164.344H304.15V168.021H307.827V171.698H311.504V175.374H315.18V179.051H318.857V182.728H322.534V186.404H326.21V190.081H329.887V193.758H333.564V197.434H337.24V201.111H340.917V204.788H344.594V208.464H237.97V204.788H241.647V201.111H245.324V197.434H249V193.758H252.677V190.081H256.354V186.404H260.03V182.728H263.707V179.051H267.384V175.374H271.06V171.698H274.737V168.021H278.414V164.344H282.09V160.668H285.767V156.991H289.444V153.314H293.12Z" fill="#00499C"/>
<path d="M495.337 145.961V149.638H499.014V153.314H502.69V156.991H506.367V160.668H510.044V164.344H513.72V168.021H517.397V171.698H521.074V175.374H524.75V179.051H528.427V182.728H532.104V186.404H535.78V190.081H539.457V193.758H543.134V197.434H546.81V201.111H440.187V197.434H443.864V193.758H447.54V190.081H451.217V186.404H454.894V182.728H458.57V179.051H462.247V175.374H465.924V171.698H469.6V168.021H473.277V164.344H476.954V160.668H480.63V156.991H484.307V153.314H487.984V149.638H491.66V145.961H495.337Z" fill="#00499C"/>
<path d="M557.84 145.961V142.284H554.163V145.961H550.487V149.638H546.81V153.314H543.133V156.991H539.457V160.668H535.78V164.344H532.103V168.021H528.427V171.698H524.75V175.374H521.073V179.051H590.93V175.374H587.253V171.698H583.577V168.021H579.9V164.344H576.223V160.668H572.547V156.991H568.87V153.314H565.193V149.638H561.517V145.961H557.84Z" fill="#00499C"/>
<path d="M637.598 51.0682H635.836V52.8297H637.598V51.0682Z" fill="#F9F4E6"/>
<path d="M639.359 52.8297H634.075V54.5913H639.359V52.8297Z" fill="#F9F4E6"/>
<path d="M637.598 54.5913H635.836V56.3529H637.598V54.5913Z" fill="#F9F4E6"/>
<path d="M362.823 34.9935H361.062V36.755H362.823V34.9935Z" fill="#F9F4E6"/>
<path d="M364.585 36.755H359.3V38.5166H364.585V36.755Z" fill="#F9F4E6"/>
<path d="M362.823 38.5166H361.062V40.2782H362.823V38.5166Z" fill="#F9F4E6"/>
<path d="M213.33 41.1589H215.092V39.3974H213.33V41.1589Z" fill="#F9F4E6"/>
</g>
<path fill-rule="evenodd" clip-rule="evenodd" d="M598.421 156.991H602.121V164.344H605.821V168.021H602.12V168.021H598.421V156.991ZM598.421 160.668H594.72V164.344V164.344V168.021H598.421V164.344V164.344V160.668Z" fill="#0B5027"/>
<path d="M209.914 403.327H161.813V399.651H147.013V395.974H135.913V392.297H128.513V388.621H121.112V384.944H117.412V381.267H110.012V377.591H106.312V373.914H98.912V370.237H95.212V366.561H91.5119V362.884H87.8118V355.531H84.1118V351.854H80.4117V344.501H76.7117V340.824H73.0116V333.471H69.3115V326.117H65.6115V315.087H61.9114V300.381H58.2113V252.584H61.9114V237.878H65.6115V226.848H69.3115V219.494H73.0116V212.141H76.7117V208.464H80.4117V201.111H84.1118V197.434H87.8118V190.081H91.5119V186.404H95.212V182.728H98.912V179.051H106.312V175.374H110.012V171.698H117.412V168.021H121.112V164.344H128.513V160.668H135.913V156.991H147.013V153.314H161.813V149.638H209.914V153.314H224.714V156.991H235.814V160.668H243.214V164.344H250.615V168.021H254.315V171.698H261.715V175.374H265.415V179.051H272.815V182.728H276.515V186.404H280.215V190.081H283.915V197.434H287.615V201.111H291.315V208.464H295.015V212.141H298.715V219.494H302.415V226.848H306.116V237.878H309.816V252.584H313.516V300.381H309.816V315.087H306.116V326.117H302.415V333.471H298.715V340.824H295.015V344.501H291.315V351.854H287.615V355.531H283.915V362.884H280.215V366.561H276.515V370.237H272.815V373.914H265.415V377.591H261.715V381.267H254.315V384.944H250.615V388.621H243.214V392.297H235.814V395.974H224.714V399.651H209.914V403.327Z" fill="#068940"/>
<path d="M764.923 326.117H761.221V315.087L757.521 315.086V307.734L753.822 307.734V300.382H750.122V293.027H746.423V285.675H742.721V281.998H739.021V274.643H735.322V267.291L731.622 267.291V263.615H727.923V259.939L724.22 259.938V252.584H720.521V248.908L716.821 248.907V245.231L713.122 245.231V241.555H709.422V237.876H705.723V234.2H702.02V230.524H698.321V226.848L694.621 226.848V223.172H690.922V219.492H687.222V215.817H683.52V212.141H679.82V208.464L672.421 208.464V204.788H668.722V201.112H665.022V197.433H657.62V193.757H650.221V190.081H646.522V186.405H639.12V182.728H631.721V179.05H624.319V175.373H616.92V171.697H605.819V168.021H598.42V164.345H587.321V160.669H572.52V156.99H554.02V153.314H528.12V149.638H483.718V153.314H457.818V156.99H439.318V160.669H424.517V164.345H413.418V168.021H406.017V171.697H394.918V175.373H387.516V179.05H380.117V182.728H372.718V186.405H365.316V190.081H361.617V193.757H354.218V197.433H346.816V201.112H343.116V204.788H339.417V208.464H332.018V212.14H328.316V215.816H324.616V219.492H320.916V223.171H317.217V226.848H313.517V230.524H309.818V234.2H306.116V237.876H302.416V241.555H298.716V245.231H295.017V248.907H291.317V252.583H287.615V259.938H283.916V263.615H280.216V267.291H276.517V274.643H272.817V281.998H269.115V285.674H265.415V293.027H261.716V300.382H258.016V307.734H254.317V315.086H250.614V326.117H246.915V333.47H243.215V344.501H239.516V359.208H235.816V377.592H232.117V403.328H228.414V447.447L232.117 447.447V473.183L235.816 473.183V491.566L239.516 491.567V506.274L243.215 506.274V517.305L246.915 517.305V524.657L250.614 524.658V535.689H254.317V543.041L258.016 543.041V550.393H261.716V557.748H265.415V565.101H269.115V568.777L272.817 568.777V576.132H276.517V583.484H280.216V587.16H283.916V590.837H287.615V598.192H291.317V601.867L295.017 601.868V605.544L298.716 605.544V609.22H302.416V612.899H306.116V616.575L309.818 616.575V620.251L313.517 620.251V623.927L317.217 623.927V627.604H320.916V631.282H324.616V634.959H328.316V638.635H332.018V642.311L339.417 642.311V645.987H343.116V649.663H346.816V653.342H354.218V657.018H361.617V660.694H365.316V664.37H372.718V668.046H380.117V671.725H387.516V675.401H394.918V679.078H406.017V682.754H413.418V686.43H424.517V690.106H439.318V693.785H457.818V697.461H483.718V701.137H528.12V697.461H554.02V693.785H572.52V690.106H587.321V686.43H598.42V682.754H605.819V679.078H616.92V675.401H624.319V671.725H631.721V668.046H639.12V664.37H646.522V660.694H650.221V657.018H657.62V653.342H665.022V649.663H668.722V645.987H672.421V642.311H679.82V638.635H683.52V634.959H687.222V631.282H690.922V627.604H694.621V623.927H698.321V620.251H702.02V616.575H705.723V612.899H709.422V609.22H713.122V605.544H716.821V601.868H720.521V598.192H724.22V590.837H727.923V587.16H731.622V583.484H735.322V576.132H739.021V568.777H742.721V565.101H746.423V557.748H750.122V550.393H753.822V543.041H757.521V535.689H761.221V524.658H764.923V517.305H768.623V506.274H772.322V491.567H776.022V473.183H779.721V447.447H783.424V403.328H779.721V377.592H776.022V359.209H772.322V344.501H768.623V333.47H764.923V326.117Z" fill="#068940"/>
<path fill-rule="evenodd" clip-rule="evenodd" d="M485.568 209.806H481.868V213.482H485.568V209.806ZM478.168 217.159V213.482H489.268V217.159H478.168ZM474.468 217.159V220.836L478.168 220.836V224.512H474.468V228.189H492.968V224.512H489.268V220.836L492.968 220.836V217.159H474.468ZM470.768 228.189V231.866H496.668V228.189H470.768Z" fill="#0B5027"/>
<path fill-rule="evenodd" clip-rule="evenodd" d="M198.814 179.051H195.114V182.728H198.814V179.051ZM191.414 186.404V182.728H202.514V186.404H191.414ZM187.714 186.404V190.081L191.414 190.081V193.758L187.714 193.758V197.434H206.214V193.758L202.514 193.758V190.081L206.214 190.081V186.404H187.714ZM184.014 197.434V201.111H209.914V197.434H184.014Z" fill="#0B5027"/>
<path fill-rule="evenodd" clip-rule="evenodd" d="M518.869 213.979H515.169V217.656H518.869V213.979ZM511.469 221.333V217.656H522.569V221.333H526.269V225.009L522.569 225.009V228.686L526.269 228.686V232.363H507.769V228.686L511.469 228.686V225.009L507.769 225.009V221.333H511.469ZM529.969 236.039V232.363H504.069V236.039H529.969Z" fill="#0B5027"/>
<path fill-rule="evenodd" clip-rule="evenodd" d="M594.72 208.464H591.02V212.141H594.72V208.464ZM587.32 215.818V212.141H598.42V215.818H587.32ZM602.121 219.494V215.818H583.62V219.494L587.32 219.494V223.171L583.62 223.171V226.848H579.92V230.524H605.821V226.848H602.121V223.171L598.42 223.171V219.494L602.121 219.494Z" fill="#0B5027"/>
<path d="M209.913 201.11H206.214V197.434H202.514V193.758H195.113V190.082H187.713V186.403H180.312V182.727H172.913V179.051H161.811V175.374H154.412V171.698H143.314V168.022H128.513V164.343H110.012V160.667H84.1129V156.991H39.7103V160.667H13.8108V164.343H-4.68958V168.022V399.958L513.319 399.958L517.018 399.958H705.722V168.022H690.921V171.698H679.823V175.374H672.421V179.051H661.322V182.727H653.92V186.403H646.521V190.082H639.122V193.758H631.721V197.434H628.021V201.11H620.622V204.786H613.22V208.465H609.521V212.141H605.821V215.817H598.422L598.42 215.818V219.494H594.72V223.17H591.02V226.846H587.321L587.32 226.848V230.524H583.62V234.201L579.922 234.201L579.92 234.201V237.877L576.222 237.878H572.52V241.554H565.12V245.231H550.32V248.908H531.819V245.232H513.319V241.553H498.518V237.877H487.419V234.201H480.018V230.525H468.919V226.848L468.919 226.846H461.517L461.517 223.172L461.517 223.17H454.118L454.118 219.493H450.418V215.818L446.719 215.817H443.017V212.142L439.317 212.141H435.618V208.465L435.618 208.463H428.219V204.789H428.216V204.787H420.817L420.817 201.111L409.715 201.111V197.434H402.316V193.758H391.218V190.082H376.417V186.403H357.916V182.727H332.017V179.051H287.614V182.727H261.715V186.403H243.215V190.082H228.414V193.758H217.315V197.434H209.913V201.11Z" fill="#8DD122"/>
<path fill-rule="evenodd" clip-rule="evenodd" d="M58.2115 134.931H54.5114V138.608H50.8113V142.284H61.9115V138.608H58.2115V134.931ZM65.6115 142.284H47.1112V145.961H50.8113V149.638H61.9115V145.961H65.6115V142.284ZM69.3117 153.314H65.6115V149.638H47.1112V153.314H43.4113V156.991H69.3117V153.314Z" fill="#068940"/>
<path fill-rule="evenodd" clip-rule="evenodd" d="M95.2121 138.608H91.512V142.284H95.2121V138.608ZM87.812 142.284H98.9122V145.961H102.612V149.638H84.1121V145.961H87.812V142.284ZM106.312 156.991L102.612 156.991V153.314H98.9122V149.638H87.812V153.314H84.1121V156.991L80.4117 156.991V160.668H106.312V156.991Z" fill="#068940"/>
<path fill-rule="evenodd" clip-rule="evenodd" d="M306.115 156.991H302.415V160.668H306.115V156.991ZM298.715 160.668H309.816V164.344H313.516V168.021L309.816 168.021V171.698L313.516 171.698V175.374H295.015V171.698L298.715 171.698V168.021L295.015 168.021V164.344H298.715V160.668ZM317.216 175.374H291.315V179.051H317.216V175.374Z" fill="#068940"/>
<path fill-rule="evenodd" clip-rule="evenodd" d="M346.816 160.668H343.116V164.344H346.816V160.668ZM339.416 164.344H350.516V168.021H354.216V171.698L350.516 171.698V175.374H339.416V171.698L335.716 171.698V168.021H339.416V164.344ZM357.916 179.051L354.216 179.051V175.374H335.716V179.051L332.016 179.051V182.728H357.916V179.051Z" fill="#068940"/>
<path fill-rule="evenodd" clip-rule="evenodd" d="M154.413 142.284H158.113V149.638H161.813V153.314L158.113 153.314L158.113 153.314L154.413 153.314H150.713V149.638H154.413V149.638H150.713V145.961H154.413V142.284Z" fill="#0B5027"/>
<path fill-rule="evenodd" clip-rule="evenodd" d="M446.718 145.961H450.418V153.314H454.118V156.991H450.418V156.991H446.718V145.961ZM446.718 149.638H443.018V153.314V153.314V156.991H446.718V153.314V153.314V149.638Z" fill="#0B5027"/>
<path fill-rule="evenodd" clip-rule="evenodd" d="M480.018 142.284H476.318V149.638H472.618V153.314L476.318 153.314L476.318 153.314L480.018 153.314V142.284ZM480.018 145.961H483.719V149.638H480.018V145.961ZM483.719 149.638H480.018V153.314H483.719V149.638Z" fill="#0B5027"/>
<path fill-rule="evenodd" clip-rule="evenodd" d="M195.114 138.608H198.814V142.284H202.514V145.961H206.214V149.638H202.514H202.514H198.814L195.114 149.638V138.608ZM191.414 145.961H195.114V149.638H191.414V145.961Z" fill="#0B5027"/>
<path fill-rule="evenodd" clip-rule="evenodd" d="M187.714 138.608H184.014V149.638L187.714 149.638H191.414V145.961V145.961V142.284H187.714V138.608ZM184.014 145.961H180.314V149.638H184.014V145.961Z" fill="#0B5027"/>
<path d="M504.157 50.6581H502.396V52.4196H504.157V50.6581Z" fill="#F9F4E6"/>
<path d="M505.919 52.4196H500.634V54.1812H505.919V52.4196Z" fill="#F9F4E6"/>
<path d="M504.157 54.1812H502.396V55.9428H504.157V54.1812Z" fill="#F9F4E6"/>
<path d="M474.291 74.4744H472.53V76.236H474.291V74.4744Z" fill="#F9F4E6"/>
<path d="M476.053 76.236H470.768V77.9975H476.053V76.236Z" fill="#F9F4E6"/>
<path d="M474.291 77.9976H472.53V79.7591H474.291V77.9976Z" fill="#F9F4E6"/>
<path d="M599.41 24.4715H588.935V27.963H599.41V24.4715Z" fill="#CFC9B8"/>
<path d="M595.918 27.963H585.444V31.4545H595.918V27.963Z" fill="#CFC9B8"/>
<path d="M588.935 31.4545H581.952V34.9461H588.935V31.4545Z" fill="#CFC9B8"/>
<path d="M613.376 31.4545H609.885V34.9461H613.376V31.4545Z" fill="#CFC9B8"/>
<path d="M620.359 34.9461H616.868V38.4377H620.359V34.9461Z" fill="#CFC9B8"/>
<path d="M585.444 41.9292H581.952V45.4208H585.444V41.9292Z" fill="#CFC9B8"/>
<path d="M616.868 41.9292H613.376V45.4208H616.868V41.9292Z" fill="#CFC9B8"/>
<path d="M571.478 45.4207H567.986V48.9123H571.478V45.4207Z" fill="#CFC9B8"/>
<path d="M571.477 48.9123H564.494V52.4038H571.477V48.9123Z" fill="#CFC9B8"/>
<path d="M567.986 52.4038H564.494V55.8954H567.986V52.4038Z" fill="#CFC9B8"/>
<path d="M620.359 69.8616H616.868V73.3531H620.359V69.8616Z" fill="#CFC9B8"/>
<path d="M620.359 73.3531H613.376V76.8447H620.359V73.3531Z" fill="#CFC9B8"/>
<path d="M616.868 76.8447H606.393V80.3362H616.868V76.8447Z" fill="#CFC9B8"/>
<path d="M595.918 80.3362H592.427V83.8278H595.918V80.3362Z" fill="#CFC9B8"/>
<path d="M609.885 80.3362H606.393V83.8278H609.885V80.3362Z" fill="#CFC9B8"/>
<path fill-rule="evenodd" clip-rule="evenodd" d="M585.444 20.9799H606.393V24.4715H613.376V27.963H620.359V31.4545H623.851V34.9461H623.851V38.4376H627.342V41.9292L627.342 45.4207H630.834V48.9123V52.4038L630.834 55.8954H630.834V59.3869V62.8785V66.37H627.342V69.8616V73.3531H623.851V76.8447H623.851V80.3362H620.359V83.8278H613.376V87.3193H606.393V90.8109H585.444V87.3193H578.461V83.8278H571.478V80.3362H567.986V76.8447V73.3531H564.494V69.8616V66.37H561.003V62.8785V59.3869V55.8954V52.4038V48.9123V45.4207H564.494V41.9292V38.4376H567.986V34.9461V31.4545H571.478V27.963H578.461V24.4715H585.444V20.9799ZM609.885 80.3362V83.8278H606.393V80.3362V76.8447H613.376V73.3531H616.868V69.8616H620.359V73.3531V76.8447H616.868V80.3362H609.885ZM595.919 80.3362V83.8278H592.427V80.3362H595.919ZM567.986 52.4038V55.8954H564.494V52.4038V48.9123H567.986V45.4207H571.478V48.9123V52.4038H567.986ZM581.952 45.4207H585.444V41.9292H581.952V45.4207ZM613.376 45.4207H616.868V41.9292H613.376V45.4207ZM620.359 34.9461V38.4376H616.868V34.9461H620.359ZM613.376 31.4545V34.9461H609.885V31.4545H613.376ZM588.935 31.4545V34.9461H581.952V31.4545H585.444V27.963H588.935V24.4715H599.41V27.963H595.919V31.4545H588.935Z" fill="#F9F4E6"/>
<g opacity="0.3">
<rect width="11.0614" height="2.21229" transform="matrix(-1 0 0 1 561.109 59.786)" fill="white"/>
<rect width="19.9106" height="2.21229" transform="matrix(-1 0 0 1 565.533 61.9984)" fill="white"/>
<rect width="24.3352" height="2.21229" transform="matrix(-1 0 0 1 567.746 64.2106)" fill="white"/>
<rect width="28.7597" height="2.21229" transform="matrix(-1 0 0 1 569.958 66.4229)" fill="white"/>
<rect width="33.1843" height="2.21229" transform="matrix(-1 0 0 1 572.17 68.6352)" fill="white"/>
<rect width="37.6089" height="2.21229" transform="matrix(-1 0 0 1 576.595 70.8475)" fill="white"/>
<rect width="44.2458" height="2.21229" transform="matrix(-1 0 0 1 581.02 73.0598)" fill="white"/>
<rect width="46.4581" height="2.21229" transform="matrix(-1 0 0 1 583.232 75.272)" fill="white"/>
<rect width="46.4581" height="2.21229" transform="matrix(-1 0 0 1 583.232 77.4844)" fill="white"/>
<rect width="48.6703" height="2.21229" transform="matrix(-1 0 0 1 585.444 79.6967)" fill="white"/>
<rect width="50.8826" height="2.21229" transform="matrix(-1 0 0 1 585.444 81.9089)" fill="white"/>
<rect width="53.0949" height="2.21229" transform="matrix(-1 0 0 1 585.444 84.1212)" fill="white"/>
<rect width="53.0949" height="2.21229" transform="matrix(-1 0 0 1 585.444 86.3336)" fill="white"/>
<rect width="50.8826" height="2.21229" transform="matrix(-1 0 0 1 583.232 88.5458)" fill="white"/>
<rect width="50.8826" height="2.21229" transform="matrix(-1 0 0 1 583.232 90.7581)" fill="white"/>
<rect width="46.4581" height="2.21229" transform="matrix(-1 0 0 1 581.02 92.9704)" fill="white"/>
<rect width="39.8212" height="2.21229" transform="matrix(-1 0 0 1 576.595 95.1826)" fill="white"/>
</g>
<g opacity="0.3">
<rect x="297.234" y="97.7431" width="11.0614" height="2.21229" fill="white"/>
<rect x="292.809" y="99.9554" width="19.9106" height="2.21229" fill="white"/>
<rect x="290.597" y="102.168" width="24.3352" height="2.21229" fill="white"/>
<rect x="288.385" y="104.38" width="28.7597" height="2.21229" fill="white"/>
<rect x="286.172" y="106.592" width="33.1843" height="2.21229" fill="white"/>
<rect x="281.748" y="108.805" width="37.6089" height="2.21229" fill="white"/>
<rect x="277.323" y="111.017" width="44.2458" height="2.21229" fill="white"/>
<rect x="275.111" y="113.229" width="46.4581" height="2.21229" fill="white"/>
<rect x="275.111" y="115.441" width="46.4581" height="2.21229" fill="white"/>
<rect x="272.899" y="117.654" width="48.6703" height="2.21229" fill="white"/>
<rect x="272.899" y="119.866" width="50.8826" height="2.21229" fill="white"/>
<rect x="272.899" y="122.078" width="53.0949" height="2.21229" fill="white"/>
<rect x="272.899" y="124.291" width="53.0949" height="2.21229" fill="white"/>
<rect x="275.111" y="126.503" width="50.8826" height="2.21229" fill="white"/>
<rect x="275.111" y="128.715" width="50.8826" height="2.21229" fill="white"/>
<rect x="277.323" y="130.927" width="46.4581" height="2.21229" fill="white"/>
<rect x="281.748" y="133.14" width="39.8212" height="2.21229" fill="white"/>
</g>
<path fill-rule="evenodd" clip-rule="evenodd" d="M60.4238 37.0909H49.3623V39.3032H60.4238V37.0909ZM64.8483 39.3033H44.9377V41.5156H42.7253V43.7278H40.513V45.9401H38.3007V48.1524H38.3007V50.3647H75.9096V48.1524L71.4851 48.1524V45.9401L69.2728 45.9401V43.7278L67.0605 43.7279V41.5156L64.8483 41.5156V39.3033ZM36.0886 50.3647H80.3344V52.577H82.5466V54.7893H36.0885V52.577H36.0886V50.3647ZM36.0885 54.7893H82.5466V57.0016L84.7587 57.0016V59.2139V61.4262V63.6384H31.6638V61.4261L33.8761 61.4262V59.2139L36.0884 59.2139V57.0016L36.0885 57.0016V54.7893ZM31.6638 63.6385H84.7587V65.8508H82.5466V68.063H31.6639V65.8508H31.6638V63.6385ZM31.6639 68.063H82.5466V70.2753L80.3344 70.2753V72.4876H75.9096V74.6998H36.0884V72.4876H33.8764V70.2753L31.6639 70.2753V68.063Z" fill="white"/>
<path d="M561.314 23.5749H559.552V25.3364H561.314V23.5749Z" fill="#F9F4E6"/>
<path d="M567.986 20.0991H566.224V21.8607H567.986V20.0991Z" fill="#F9F4E6"/>
<path d="M563.075 25.3365H557.791V27.098H563.075V25.3365Z" fill="#F9F4E6"/>
<path d="M561.314 27.0981H559.552V28.8596H561.314V27.0981Z" fill="#F9F4E6"/>
<path d="M113.826 47.7224H112.064V49.484H113.826V47.7224Z" fill="#F9F4E6"/>
<path d="M115.587 49.4839H110.303V51.2455H115.587V49.4839Z" fill="#F9F4E6"/>
<path d="M113.826 51.2455H112.064V53.0071H113.826V51.2455Z" fill="#F9F4E6"/>
<path d="M229.295 36.755H227.534V38.5166H229.295V36.755Z" fill="#F9F4E6"/>
<path d="M231.057 38.5165H225.772V40.2781H231.057V38.5165Z" fill="#F9F4E6"/>
<path d="M229.295 40.2781H227.534V42.0397H229.295V40.2781Z" fill="#F9F4E6"/>
<path d="M143.258 58.5585H141.496V60.32H143.258V58.5585Z" fill="#F9F4E6"/>
<path d="M244.412 71.3815H242.651V73.143H244.412V71.3815Z" fill="#F9F4E6"/>
<path d="M223.264 86.7843H221.502V88.5459H223.264V86.7843Z" fill="#F9F4E6"/>
<path d="M40.3114 97.0877H38.5498V98.8493H40.3114V97.0877Z" fill="#F9F4E6"/>
<path d="M33.4254 107.268H31.6638V109.03H33.4254V107.268Z" fill="#F9F4E6"/>
<path d="M106.312 83.0151H104.551V84.7766H106.312V83.0151Z" fill="#F9F4E6"/>
<path d="M104.551 62.5323H102.789V64.2938H104.551V62.5323Z" fill="#F9F4E6"/>
<path d="M16.4128 89.0494H14.6512V90.8109H16.4128V89.0494Z" fill="#F9F4E6"/>
<path d="M169.952 85.6547H168.19V87.4162H169.952V85.6547Z" fill="#F9F4E6"/>
<path d="M152.474 93.4211H150.713V95.1826H152.474V93.4211Z" fill="#F9F4E6"/>
<path d="M373.93 58.5585H372.169V60.32H373.93V58.5585Z" fill="#F9F4E6"/>
<path d="M305.146 60.7708H303.385V62.5323H305.146V60.7708Z" fill="#F9F4E6"/>
<path d="M357.916 111.468H356.155V113.229H357.916V111.468Z" fill="#F9F4E6"/>
<path d="M329.262 82.3597H327.5V84.1212H329.262V82.3597Z" fill="#F9F4E6"/>
<path d="M335.325 73.143H333.564V74.9046H335.325V73.143Z" fill="#F9F4E6"/>
<path d="M489.955 77.4637H488.194V79.2252H489.955V77.4637Z" fill="#F9F4E6"/>
<path d="M425.48 78.5746H423.719V80.3362H425.48V78.5746Z" fill="#F9F4E6"/>
<path d="M436.225 67.8701H434.464V69.6317H436.225V67.8701Z" fill="#F9F4E6"/>
<path d="M513.72 105.937H511.959V107.698H513.72V105.937Z" fill="#F9F4E6"/>
<path d="M608.139 109.03H606.377V110.791H608.139V109.03Z" fill="#F9F4E6"/>
</g>
<defs>
<clipPath id="clip0_11_112">
<rect width="655" height="228" fill="white" transform="translate(0 0.500061)"/>
</clipPath>
<clipPath id="clip1_11_112">
<rect width="710.412" height="183.833" fill="white" transform="translate(-4.68958 31.9843)"/>
</clipPath>
</defs>
</svg>
