<svg width="96" height="83" viewBox="0 0 96 83" fill="none" xmlns="http://www.w3.org/2000/svg">
<path d="M9.73451 15.1065H0.162842V19.8923H9.73451V15.1065Z" fill="#257CED"/>
<path d="M14.5207 15.1065H9.73486V19.8923H14.5207V15.1065Z" fill="#DB8323"/>
<path d="M57.593 15.1065H38.4497V19.8923H57.593V15.1065Z" fill="#34AC80"/>
<path d="M86.3078 15.1065H81.522V19.8923H86.3078V15.1065Z" fill="#DB8323"/>
<path d="M95.8798 15.1065H86.3081V19.8923H95.8798V15.1065Z" fill="#FF1A0B"/>
<path d="M4.94868 19.8923H0.162842V24.6782H4.94868V19.8923Z" fill="#257CED"/>
<path d="M9.73481 19.8923H4.94897V24.6782H9.73481V19.8923Z" fill="#00499C"/>
<path d="M14.5207 19.8923H9.73486V24.6782H14.5207V19.8923Z" fill="#DB8323"/>
<path d="M43.2355 19.8923H38.4497V24.6782H43.2355V19.8923Z" fill="#34AC80"/>
<path d="M52.807 19.8923H43.2354V24.6782H52.807V19.8923Z" fill="#42FFB0"/>
<path d="M57.5932 19.8923H52.8074V24.6782H57.5932V19.8923Z" fill="#068940"/>
<path d="M86.3078 19.8923H81.522V24.6782H86.3078V19.8923Z" fill="#DB8323"/>
<path d="M91.0939 19.8923H86.3081V24.6782H91.0939V19.8923Z" fill="#D22209"/>
<path d="M95.8796 19.8923H91.0938V24.6782H95.8796V19.8923Z" fill="#FF1A0B"/>
<path d="M9.73451 24.6782H0.162842V29.464H9.73451V24.6782Z" fill="#00499C"/>
<path d="M14.5207 24.6782H9.73486V29.464H14.5207V24.6782Z" fill="#DB8323"/>
<path d="M48.0214 24.6782H38.4497V29.464H48.0214V24.6782Z" fill="#34AC80"/>
<path d="M57.5929 24.6782H48.0212V29.464H57.5929V24.6782Z" fill="#068940"/>
<path d="M86.3078 24.6782H81.522V29.464H86.3078V24.6782Z" fill="#DB8323"/>
<path d="M95.8798 24.6782H86.3081V29.464H95.8798V24.6782Z" fill="#D22209"/>
<path d="M14.5207 67.7507H9.73486V72.5365H14.5207V67.7507Z" fill="#6E3206"/>
<path d="M38.4502 67.7507H14.521V72.5365H38.4502V67.7507Z" fill="#DB8323"/>
<path d="M57.593 67.7507H38.4497V72.5365H57.593V67.7507Z" fill="#6E3206"/>
<path d="M81.5224 67.7507H57.5933V72.5365H81.5224V67.7507Z" fill="#DB8323"/>
<path d="M86.3078 67.7507H81.522V72.5365H86.3078V67.7507Z" fill="#6E3206"/>
<path fill-rule="evenodd" clip-rule="evenodd" d="M9.73481 0.749023H4.94897V5.53485V5.53486V10.3207V15.1065H14.5206V10.3207L9.73481 10.3207V5.53486V0.749023ZM52.807 0.749023H43.2354V5.53486V10.3207L38.4497 10.3207V15.1065L33.6639 15.1065V19.8923L28.8778 19.8923V24.6782H24.0927V19.8923L19.3068 19.8923V15.1065H14.521V19.8923V24.6782V29.464H38.4502V24.6782L38.4495 24.6782V19.8923L38.4498 19.8923V15.1065L57.593 15.1065V10.3207L52.807 10.3207V5.53486V0.749023ZM86.3081 0.749023H91.0939V5.53486V10.3207L91.0936 10.3207V15.1065L81.5222 15.1065V19.8923L81.5224 19.8923V24.6782L81.5224 24.6782V29.464H57.5933V24.6782V19.8923V15.1065H62.3791V19.8923L67.1649 19.8923V24.6782H71.9507V19.8923L76.7363 19.8923V15.1065L81.522 15.1065V10.3207L86.3081 10.3207V5.53486V0.749023ZM91.094 29.4641H4.94897V34.2499V39.0357V43.8215V48.6074V53.3932V58.179V62.9649V67.7507H91.094V62.9649V58.179V53.3932V48.6074V43.8215V39.0357V34.2499V29.4641ZM91.094 72.5365H4.94897V77.3223H91.094V72.5365ZM4.94897 82.1082V77.3224H91.094V82.1082H4.94897Z" fill="#EAB118"/>
</svg>
