<svg width="164" height="56" viewBox="0 0 164 56" fill="none" xmlns="http://www.w3.org/2000/svg">
<path fill-rule="evenodd" clip-rule="evenodd" d="M8.81958 0.181213H12.7946H16.7695V4.15063H20.7445V8.12006H24.7195V12.0895L24.7197 16.059V12.0895H28.6947V16.059V20.0284V23.9979V27.9673H24.7195H20.7445H16.7695H12.7946H8.81946H4.84448V23.9978V20.0284V16.059V12.0895H0.869507V8.12006V4.15063V0.181213H4.84448H8.81958ZM143.981 27.9673H140.006H136.031V23.9979V20.0284H140.006H143.981V23.9979V27.9673ZM143.981 27.9708H140.006H136.031V31.9402V35.9097V39.8791V43.8485V47.818V51.7874H140.006H143.981V47.8179V43.8485V39.8791V35.9097V31.9402V27.9708ZM143.981 51.7874H147.956H151.931H155.906H159.881V47.818V43.8485V39.8791V35.9097H155.906V31.9402H151.931L151.931 27.9708H147.956H143.981V31.9402V35.9097V39.8791V43.8485V47.8179V51.7874ZM84.3519 51.7874H80.3768V47.8179V43.8485V39.8791V35.9097V31.9402V27.9708H84.3519H88.327H92.3019H96.277H100.252H104.227H108.202H112.177H116.152H120.127H124.102H128.077H132.052H136.027V31.9402V35.9097V39.8791V43.8485V47.818V51.7875H132.052L132.052 55.7568H128.077H124.102H120.127H116.152L116.152 51.7875L112.177 51.7874H108.202H104.227H100.252H96.2769H92.3019H88.3269H84.3519ZM76.3983 51.7874H80.3733V47.8179V43.8485V39.8791V35.9097V31.9402V27.9708H76.3983H72.4235H68.4484H64.4733H60.4983H56.5233V31.9402V35.9097V39.8791V43.8485V47.8179V51.7874H60.4983H64.4733H68.4484H72.4233H76.3983ZM52.5481 51.7874H56.5231V47.8179V43.8485V39.8791V35.9097V31.9402V27.9708H52.5481H48.5732H44.5981H40.623L40.6198 27.9708L36.6481 27.9708H32.6731H28.6981H28.6947H24.7197H20.7445H16.7695H12.7946H8.81946H4.84448V31.9402V35.9097V39.8791V43.8485V47.8179H8.81958V51.7874H12.7946H16.7695H20.7445H24.7197L24.7196 55.7568H28.6946L28.6947 51.7874H28.6981L28.698 55.7568H32.6731H36.6482H40.6233V51.7874H44.5981H48.5731H52.5481ZM28.6947 31.9402H28.6981V35.9097H28.6947V31.9402ZM28.6947 43.8485V47.8179H28.6981V43.8485H28.6947ZM163.856 51.7874H159.881V47.818V43.8485H163.856V47.818V51.7874ZM143.981 23.9979H147.956V27.9673H143.981V23.9979ZM136.027 23.9979V27.9673H132.052H128.077H124.102H120.127H116.152H112.177H108.202H104.227H100.252H96.277H92.3019H88.327H84.3519H80.3768V23.9979V20.0284V16.059V12.0895V8.12006V4.15063V0.181213H84.3519H88.327H92.3019H96.2769L96.277 4.15063H100.252H104.227L104.227 8.12006H108.202H112.177V12.0895L116.152 12.0895H120.127V16.059H124.102H128.077L128.077 20.0284H132.052H136.027V23.9979ZM80.3733 12.0895V16.059V20.0284V23.9979V27.9673H76.3983H72.4235H68.4484H64.4733H60.4983H56.5233V23.9979V20.0284V16.059V12.0895V8.12006V4.15063H60.4983V0.181213H64.4733H68.4484H72.4235H76.3983H80.3733V4.15063V8.12006V12.0895ZM56.5231 4.15063H52.5481H48.5732V8.12006H44.5981H40.6233H36.6481V12.0895H32.6731H28.6981V16.059V20.0284V23.9979V27.9673H32.6731H36.6481H40.623H44.5981H48.5732H52.5481H56.5231V23.9979V20.0284V16.059V12.0895V8.12006V4.15063Z" fill="#41DD73"/>
<path d="M143.981 39.8791H140.006V43.8485H143.981V39.8791Z" fill="#41DD73"/>
<path d="M143.981 35.9097H140.006V39.8791H143.981V35.9097Z" fill="#41DD73"/>
<path d="M143.981 31.9402H140.006V35.9097H143.981V31.9402Z" fill="#41DD73"/>
<path d="M143.981 27.9708H140.006V31.9402H143.981V27.9708Z" fill="#41DD73"/>
<path d="M143.981 23.9979H140.006V27.9673H143.981V23.9979Z" fill="#EDEDED"/>
<path d="M147.956 39.8791H143.981V43.8485H147.956V39.8791Z" fill="#41DD73"/>
<path d="M143.981 43.8485H140.006V47.818H143.981V43.8485Z" fill="#19CC52"/>
<path d="M147.956 43.8485H143.981V47.818H147.956V43.8485Z" fill="#19CC52"/>
<path d="M143.981 47.818H140.006V51.7874H143.981V47.818Z" fill="#19CC52"/>
<path d="M140.006 47.818H136.031V51.7874H140.006V47.818Z" fill="#19CC52"/>
<path d="M147.956 47.818H143.981V51.7874H147.956V47.818Z" fill="#19CC52"/>
<path d="M151.931 47.818H147.956V51.7874H151.931V47.818Z" fill="#19CC52"/>
<path d="M104.227 43.8485H100.252V47.818H104.227V43.8485Z" fill="#19CC52"/>
<path d="M108.202 43.8485H104.227V47.818H108.202V43.8485Z" fill="#19CC52"/>
<path d="M104.227 47.818H100.252V51.7874H104.227V47.818Z" fill="#19CC52"/>
<path d="M108.202 47.818H104.227V51.7874H108.202V47.818Z" fill="#19CC52"/>
<path d="M112.177 47.818H108.202V51.7874H112.177V47.818Z" fill="#19CC52"/>
<path d="M96.2769 43.8485H92.3019V47.818H96.2769V43.8485Z" fill="#19CC52"/>
<path d="M100.252 43.8485H96.277V47.818H100.252V43.8485Z" fill="#19CC52"/>
<path d="M96.2769 47.818H92.3019V51.7874H96.2769V47.818Z" fill="#19CC52"/>
<path d="M100.252 47.818H96.277V51.7874H100.252V47.818Z" fill="#19CC52"/>
<path d="M88.3269 43.8485H84.3519V47.818H88.3269V43.8485Z" fill="#19CC52"/>
<path d="M92.302 43.8485H88.327V47.818H92.302V43.8485Z" fill="#19CC52"/>
<path d="M88.3269 47.818H84.3519V51.7874H88.3269V47.818Z" fill="#19CC52"/>
<path d="M92.302 47.818H88.327V51.7874H92.302V47.818Z" fill="#19CC52"/>
<path d="M80.3733 43.8485H76.3983V47.818H80.3733V43.8485Z" fill="#19CC52"/>
<path d="M84.3519 43.8485H80.3768V47.818H84.3519V43.8485Z" fill="#19CC52"/>
<path d="M80.3733 47.818H76.3983V51.7874H80.3733V47.818Z" fill="#19CC52"/>
<path d="M84.3519 47.818H80.3768V51.7874H84.3519V47.818Z" fill="#19CC52"/>
<path d="M72.4234 43.8485H68.4484V47.818H72.4234V43.8485Z" fill="#19CC52"/>
<path d="M76.3985 43.8485H72.4235V47.818H76.3985V43.8485Z" fill="#19CC52"/>
<path d="M72.4234 47.818H68.4484V51.7874H72.4234V47.818Z" fill="#19CC52"/>
<path d="M76.3985 47.818H72.4235V51.7874H76.3985V47.818Z" fill="#19CC52"/>
<path d="M64.4733 43.8485H60.4983V47.818H64.4733V43.8485Z" fill="#19CC52"/>
<path d="M68.4483 43.8485H64.4733V47.818H68.4483V43.8485Z" fill="#19CC52"/>
<path d="M64.4733 47.818H60.4983V51.7874H64.4733V47.818Z" fill="#19CC52"/>
<path d="M68.4483 47.818H64.4733V51.7874H68.4483V47.818Z" fill="#19CC52"/>
<path d="M56.5231 43.8485H52.5481V47.818H56.5231V43.8485Z" fill="#19CC52"/>
<path d="M60.4983 43.8485H56.5233V47.818H60.4983V43.8485Z" fill="#19CC52"/>
<path d="M56.5231 47.818H52.5481V51.7874H56.5231V47.818Z" fill="#19CC52"/>
<path d="M60.4983 47.818H56.5233V51.7874H60.4983V47.818Z" fill="#19CC52"/>
<path d="M48.5732 43.8485H44.5981V47.818H48.5732V43.8485Z" fill="#19CC52"/>
<path d="M52.5483 43.8485H48.5732V47.818H52.5483V43.8485Z" fill="#19CC52"/>
<path d="M48.5732 47.818H44.5981V51.7874H48.5732V47.818Z" fill="#19CC52"/>
<path d="M52.5483 47.818H48.5732V51.7874H52.5483V47.818Z" fill="#19CC52"/>
<path d="M40.6231 43.8485H36.6481V47.818H40.6231V43.8485Z" fill="#19CC52"/>
<path d="M44.5983 43.8485H40.6233V47.818H44.5983V43.8485Z" fill="#19CC52"/>
<path d="M40.6231 47.818H36.6481V51.7874H40.6231V47.818Z" fill="#19CC52"/>
<path d="M44.5983 47.818H40.6233V51.7874H44.5983V47.818Z" fill="#19CC52"/>
<path d="M32.6731 43.8485H28.6981V47.818H32.6731V43.8485Z" fill="#19CC52"/>
<path d="M36.6481 43.8485H32.6731V47.818H36.6481V43.8485Z" fill="#19CC52"/>
<path d="M32.6731 47.818H28.6981V51.7874H32.6731V47.818Z" fill="#19CC52"/>
<path d="M28.6947 43.8485H24.7197V47.818H28.6947V43.8485Z" fill="#19CC52"/>
<path d="M28.6947 47.818H24.7197V51.7874H28.6947V47.818Z" fill="#19CC52"/>
<path d="M24.7195 43.8485H20.7445V47.818H24.7195V43.8485Z" fill="#19CC52"/>
<path d="M24.7195 47.818H20.7445V51.7874H24.7195V47.818Z" fill="#19CC52"/>
<path d="M16.7696 43.8485H12.7946V47.818H16.7696V43.8485Z" fill="#19CC52"/>
<path d="M16.7696 47.818H12.7946V51.7874H16.7696V47.818Z" fill="#19CC52"/>
<path d="M12.7946 43.8485H8.81958V47.818H12.7946V43.8485Z" fill="#19CC52"/>
<path d="M12.7946 47.818H8.81958V51.7874H12.7946V47.818Z" fill="#19CC52"/>
<path d="M36.6481 47.818H32.6731V51.7874H36.6481V47.818Z" fill="#19CC52"/>
<path d="M147.956 35.9097H143.981V39.8791H147.956V35.9097Z" fill="#41DD73"/>
<path d="M147.956 31.9402H143.981V35.9097H147.956V31.9402Z" fill="#41DD73"/>
<path d="M147.956 27.9708H143.981V31.9402H147.956V27.9708Z" fill="#EDEDED"/>
<path d="M151.931 39.8791H147.956V43.8485H151.931V39.8791Z" fill="#41DD73"/>
<path d="M155.906 39.8791H151.931V43.8485H155.906V39.8791Z" fill="#41DD73"/>
<path d="M151.931 43.8485H147.956V47.818H151.931V43.8485Z" fill="#19CC52"/>
<path d="M155.906 47.818H151.931V51.7874H155.906V47.818Z" fill="#19CC52"/>
<path d="M155.906 43.8485H151.931V47.818H155.906V43.8485Z" fill="#19CC52"/>
<path d="M151.931 35.9097H147.956V39.8791H151.931V35.9097Z" fill="#41DD73"/>
<path d="M155.906 35.9097H151.931V39.8791H155.906V35.9097Z" fill="#41DD73"/>
<path d="M159.881 39.8791H155.906V43.8485H159.881V39.8791Z" fill="#41DD73"/>
<path d="M159.881 47.818H155.906V51.7874H159.881V47.818Z" fill="#19CC52"/>
<path d="M159.881 43.8485H155.906V47.818H159.881V43.8485Z" fill="#19CC52"/>
<path d="M163.856 47.818H159.881V51.7874H163.856V47.818Z" fill="#19CC52"/>
<path d="M163.856 43.8485H159.881V47.818H163.856V43.8485Z" fill="#19CC52"/>
<path d="M159.881 35.9097H155.906V39.8791H159.881V35.9097Z" fill="#41DD73"/>
<path d="M155.906 31.9402H151.931V35.9097H155.906V31.9402Z" fill="#41DD73"/>
<path d="M151.931 31.9402H147.956V35.9097H151.931V31.9402Z" fill="#EDEDED"/>
<path d="M151.931 27.9708H147.956V31.9402H151.931V27.9708Z" fill="#41DD73"/>
<path d="M147.956 23.9979H143.981V27.9673H147.956V23.9979Z" fill="#41DD73"/>
<path d="M140.006 39.8791H136.031V43.8485H140.006V39.8791Z" fill="#41DD73"/>
<path d="M140.006 35.9097H136.031V39.8791H140.006V35.9097Z" fill="#41DD73"/>
<path d="M140.006 31.9402H136.031V35.9097H140.006V31.9402Z" fill="#41DD73"/>
<path d="M140.006 27.9708H136.031V31.9402H140.006V27.9708Z" fill="#41DD73"/>
<path d="M140.006 23.9979H136.031V27.9673H140.006V23.9979Z" fill="#41DD73"/>
<path d="M20.7446 16.059H16.7695V20.0284H20.7446V16.059Z" fill="#41DD73"/>
<path d="M16.7696 8.12006H12.7946V12.0895H16.7696V8.12006Z" fill="#41DD73"/>
<path d="M20.7446 8.12006H16.7695V12.0895H20.7446V8.12006Z" fill="#41DD73"/>
<path d="M16.7696 16.059H12.7946V20.0284H16.7696V16.059Z" fill="#41DD73"/>
<path d="M12.7946 8.12006H8.81958V12.0895H12.7946V8.12006Z" fill="#41DD73"/>
<path d="M12.7946 16.059H8.81958V20.0284H12.7946V16.059Z" fill="#41DD73"/>
<path d="M8.8195 8.12006H4.84448V12.0895H8.8195V8.12006Z" fill="#41DD73"/>
<path d="M20.7446 12.0895H16.7695V16.059H20.7446V12.0895Z" fill="#41DD73"/>
<path d="M24.7195 12.0895H20.7445V16.059H24.7195V12.0895Z" fill="#41DD73"/>
<path d="M16.7696 12.0895H12.7946V16.059H16.7696V12.0895Z" fill="#41DD73"/>
<path d="M12.7946 12.0895H8.81958V16.059H12.7946V12.0895Z" fill="#41DD73"/>
<path d="M8.8195 12.0895H4.84448V16.059H8.8195V12.0895Z" fill="#41DD73"/>
<path d="M8.8195 16.059H4.84448V20.0284H8.8195V16.059Z" fill="#41DD73"/>
<path d="M4.84453 8.12006H0.869507V12.0895H4.84453V8.12006Z" fill="#41DD73"/>
<path d="M8.8195 4.15063H4.84448V8.12007H8.8195V4.15063Z" fill="#41DD73"/>
<path d="M4.84453 4.15063H0.869507V8.12007H4.84453V4.15063Z" fill="#41DD73"/>
<path d="M12.7946 4.15063H8.81958V8.12007H12.7946V4.15063Z" fill="#41DD73"/>
<path d="M16.7696 4.15063H12.7946V8.12007H16.7696V4.15063Z" fill="#41DD73"/>
<path d="M12.7946 0.181213H8.81958V4.15065H12.7946V0.181213Z" fill="#41DD73"/>
<path d="M24.7195 8.12006H20.7445V12.0895H24.7195V8.12006Z" fill="#41DD73"/>
<path d="M20.7446 4.15063H16.7695V8.12007H20.7446V4.15063Z" fill="#41DD73"/>
<path d="M16.7696 0.181213H12.7946V4.15065H16.7696V0.181213Z" fill="#41DD73"/>
<path d="M8.8195 0.181213H4.84448V4.15065H8.8195V0.181213Z" fill="#41DD73"/>
<path d="M4.84453 0.181213H0.869507V4.15065H4.84453V0.181213Z" fill="#41DD73"/>
<path d="M8.8195 20.0284H4.84448V23.9978H8.8195V20.0284Z" fill="#FF941F"/>
<path d="M8.8195 23.9979H4.84448V27.9673H8.8195V23.9979Z" fill="#FFC431"/>
<path d="M8.8195 27.9708H4.84448V31.9402H8.8195V27.9708Z" fill="#FF941F"/>
<path d="M12.7946 27.9708H8.81958V31.9402H12.7946V27.9708Z" fill="#FF941F"/>
<path d="M8.8195 31.9402H4.84448V35.9097H8.8195V31.9402Z" fill="#41DD73"/>
<path d="M8.8195 35.9097H4.84448V39.8791H8.8195V35.9097Z" fill="#41DD73"/>
<path d="M8.8195 39.8791H4.84448V43.8485H8.8195V39.8791Z" fill="#19CC52"/>
<path d="M8.8195 43.8485H4.84448V47.818H8.8195V43.8485Z" fill="#19CC52"/>
<path d="M136.027 39.8791H132.052V43.8485H136.027V39.8791Z" fill="#41DD73"/>
<path d="M136.027 35.9097H132.052V39.8791H136.027V35.9097Z" fill="#41DD73"/>
<path d="M136.027 31.9402H132.052V35.9097H136.027V31.9402Z" fill="#41DD73"/>
<path d="M136.027 27.9708H132.052V31.9402H136.027V27.9708Z" fill="#41DD73"/>
<path d="M136.027 23.9979H132.052V27.9673H136.027V23.9979Z" fill="#41DD73"/>
<path d="M136.027 20.0284H132.052V23.9978H136.027V20.0284Z" fill="#41DD73"/>
<path d="M132.052 39.8791H128.077V43.8485H132.052V39.8791Z" fill="#41DD73"/>
<path d="M132.052 35.9097H128.077V39.8791H132.052V35.9097Z" fill="#41DD73"/>
<path d="M132.052 31.9402H128.077V35.9097H132.052V31.9402Z" fill="#41DD73"/>
<path d="M132.052 27.9708H128.077V31.9402H132.052V27.9708Z" fill="#41DD73"/>
<path d="M132.052 23.9979H128.077V27.9673H132.052V23.9979Z" fill="#41DD73"/>
<path d="M132.052 20.0284H128.077V23.9978H132.052V20.0284Z" fill="#41DD73"/>
<path d="M140.006 20.0284H136.031V23.9978H140.006V20.0284Z" fill="#41DD73"/>
<path d="M143.981 20.0284H140.006V23.9978H143.981V20.0284Z" fill="#41DD73"/>
<path d="M128.077 39.8791H124.102V43.8485H128.077V39.8791Z" fill="#41DD73"/>
<path d="M128.077 35.9097H124.102V39.8791H128.077V35.9097Z" fill="#41DD73"/>
<path d="M128.077 31.9402H124.102V35.9097H128.077V31.9402Z" fill="#41DD73"/>
<path d="M128.077 27.9708H124.102V31.9402H128.077V27.9708Z" fill="#41DD73"/>
<path d="M128.077 23.9979H124.102V27.9673H128.077V23.9979Z" fill="#41DD73"/>
<path d="M128.077 20.0284H124.102V23.9978H128.077V20.0284Z" fill="#41DD73"/>
<path d="M124.102 39.8791H120.127V43.8485H124.102V39.8791Z" fill="#41DD73"/>
<path d="M124.102 35.9097H120.127V39.8791H124.102V35.9097Z" fill="#41DD73"/>
<path d="M124.102 31.9402H120.127V35.9097H124.102V31.9402Z" fill="#41DD73"/>
<path d="M124.102 27.9708H120.127V31.9402H124.102V27.9708Z" fill="#41DD73"/>
<path d="M124.102 23.9979H120.127V27.9673H124.102V23.9979Z" fill="#41DD73"/>
<path d="M124.102 20.0284H120.127V23.9978H124.102V20.0284Z" fill="#41DD73"/>
<path d="M120.127 39.8791H116.152V43.8485H120.127V39.8791Z" fill="#41DD73"/>
<path d="M120.127 35.9097H116.152V39.8791H120.127V35.9097Z" fill="#41DD73"/>
<path d="M120.127 31.9402H116.152V35.9097H120.127V31.9402Z" fill="#41DD73"/>
<path d="M120.127 27.9708H116.152V31.9402H120.127V27.9708Z" fill="#41DD73"/>
<path d="M120.127 23.9979H116.152V27.9673H120.127V23.9979Z" fill="#41DD73"/>
<path d="M120.127 20.0284H116.152V23.9978H120.127V20.0284Z" fill="#41DD73"/>
<path d="M116.152 39.8791H112.177V43.8485H116.152V39.8791Z" fill="#41DD73"/>
<path d="M116.152 35.9097H112.177V39.8791H116.152V35.9097Z" fill="#41DD73"/>
<path d="M116.152 31.9402H112.177V35.9097H116.152V31.9402Z" fill="#41DD73"/>
<path d="M116.152 27.9708H112.177V31.9402H116.152V27.9708Z" fill="#41DD73"/>
<path d="M116.152 23.9979H112.177V27.9673H116.152V23.9979Z" fill="#41DD73"/>
<path d="M116.152 20.0284H112.177V23.9978H116.152V20.0284Z" fill="#41DD73"/>
<path d="M112.177 39.8791H108.202V43.8485H112.177V39.8791Z" fill="#41DD73"/>
<path d="M112.177 35.9097H108.202V39.8791H112.177V35.9097Z" fill="#41DD73"/>
<path d="M112.177 31.9402H108.202V35.9097H112.177V31.9402Z" fill="#41DD73"/>
<path d="M112.177 27.9708H108.202V31.9402H112.177V27.9708Z" fill="#41DD73"/>
<path d="M112.177 23.9979H108.202V27.9673H112.177V23.9979Z" fill="#41DD73"/>
<path d="M112.177 20.0284H108.202V23.9978H112.177V20.0284Z" fill="#41DD73"/>
<path d="M112.177 8.12006H108.202V12.0895H112.177V8.12006Z" fill="#23B6D8"/>
<path d="M116.152 12.0895H112.177V16.059H116.152V12.0895Z" fill="#23B6D8"/>
<path d="M120.127 12.0895H116.152V16.059H120.127V12.0895Z" fill="#23B6D8"/>
<path d="M124.102 16.059H120.127V20.0284H124.102V16.059Z" fill="#23B6D8"/>
<path d="M128.077 16.059H124.102V20.0284H128.077V16.059Z" fill="#23B6D8"/>
<path d="M108.202 8.12006H104.227V12.0895H108.202V8.12006Z" fill="#23B6D8"/>
<path d="M104.227 4.15063H100.252V8.12007H104.227V4.15063Z" fill="#23B6D8"/>
<path d="M100.252 4.15063H96.277V8.12007H100.252V4.15063Z" fill="#23B6D8"/>
<path d="M96.2769 0.181213H92.3019V4.15065H96.2769V0.181213Z" fill="#41DD73"/>
<path d="M108.202 16.059H104.227V20.0284H108.202V16.059Z" fill="#19CC52"/>
<path d="M104.227 12.0895H100.252V16.059H104.227V12.0895Z" fill="#8AEEFF"/>
<path d="M112.177 12.0895H108.202V16.059H112.177V12.0895Z" fill="#DCFCFF"/>
<path d="M112.177 16.059H108.202V20.0284H112.177V16.059Z" fill="#8AEEFF"/>
<path d="M116.152 16.059H112.177V20.0284H116.152V16.059Z" fill="#DCFCFF"/>
<path d="M120.127 16.059H116.152V20.0284H120.127V16.059Z" fill="#DCFCFF"/>
<path d="M108.202 12.0895H104.227V16.059H108.202V12.0895Z" fill="#DCFCFF"/>
<path d="M100.252 8.12006H96.277V12.0895H100.252V8.12006Z" fill="#DCFCFF"/>
<path d="M104.227 8.12006H100.252V12.0895H104.227V8.12006Z" fill="#DCFCFF"/>
<path d="M96.2769 4.15063H92.3019V8.12007H96.2769V4.15063Z" fill="#DCFCFF"/>
<path d="M104.227 16.059H100.252V20.0284H104.227V16.059Z" fill="#8AEEFF"/>
<path d="M100.252 12.0895H96.277V16.059H100.252V12.0895Z" fill="#8AEEFF"/>
<path d="M96.2769 8.12006H92.3019V12.0895H96.2769V8.12006Z" fill="#8AEEFF"/>
<path d="M92.302 4.15063H88.327V8.12007H92.302V4.15063Z" fill="#DCFCFF"/>
<path d="M100.252 16.059H96.277V20.0284H100.252V16.059Z" fill="#8AEEFF"/>
<path d="M96.2769 12.0895H92.3019V16.059H96.2769V12.0895Z" fill="#8AEEFF"/>
<path d="M92.302 8.12006H88.327V12.0895H92.302V8.12006Z" fill="#8AEEFF"/>
<path d="M88.3269 4.15063H84.3519V8.12007H88.3269V4.15063Z" fill="#DCFCFF"/>
<path d="M96.2769 16.059H92.3019V20.0284H96.2769V16.059Z" fill="#8AEEFF"/>
<path d="M92.302 12.0895H88.327V16.059H92.302V12.0895Z" fill="#8AEEFF"/>
<path d="M88.3269 8.12006H84.3519V12.0895H88.3269V8.12006Z" fill="#8AEEFF"/>
<path d="M84.3519 4.15063H80.3768V8.12007H84.3519V4.15063Z" fill="#DCFCFF"/>
<path d="M92.302 16.059H88.327V20.0284H92.302V16.059Z" fill="#3DD2F4"/>
<path d="M88.3269 16.059H84.3519V20.0284H88.3269V16.059Z" fill="#8AEEFF"/>
<path d="M84.3519 16.059H80.3768V20.0284H84.3519V16.059Z" fill="#3DD2F4"/>
<path d="M80.3733 16.059H76.3983V20.0284H80.3733V16.059Z" fill="#3DD2F4"/>
<path d="M76.3985 16.059H72.4235V20.0284H76.3985V16.059Z" fill="#3DD2F4"/>
<path d="M88.3269 12.0895H84.3519V16.059H88.3269V12.0895Z" fill="#3DD2F4"/>
<path d="M84.3519 12.0895H80.3768V16.059H84.3519V12.0895Z" fill="#8AEEFF"/>
<path d="M80.3733 12.0895H76.3983V16.059H80.3733V12.0895Z" fill="#3DD2F4"/>
<path d="M76.3985 12.0895H72.4235V16.059H76.3985V12.0895Z" fill="#3DD2F4"/>
<path d="M84.3519 8.12006H80.3768V12.0895H84.3519V8.12006Z" fill="#3DD2F4"/>
<path d="M80.3733 8.12006H76.3983V12.0895H80.3733V8.12006Z" fill="#8AEEFF"/>
<path d="M76.3985 8.12006H72.4235V12.0895H76.3985V8.12006Z" fill="#3DD2F4"/>
<path d="M80.3733 4.15063H76.3983V8.12007H80.3733V4.15063Z" fill="#DCFCFF"/>
<path d="M76.3985 4.15063H72.4235V8.12007H76.3985V4.15063Z" fill="#DCFCFF"/>
<path d="M92.302 0.181213H88.327V4.15065H92.302V0.181213Z" fill="#41DD73"/>
<path d="M88.3269 0.181213H84.3519V4.15065H88.3269V0.181213Z" fill="#41DD73"/>
<path d="M84.3519 0.181213H80.3768V4.15065H84.3519V0.181213Z" fill="#41DD73"/>
<path d="M80.3733 0.181213H76.3983V4.15065H80.3733V0.181213Z" fill="#41DD73"/>
<path d="M76.3985 0.181213H72.4235V4.15065H76.3985V0.181213Z" fill="#41DD73"/>
<path d="M72.4234 0.181213H68.4484V4.15065H72.4234V0.181213Z" fill="#41DD73"/>
<path d="M72.4234 4.15063H68.4484V8.12007H72.4234V4.15063Z" fill="#DCFCFF"/>
<path d="M72.4234 8.12006H68.4484V12.0895H72.4234V8.12006Z" fill="#3DD2F4"/>
<path d="M72.4234 12.0895H68.4484V16.059H72.4234V12.0895Z" fill="#3DD2F4"/>
<path d="M72.4234 16.059H68.4484V20.0284H72.4234V16.059Z" fill="#3DD2F4"/>
<path d="M68.4483 0.181213H64.4733V4.15065H68.4483V0.181213Z" fill="#41DD73"/>
<path d="M64.4733 4.15063H60.4983V8.12007H64.4733V4.15063Z" fill="#41DD73"/>
<path d="M60.4983 4.15063H56.5233V8.12007H60.4983V4.15063Z" fill="#41DD73"/>
<path d="M64.4733 0.181213H60.4983V4.15065H64.4733V0.181213Z" fill="#41DD73"/>
<path d="M56.5231 4.15063H52.5481V8.12007H56.5231V4.15063Z" fill="#41DD73"/>
<path d="M52.5483 4.15063H48.5732V8.12007H52.5483V4.15063Z" fill="#41DD73"/>
<path d="M64.4733 8.12006H60.4983V12.0895H64.4733V8.12006Z" fill="#41DD73"/>
<path d="M60.4983 8.12006H56.5233V12.0895H60.4983V8.12006Z" fill="#41DD73"/>
<path d="M56.5231 8.12006H52.5481V12.0895H56.5231V8.12006Z" fill="#41DD73"/>
<path d="M52.5483 8.12006H48.5732V12.0895H52.5483V8.12006Z" fill="#41DD73"/>
<path d="M48.5732 8.12006H44.5981V12.0895H48.5732V8.12006Z" fill="#41DD73"/>
<path d="M64.4733 12.0895H60.4983V16.059H64.4733V12.0895Z" fill="#41DD73"/>
<path d="M60.4983 12.0895H56.5233V16.059H60.4983V12.0895Z" fill="#41DD73"/>
<path d="M56.5231 12.0895H52.5481V16.059H56.5231V12.0895Z" fill="#41DD73"/>
<path d="M52.5483 12.0895H48.5732V16.059H52.5483V12.0895Z" fill="#41DD73"/>
<path d="M48.5732 12.0895H44.5981V16.059H48.5732V12.0895Z" fill="#41DD73"/>
<path d="M44.5983 12.0895H40.6233V16.059H44.5983V12.0895Z" fill="#41DD73"/>
<path d="M64.4733 16.059H60.4983V20.0284H64.4733V16.059Z" fill="#41DD73"/>
<path d="M60.4983 16.059H56.5233V20.0284H60.4983V16.059Z" fill="#19CC52"/>
<path d="M56.5231 16.059H52.5481V20.0284H56.5231V16.059Z" fill="#19CC52"/>
<path d="M52.5483 16.059H48.5732V20.0284H52.5483V16.059Z" fill="#41DD73"/>
<path d="M48.5732 16.059H44.5981V20.0284H48.5732V16.059Z" fill="#41DD73"/>
<path d="M44.5983 16.059H40.6233V20.0284H44.5983V16.059Z" fill="#41DD73"/>
<path d="M40.6231 16.059H36.6481V20.0284H40.6231V16.059Z" fill="#41DD73"/>
<path d="M68.4483 4.15063H64.4733V8.12007H68.4483V4.15063Z" fill="#DCFCFF"/>
<path d="M68.4483 8.12006H64.4733V12.0895H68.4483V8.12006Z" fill="#3DD2F4"/>
<path d="M68.4483 12.0895H64.4733V16.059H68.4483V12.0895Z" fill="#3DD2F4"/>
<path d="M68.4483 16.059H64.4733V20.0284H68.4483V16.059Z" fill="#41DD73"/>
<path d="M64.4733 0.181213H60.4983V4.15065H64.4733V0.181213Z" fill="#41DD73"/>
<path d="M44.5983 8.12006H40.6233V12.0895H44.5983V8.12006Z" fill="#41DD73"/>
<path d="M40.6231 12.0895H36.6481V16.059H40.6231V12.0895Z" fill="#41DD73"/>
<path d="M36.6481 16.059H32.6731V20.0284H36.6481V16.059Z" fill="#41DD73"/>
<path d="M32.6731 12.0895H28.6981V16.059H32.6731V12.0895Z" fill="#41DD73"/>
<path d="M28.6947 16.059H24.7197V20.0284H28.6947V16.059Z" fill="#41DD73"/>
<path d="M28.6947 12.0895H24.7197V16.059H28.6947V12.0895Z" fill="#41DD73"/>
<path d="M24.7195 16.059H20.7445V20.0284H24.7195V16.059Z" fill="#41DD73"/>
<path d="M40.6231 8.12006H36.6481V12.0895H40.6231V8.12006Z" fill="#41DD73"/>
<path d="M36.6481 12.0895H32.6731V16.059H36.6481V12.0895Z" fill="#41DD73"/>
<path d="M32.6731 16.059H28.6981V20.0284H32.6731V16.059Z" fill="#41DD73"/>
<path d="M108.202 39.8791H104.227V43.8485H108.202V39.8791Z" fill="#41DD73"/>
<path d="M108.202 35.9097H104.227V39.8791H108.202V35.9097Z" fill="#41DD73"/>
<path d="M108.202 31.9402H104.227V35.9097H108.202V31.9402Z" fill="#41DD73"/>
<path d="M108.202 27.9708H104.227V31.9402H108.202V27.9708Z" fill="#41DD73"/>
<path d="M108.202 23.9979H104.227V27.9673H108.202V23.9979Z" fill="#41DD73"/>
<path d="M108.202 20.0284H104.227V23.9978H108.202V20.0284Z" fill="#19CC52"/>
<path d="M104.227 39.8791H100.252V43.8485H104.227V39.8791Z" fill="#41DD73"/>
<path d="M104.227 35.9097H100.252V39.8791H104.227V35.9097Z" fill="#41DD73"/>
<path d="M104.227 31.9402H100.252V35.9097H104.227V31.9402Z" fill="#41DD73"/>
<path d="M104.227 27.9708H100.252V31.9402H104.227V27.9708Z" fill="#41DD73"/>
<path d="M104.227 23.9979H100.252V27.9673H104.227V23.9979Z" fill="#41DD73"/>
<path d="M104.227 20.0284H100.252V23.9978H104.227V20.0284Z" fill="#41DD73"/>
<path d="M100.252 39.8791H96.277V43.8485H100.252V39.8791Z" fill="#41DD73"/>
<path d="M100.252 35.9097H96.277V39.8791H100.252V35.9097Z" fill="#41DD73"/>
<path d="M100.252 31.9402H96.277V35.9097H100.252V31.9402Z" fill="#41DD73"/>
<path d="M100.252 27.9708H96.277V31.9402H100.252V27.9708Z" fill="#41DD73"/>
<path d="M100.252 23.9979H96.277V27.9673H100.252V23.9979Z" fill="#41DD73"/>
<path d="M100.252 20.0284H96.277V23.9978H100.252V20.0284Z" fill="#41DD73"/>
<path d="M96.2769 39.8791H92.3019V43.8485H96.2769V39.8791Z" fill="#41DD73"/>
<path d="M96.2769 35.9097H92.3019V39.8791H96.2769V35.9097Z" fill="#41DD73"/>
<path d="M96.2769 31.9402H92.3019V35.9097H96.2769V31.9402Z" fill="#41DD73"/>
<path d="M96.2769 27.9708H92.3019V31.9402H96.2769V27.9708Z" fill="#41DD73"/>
<path d="M96.2769 23.9979H92.3019V27.9673H96.2769V23.9979Z" fill="#41DD73"/>
<path d="M96.2769 20.0284H92.3019V23.9978H96.2769V20.0284Z" fill="#41DD73"/>
<path d="M92.302 39.8791H88.327V43.8485H92.302V39.8791Z" fill="#41DD73"/>
<path d="M92.302 35.9097H88.327V39.8791H92.302V35.9097Z" fill="#41DD73"/>
<path d="M92.302 31.9402H88.327V35.9097H92.302V31.9402Z" fill="#41DD73"/>
<path d="M92.302 27.9708H88.327V31.9402H92.302V27.9708Z" fill="#41DD73"/>
<path d="M92.302 23.9979H88.327V27.9673H92.302V23.9979Z" fill="#41DD73"/>
<path d="M92.302 20.0284H88.327V23.9978H92.302V20.0284Z" fill="#41DD73"/>
<path d="M88.3269 39.8791H84.3519V43.8485H88.3269V39.8791Z" fill="#41DD73"/>
<path d="M88.3269 35.9097H84.3519V39.8791H88.3269V35.9097Z" fill="#41DD73"/>
<path d="M88.3269 31.9402H84.3519V35.9097H88.3269V31.9402Z" fill="#41DD73"/>
<path d="M88.3269 27.9708H84.3519V31.9402H88.3269V27.9708Z" fill="#41DD73"/>
<path d="M88.3269 23.9979H84.3519V27.9673H88.3269V23.9979Z" fill="#41DD73"/>
<path d="M88.3269 20.0284H84.3519V23.9978H88.3269V20.0284Z" fill="#41DD73"/>
<path d="M84.3519 39.8791H80.3768V43.8485H84.3519V39.8791Z" fill="#41DD73"/>
<path d="M84.3519 35.9097H80.3768V39.8791H84.3519V35.9097Z" fill="#41DD73"/>
<path d="M84.3519 31.9402H80.3768V35.9097H84.3519V31.9402Z" fill="#41DD73"/>
<path d="M84.3519 27.9708H80.3768V31.9402H84.3519V27.9708Z" fill="#41DD73"/>
<path d="M84.3519 23.9979H80.3768V27.9673H84.3519V23.9979Z" fill="#41DD73"/>
<path d="M84.3519 20.0284H80.3768V23.9978H84.3519V20.0284Z" fill="#41DD73"/>
<path d="M80.3733 39.8791H76.3983V43.8485H80.3733V39.8791Z" fill="#41DD73"/>
<path d="M80.3733 35.9097H76.3983V39.8791H80.3733V35.9097Z" fill="#41DD73"/>
<path d="M80.3733 31.9402H76.3983V35.9097H80.3733V31.9402Z" fill="#41DD73"/>
<path d="M80.3733 27.9708H76.3983V31.9402H80.3733V27.9708Z" fill="#41DD73"/>
<path d="M80.3733 23.9979H76.3983V27.9673H80.3733V23.9979Z" fill="#41DD73"/>
<path d="M80.3733 20.0284H76.3983V23.9978H80.3733V20.0284Z" fill="#41DD73"/>
<path d="M76.3985 39.8791H72.4235V43.8485H76.3985V39.8791Z" fill="#41DD73"/>
<path d="M76.3985 35.9097H72.4235V39.8791H76.3985V35.9097Z" fill="#41DD73"/>
<path d="M76.3985 31.9402H72.4235V35.9097H76.3985V31.9402Z" fill="#41DD73"/>
<path d="M76.3985 27.9708H72.4235V31.9402H76.3985V27.9708Z" fill="#41DD73"/>
<path d="M76.3985 23.9979H72.4235V27.9673H76.3985V23.9979Z" fill="#41DD73"/>
<path d="M76.3985 20.0284H72.4235V23.9978H76.3985V20.0284Z" fill="#41DD73"/>
<path d="M72.4234 39.8791H68.4484V43.8485H72.4234V39.8791Z" fill="#41DD73"/>
<path d="M72.4234 35.9097H68.4484V39.8791H72.4234V35.9097Z" fill="#41DD73"/>
<path d="M72.4234 31.9402H68.4484V35.9097H72.4234V31.9402Z" fill="#41DD73"/>
<path d="M72.4234 27.9708H68.4484V31.9402H72.4234V27.9708Z" fill="#41DD73"/>
<path d="M72.4234 23.9979H68.4484V27.9673H72.4234V23.9979Z" fill="#41DD73"/>
<path d="M72.4234 20.0284H68.4484V23.9978H72.4234V20.0284Z" fill="#41DD73"/>
<path d="M68.4483 39.8791H64.4733V43.8485H68.4483V39.8791Z" fill="#41DD73"/>
<path d="M68.4483 35.9097H64.4733V39.8791H68.4483V35.9097Z" fill="#41DD73"/>
<path d="M68.4483 31.9402H64.4733V35.9097H68.4483V31.9402Z" fill="#41DD73"/>
<path d="M68.4483 27.9708H64.4733V31.9402H68.4483V27.9708Z" fill="#41DD73"/>
<path d="M68.4483 23.9979H64.4733V27.9673H68.4483V23.9979Z" fill="#19CC52"/>
<path d="M72.4234 23.9979H68.4484V27.9673H72.4234V23.9979Z" fill="#19CC52"/>
<path d="M76.3985 23.9979H72.4235V27.9673H76.3985V23.9979Z" fill="#19CC52"/>
<path d="M80.3733 23.9979H76.3983V27.9673H80.3733V23.9979Z" fill="#19CC52"/>
<path d="M84.3519 23.9979H80.3768V27.9673H84.3519V23.9979Z" fill="#19CC52"/>
<path d="M88.3269 23.9979H84.3519V27.9673H88.3269V23.9979Z" fill="#19CC52"/>
<path d="M92.302 23.9979H88.327V27.9673H92.302V23.9979Z" fill="#19CC52"/>
<path d="M96.2769 23.9979H92.3019V27.9673H96.2769V23.9979Z" fill="#19CC52"/>
<path d="M100.252 23.9979H96.277V27.9673H100.252V23.9979Z" fill="#19CC52"/>
<path d="M104.227 23.9979H100.252V27.9673H104.227V23.9979Z" fill="#19CC52"/>
<path d="M108.202 23.9979H104.227V27.9673H108.202V23.9979Z" fill="#19CC52"/>
<path d="M112.177 23.9979H108.202V27.9673H112.177V23.9979Z" fill="#19CC52"/>
<path d="M116.152 23.9979H112.177V27.9673H116.152V23.9979Z" fill="#19CC52"/>
<path d="M68.4483 20.0284H64.4733V23.9978H68.4483V20.0284Z" fill="#41DD73"/>
<path d="M64.4733 39.8791H60.4983V43.8485H64.4733V39.8791Z" fill="#41DD73"/>
<path d="M64.4733 35.9097H60.4983V39.8791H64.4733V35.9097Z" fill="#41DD73"/>
<path d="M64.4733 31.9402H60.4983V35.9097H64.4733V31.9402Z" fill="#41DD73"/>
<path d="M64.4733 27.9708H60.4983V31.9402H64.4733V27.9708Z" fill="#41DD73"/>
<path d="M64.4733 23.9979H60.4983V27.9673H64.4733V23.9979Z" fill="#19CC52"/>
<path d="M64.4733 20.0284H60.4983V23.9978H64.4733V20.0284Z" fill="#19CC52"/>
<path d="M60.4983 39.8791H56.5233V43.8485H60.4983V39.8791Z" fill="#41DD73"/>
<path d="M60.4983 35.9097H56.5233V39.8791H60.4983V35.9097Z" fill="#41DD73"/>
<path d="M60.4983 31.9402H56.5233V35.9097H60.4983V31.9402Z" fill="#41DD73"/>
<path d="M60.4983 27.9708H56.5233V31.9402H60.4983V27.9708Z" fill="#41DD73"/>
<path d="M60.4983 23.9979H56.5233V27.9673H60.4983V23.9979Z" fill="#41DD73"/>
<path d="M60.4983 20.0284H56.5233V23.9978H60.4983V20.0284Z" fill="#19CC52"/>
<path d="M56.5231 39.8791H52.5481V43.8485H56.5231V39.8791Z" fill="#41DD73"/>
<path d="M56.5231 35.9097H52.5481V39.8791H56.5231V35.9097Z" fill="#41DD73"/>
<path d="M56.5231 31.9402H52.5481V35.9097H56.5231V31.9402Z" fill="#41DD73"/>
<path d="M56.5231 27.9708H52.5481V31.9402H56.5231V27.9708Z" fill="#41DD73"/>
<path d="M56.5231 23.9979H52.5481V27.9673H56.5231V23.9979Z" fill="#41DD73"/>
<path d="M56.5231 20.0284H52.5481V23.9978H56.5231V20.0284Z" fill="#41DD73"/>
<path d="M52.5483 39.8791H48.5732V43.8485H52.5483V39.8791Z" fill="#19CC52"/>
<path d="M52.5483 35.9097H48.5732V39.8791H52.5483V35.9097Z" fill="#41DD73"/>
<path d="M52.5483 31.9402H48.5732V35.9097H52.5483V31.9402Z" fill="#41DD73"/>
<path d="M52.5483 27.9708H48.5732V31.9402H52.5483V27.9708Z" fill="#41DD73"/>
<path d="M52.5483 23.9979H48.5732V27.9673H52.5483V23.9979Z" fill="#41DD73"/>
<path d="M52.5483 20.0284H48.5732V23.9978H52.5483V20.0284Z" fill="#41DD73"/>
<path d="M48.5732 39.8791H44.5981V43.8485H48.5732V39.8791Z" fill="#41DD73"/>
<path d="M48.5732 35.9097H44.5981V39.8791H48.5732V35.9097Z" fill="#41DD73"/>
<path d="M48.5732 31.9402H44.5981V35.9097H48.5732V31.9402Z" fill="#41DD73"/>
<path d="M48.5732 27.9708H44.5981V31.9402H48.5732V27.9708Z" fill="#41DD73"/>
<path d="M48.5732 23.9979H44.5981V27.9673H48.5732V23.9979Z" fill="#41DD73"/>
<path d="M48.5732 20.0284H44.5981V23.9978H48.5732V20.0284Z" fill="#41DD73"/>
<path d="M44.5983 39.8791H40.6233V43.8485H44.5983V39.8791Z" fill="#41DD73"/>
<path d="M44.5983 35.9097H40.6233V39.8791H44.5983V35.9097Z" fill="#41DD73"/>
<path d="M44.5983 31.9402H40.6233V35.9097H44.5983V31.9402Z" fill="#41DD73"/>
<path d="M44.5983 27.9708H40.6233V31.9402H44.5983V27.9708Z" fill="#41DD73"/>
<path d="M44.5983 23.9979H40.6233V27.9673H44.5983V23.9979Z" fill="#41DD73"/>
<path d="M44.5983 20.0284H40.6233V23.9978H44.5983V20.0284Z" fill="#41DD73"/>
<path d="M40.6231 39.8791H36.6481V43.8485H40.6231V39.8791Z" fill="#41DD73"/>
<path d="M40.6231 35.9097H36.6481V39.8791H40.6231V35.9097Z" fill="#41DD73"/>
<path d="M40.6231 31.9402H36.6481V35.9097H40.6231V31.9402Z" fill="#41DD73"/>
<path d="M40.6231 27.9708H36.6481V31.9402H40.6231V27.9708Z" fill="#41DD73"/>
<path d="M40.6231 23.9979H36.6481V27.9673H40.6231V23.9979Z" fill="#41DD73"/>
<path d="M40.6231 20.0284H36.6481V23.9978H40.6231V20.0284Z" fill="#41DD73"/>
<path d="M36.6481 39.8791H32.6731V43.8485H36.6481V39.8791Z" fill="#41DD73"/>
<path d="M36.6481 35.9097H32.6731V39.8791H36.6481V35.9097Z" fill="#41DD73"/>
<path d="M36.6481 31.9402H32.6731V35.9097H36.6481V31.9402Z" fill="#41DD73"/>
<path d="M36.6481 27.9708H32.6731V31.9402H36.6481V27.9708Z" fill="#41DD73"/>
<path d="M36.6481 23.9979H32.6731V27.9673H36.6481V23.9979Z" fill="#41DD73"/>
<path d="M36.6481 20.0284H32.6731V23.9978H36.6481V20.0284Z" fill="#41DD73"/>
<path d="M32.6731 39.8791H28.6981V43.8485H32.6731V39.8791Z" fill="#41DD73"/>
<path d="M32.6731 35.9097H28.6981V39.8791H32.6731V35.9097Z" fill="#41DD73"/>
<path d="M32.6731 31.9402H28.6981V35.9097H32.6731V31.9402Z" fill="#41DD73"/>
<path d="M32.6731 27.9708H28.6981V31.9402H32.6731V27.9708Z" fill="#41DD73"/>
<path d="M32.6731 23.9979H28.6981V27.9673H32.6731V23.9979Z" fill="#41DD73"/>
<path d="M32.6731 20.0284H28.6981V23.9978H32.6731V20.0284Z" fill="#41DD73"/>
<path d="M28.6947 39.8791H24.7197V43.8485H28.6947V39.8791Z" fill="#41DD73"/>
<path d="M28.6947 35.9097H24.7197V39.8791H28.6947V35.9097Z" fill="#41DD73"/>
<path d="M28.6947 31.9402H24.7197V35.9097H28.6947V31.9402Z" fill="#41DD73"/>
<path d="M28.6947 27.9708H24.7197V31.9402H28.6947V27.9708Z" fill="#41DD73"/>
<path d="M28.6947 23.9979H24.7197V27.9673H28.6947V23.9979Z" fill="#41DD73"/>
<path d="M28.6947 20.0284H24.7197V23.9978H28.6947V20.0284Z" fill="#41DD73"/>
<path d="M24.7195 39.8791H20.7445V43.8485H24.7195V39.8791Z" fill="#41DD73"/>
<path d="M24.7195 35.9097H20.7445V39.8791H24.7195V35.9097Z" fill="#41DD73"/>
<path d="M24.7195 31.9402H20.7445V35.9097H24.7195V31.9402Z" fill="#41DD73"/>
<path d="M24.7195 27.9708H20.7445V31.9402H24.7195V27.9708Z" fill="#41DD73"/>
<path d="M24.7195 23.9979H20.7445V27.9673H24.7195V23.9979Z" fill="#41DD73"/>
<path d="M24.7195 20.0284H20.7445V23.9978H24.7195V20.0284Z" fill="#41DD73"/>
<path d="M20.7446 43.8485H16.7695V47.818H20.7446V43.8485Z" fill="#19CC52"/>
<path d="M20.7446 47.818H16.7695V51.7874H20.7446V47.818Z" fill="#19CC52"/>
<path d="M20.7446 39.8791H16.7695V43.8485H20.7446V39.8791Z" fill="#41DD73"/>
<path d="M20.7446 35.9097H16.7695V39.8791H20.7446V35.9097Z" fill="#41DD73"/>
<path d="M20.7446 31.9402H16.7695V35.9097H20.7446V31.9402Z" fill="#41DD73"/>
<path d="M20.7446 27.9708H16.7695V31.9402H20.7446V27.9708Z" fill="#41DD73"/>
<path d="M20.7446 23.9979H16.7695V27.9673H20.7446V23.9979Z" fill="#41DD73"/>
<path d="M20.7446 20.0284H16.7695V23.9978H20.7446V20.0284Z" fill="#41DD73"/>
<path d="M16.7696 39.8791H12.7946V43.8485H16.7696V39.8791Z" fill="#41DD73"/>
<path d="M16.7696 35.9097H12.7946V39.8791H16.7696V35.9097Z" fill="#41DD73"/>
<path d="M16.7696 31.9402H12.7946V35.9097H16.7696V31.9402Z" fill="#41DD73"/>
<path d="M16.7696 27.9708H12.7946V31.9402H16.7696V27.9708Z" fill="#41DD73"/>
<path d="M16.7696 23.9979H12.7946V27.9673H16.7696V23.9979Z" fill="#41DD73"/>
<path d="M16.7696 20.0284H12.7946V23.9978H16.7696V20.0284Z" fill="#41DD73"/>
<path d="M12.7946 39.8791H8.81958V43.8485H12.7946V39.8791Z" fill="#41DD73"/>
<path d="M12.7946 35.9097H8.81958V39.8791H12.7946V35.9097Z" fill="#41DD73"/>
<path d="M12.7946 31.9402H8.81958V35.9097H12.7946V31.9402Z" fill="#41DD73"/>
<path d="M12.7946 23.9979H8.81958V27.9673H12.7946V23.9979Z" fill="#FFC431"/>
<path d="M12.7946 20.0284H8.81958V23.9978H12.7946V20.0284Z" fill="#FF941F"/>
<path d="M52.5483 16.059H48.5732V20.0284H52.5483V16.059Z" fill="#19CC52"/>
<path d="M48.5732 16.059H44.5981V20.0284H48.5732V16.059Z" fill="#19CC52"/>
<path d="M44.5983 16.059H40.6233V20.0284H44.5983V16.059Z" fill="#19CC52"/>
<path d="M40.6231 16.059H36.6481V20.0284H40.6231V16.059Z" fill="#19CC52"/>
<path d="M36.6481 16.059H32.6731V20.0284H36.6481V16.059Z" fill="#19CC52"/>
<path d="M32.6731 16.059H28.6981V20.0284H32.6731V16.059Z" fill="#19CC52"/>
<path d="M28.6947 16.059H24.7197V20.0284H28.6947V16.059Z" fill="#19CC52"/>
<path d="M24.7195 16.059H20.7445V20.0284H24.7195V16.059Z" fill="#19CC52"/>
<path d="M20.7446 16.059H16.7695V20.0284H20.7446V16.059Z" fill="#19CC52"/>
<path d="M16.7696 16.059H12.7946V20.0284H16.7696V16.059Z" fill="#19CC52"/>
<path d="M112.177 31.9403V47.818H116.152V51.7875H132.052V47.818H136.027V31.9403H132.052V27.9708H116.152V31.9403H112.177ZM116.152 35.9097H120.127V31.9403H128.077V35.9097H132.052V43.8486H128.077V47.818H120.127V43.8486H116.152V35.9097Z" fill="#6D6D6D"/>
<path d="M120.127 35.9097H116.152V43.8486H120.127V47.818H128.077V43.8486H132.052V35.9097H128.077V31.9402H120.127V35.9097Z" fill="#ADADAD"/>
<path d="M132.052 23.9979H128.077V27.9673H132.052V23.9979Z" fill="#161616"/>
<path d="M136.027 27.9708H132.052V31.9403H136.027V27.9708Z" fill="#161616"/>
<path d="M136.027 47.818H132.052V51.7874H136.027V47.818Z" fill="#161616"/>
<path d="M128.077 31.9402H124.102V35.9097H128.077V31.9402Z" fill="#CCCCCC"/>
<path d="M124.102 31.9402H120.127V35.9097H124.102V31.9402Z" fill="#CCCCCC"/>
<path d="M120.127 35.9097H116.152V39.8791H120.127V35.9097Z" fill="#CCCCCC"/>
<path d="M120.127 39.8792H116.152V43.8486H120.127V39.8792Z" fill="#CCCCCC"/>
<path d="M124.102 43.8486H120.127V47.818H124.102V43.8486Z" fill="#CCCCCC"/>
<path d="M128.077 43.8486H124.102V47.818H128.077V43.8486Z" fill="#CCCCCC"/>
<path d="M132.052 39.8792H128.077V43.8486H132.052V39.8792Z" fill="#CCCCCC"/>
<path d="M132.052 35.9097H128.077V39.8791H132.052V35.9097Z" fill="#CCCCCC"/>
<path d="M140.006 31.9402H136.031V35.9097H140.006V31.9402Z" fill="#161616"/>
<path d="M140.006 35.9097H136.031V39.8791H140.006V35.9097Z" fill="#161616"/>
<path d="M140.006 39.8792H136.031V43.8486H140.006V39.8792Z" fill="#161616"/>
<path d="M140.006 43.8486H136.031V47.818H140.006V43.8486Z" fill="#161616"/>
<path d="M132.052 51.7874H128.077V55.7569H132.052V51.7874Z" fill="#161616"/>
<path d="M128.077 51.7874H124.102V55.7569H128.077V51.7874Z" fill="#161616"/>
<path d="M124.102 51.7874H120.127V55.7569H124.102V51.7874Z" fill="#161616"/>
<path d="M112.177 39.8792H108.202V43.8486H112.177V39.8792Z" fill="#161616"/>
<path d="M112.177 43.8486H108.202V47.818H112.177V43.8486Z" fill="#161616"/>
<path d="M116.152 47.818H112.177V51.7874H116.152V47.818Z" fill="#161616"/>
<path d="M120.127 51.7874H116.152V55.7569H120.127V51.7874Z" fill="#161616"/>
<path d="M112.177 35.9097H108.202V39.8791H112.177V35.9097Z" fill="#161616"/>
<path d="M112.177 31.9402H108.202V35.9097H112.177V31.9402Z" fill="#161616"/>
<path d="M116.152 27.9708H112.177V31.9403H116.152V27.9708Z" fill="#161616"/>
<path d="M120.127 23.9979H116.152V27.9673H120.127V23.9979Z" fill="#161616"/>
<path d="M128.077 23.9979H124.102V27.9673H128.077V23.9979Z" fill="#161616"/>
<path d="M124.102 23.9979H120.127V27.9673H124.102V23.9979Z" fill="#161616"/>
<path d="M20.7446 31.9403V47.818H24.7196V51.7875H40.6197V47.818H44.5947V31.9403H40.6197V27.9708H24.7196V31.9403H20.7446ZM24.7196 35.9097H28.6947V31.9403H36.6447V35.9097H40.6197V43.8486H36.6447V47.818H28.6947V43.8486H24.7196V35.9097Z" fill="#6D6D6D"/>
<path d="M28.6981 35.9097H24.7196V43.8486H28.6981V47.818H36.6482V43.8486H40.6232V35.9097H36.6482V31.9402H28.6981V35.9097Z" fill="#ADADAD"/>
<path d="M40.6232 23.9979H36.6482V27.9673H40.6232V23.9979Z" fill="#161616"/>
<path d="M44.5982 27.9708H40.6232V31.9403H44.5982V27.9708Z" fill="#161616"/>
<path d="M44.5982 47.818H40.6232V51.7874H44.5982V47.818Z" fill="#161616"/>
<path d="M36.6481 31.9402H32.6731V35.9097H36.6481V31.9402Z" fill="#CCCCCC"/>
<path d="M32.673 31.9402H28.698V35.9097H32.673V31.9402Z" fill="#CCCCCC"/>
<path d="M28.6946 35.9097H24.7196V39.8791H28.6946V35.9097Z" fill="#CCCCCC"/>
<path d="M28.6946 39.8792H24.7196V43.8486H28.6946V39.8792Z" fill="#CCCCCC"/>
<path d="M32.673 43.8486H28.698V47.818H32.673V43.8486Z" fill="#CCCCCC"/>
<path d="M36.6481 43.8486H32.6731V47.818H36.6481V43.8486Z" fill="#CCCCCC"/>
<path d="M40.6232 39.8792H36.6482V43.8486H40.6232V39.8792Z" fill="#CCCCCC"/>
<path d="M40.6232 35.9097H36.6482V39.8791H40.6232V35.9097Z" fill="#CCCCCC"/>
<path d="M48.5732 31.9402H44.5981V35.9097H48.5732V31.9402Z" fill="#161616"/>
<path d="M48.5732 35.9097H44.5981V39.8791H48.5732V35.9097Z" fill="#161616"/>
<path d="M48.5732 39.8792H44.5981V43.8486H48.5732V39.8792Z" fill="#161616"/>
<path d="M48.5732 43.8486H44.5981V47.818H48.5732V43.8486Z" fill="#161616"/>
<path d="M40.6232 51.7874H36.6482V55.7569H40.6232V51.7874Z" fill="#161616"/>
<path d="M36.6481 51.7874H32.6731V55.7569H36.6481V51.7874Z" fill="#161616"/>
<path d="M32.673 51.7874H28.698V55.7569H32.673V51.7874Z" fill="#161616"/>
<path d="M20.7446 39.8792H16.7695V43.8486H20.7446V39.8792Z" fill="#161616"/>
<path d="M20.7446 43.8486H16.7695V47.818H20.7446V43.8486Z" fill="#161616"/>
<path d="M24.7196 47.818H20.7446V51.7874H24.7196V47.818Z" fill="#161616"/>
<path d="M28.6946 51.7874H24.7196V55.7569H28.6946V51.7874Z" fill="#161616"/>
<path d="M20.7446 35.9097H16.7695V39.8791H20.7446V35.9097Z" fill="#161616"/>
<path d="M20.7446 31.9402H16.7695V35.9097H20.7446V31.9402Z" fill="#161616"/>
<path d="M24.7196 27.9708H20.7446V31.9403H24.7196V27.9708Z" fill="#161616"/>
<path d="M28.6946 23.9979H24.7196V27.9673H28.6946V23.9979Z" fill="#161616"/>
<path d="M36.6481 23.9979H32.6731V27.9673H36.6481V23.9979Z" fill="#161616"/>
<path d="M32.673 23.9979H28.698V27.9673H32.673V23.9979Z" fill="#161616"/>
</svg>
