<svg width="164" height="56" viewBox="0 0 164 56" fill="none" xmlns="http://www.w3.org/2000/svg">
<path fill-rule="evenodd" clip-rule="evenodd" d="M8.81958 0.0800171H12.7946H16.7695V4.04938H20.7445V8.01886H24.7195V11.9883L24.7197 15.9578V11.9883H28.6947V15.9578V19.9273V23.8967V27.8661H24.7195H20.7445H16.7695H12.7946H8.81946H4.84448V23.8967V19.9273V15.9578V11.9883H0.869507V8.01886V4.04938V0.0800171H4.84448H8.81958ZM143.981 27.8661H140.006H136.031V23.8967V19.9272H140.006H143.981V23.8967V27.8661ZM143.981 27.8696H140.006H136.031V31.8391V35.8085V39.7779V43.7473V47.7168V51.6862H140.006H143.981V47.7168V43.7473V39.778V35.8085V31.8391V27.8696ZM143.981 51.6862H147.956H151.931H155.906H159.881V47.7168V43.7473V39.7779V35.8085H155.906V31.8391H151.931L151.931 27.8696H147.956H143.981V31.8391V35.8085V39.7779V43.7473V47.7168V51.6862ZM84.3519 51.6862H80.3768V47.7168V43.7474V39.7779V35.8085V31.8391V27.8696H84.3519H88.327H92.302H96.277H100.252H104.227H108.202H112.177H116.152H120.127H124.102H128.077H132.052H136.027V31.8391V35.8085V39.7779V43.7473V47.7169L136.027 51.6862L132.052 51.6863V55.6556H128.077H124.102H120.127H116.152L116.152 51.6863L112.177 51.6862H108.202H104.227H100.252H96.277H92.302H88.3269H84.3519ZM76.3983 51.6862H80.3733V47.7168V43.7474V39.7779V35.8085V31.8391V27.8696H76.3983H72.4235H68.4484H64.4733H60.4983H56.5233H52.5482H48.5732H44.5981H40.6233H40.6198H36.6482H32.6731H28.6982H28.6947H24.7195H20.7445H16.7695H12.7946H8.81946H4.84448V31.8391V35.8085V39.778V43.7473V47.7168H8.81958V51.6862H12.7946H16.7695H20.7445H24.7197L24.7196 55.6556H28.6946L28.6947 51.6862H28.6982L28.6981 55.6556H32.6731H36.6482H40.6233L40.6232 51.6862H44.5981H48.5731H52.5482H56.5232H60.4983H64.4733H68.4484H72.4233H76.3983ZM28.6947 31.8391H28.6982V35.8085H28.6947V31.8391ZM28.6947 43.7474V47.7168H28.6982V43.7474H28.6947ZM163.856 51.6862H159.881V47.7168V43.7474H163.856V47.7168V51.6862ZM143.981 23.8967H147.956V27.8661H143.981V23.8967ZM136.027 27.8661H132.052H128.077H124.102H120.127H116.152H112.177H108.202H104.227H100.252H96.277H92.302H88.327H84.3519H80.3768V23.8967V19.9273V15.9578V11.9883V8.01886V4.04938V0.0800171H84.3519H88.327H92.302H96.277V4.04938H100.252H104.227L104.227 8.01886H108.202H112.177V11.9883H116.152H120.127V15.9578H124.102H128.077L128.077 19.9272H132.052H136.027V23.8967V27.8661ZM80.3733 11.9883V15.9578V19.9273V23.8967V27.8661H76.3983H72.4235H68.4484H64.4733H60.4983H56.5233H52.5482H48.5732H44.5981H40.6233H36.6482H32.6731H28.6982V23.8967V19.9273V15.9578V11.9883H32.6732H36.6482V8.01886H40.6233H44.5981H48.5732V4.04938H52.5482H56.5233H60.4983V0.0800171H64.4733H68.4484H72.4235H76.3983H80.3733V4.04938V8.01886V11.9883Z" fill="#EC3530"/>
<path d="M143.981 39.7796H140.006V43.749H143.981V39.7796Z" fill="#EC3530"/>
<path d="M143.981 35.8102H140.006V39.7797H143.981V35.8102Z" fill="#EC3530"/>
<path d="M143.981 31.8408H140.006V35.8102H143.981V31.8408Z" fill="#EC3530"/>
<path d="M143.981 27.8713H140.006V31.8408H143.981V27.8713Z" fill="#EC3530"/>
<path d="M143.981 23.8984H140.006V27.8678H143.981V23.8984Z" fill="#EDEDED"/>
<path d="M147.956 39.7796H143.981V43.749H147.956V39.7796Z" fill="#EC3530"/>
<path d="M143.981 43.7491H140.006V47.7185H143.981V43.7491Z" fill="#CC0000"/>
<path d="M147.956 43.7491H143.981V47.7185H147.956V43.7491Z" fill="#CC0000"/>
<path d="M143.981 47.7185H140.006V51.6879H143.981V47.7185Z" fill="#CC0000"/>
<path d="M140.006 47.7185H136.031V51.6879H140.006V47.7185Z" fill="#CC0000"/>
<path d="M147.956 47.7185H143.981V51.6879H147.956V47.7185Z" fill="#CC0000"/>
<path d="M151.931 47.7185H147.956V51.6879H151.931V47.7185Z" fill="#CC0000"/>
<path d="M104.227 43.7491H100.252V47.7185H104.227V43.7491Z" fill="#CC0000"/>
<path d="M108.202 43.7491H104.227V47.7185H108.202V43.7491Z" fill="#CC0000"/>
<path d="M104.227 47.7185H100.252V51.6879H104.227V47.7185Z" fill="#CC0000"/>
<path d="M108.202 47.7185H104.227V51.6879H108.202V47.7185Z" fill="#CC0000"/>
<path d="M112.177 47.7185H108.202V51.6879H112.177V47.7185Z" fill="#CC0000"/>
<path d="M96.277 43.7491H92.302V47.7185H96.277V43.7491Z" fill="#CC0000"/>
<path d="M100.252 43.7491H96.277V47.7185H100.252V43.7491Z" fill="#CC0000"/>
<path d="M96.277 47.7185H92.302V51.6879H96.277V47.7185Z" fill="#CC0000"/>
<path d="M100.252 47.7185H96.277V51.6879H100.252V47.7185Z" fill="#CC0000"/>
<path d="M88.3269 43.7491H84.3519V47.7185H88.3269V43.7491Z" fill="#CC0000"/>
<path d="M92.302 43.7491H88.327V47.7185H92.302V43.7491Z" fill="#CC0000"/>
<path d="M88.3269 47.7185H84.3519V51.6879H88.3269V47.7185Z" fill="#CC0000"/>
<path d="M92.302 47.7185H88.327V51.6879H92.302V47.7185Z" fill="#CC0000"/>
<path d="M80.3733 43.7491H76.3983V47.7185H80.3733V43.7491Z" fill="#CC0000"/>
<path d="M84.3519 43.7491H80.3768V47.7185H84.3519V43.7491Z" fill="#CC0000"/>
<path d="M80.3733 47.7185H76.3983V51.6879H80.3733V47.7185Z" fill="#CC0000"/>
<path d="M84.3519 47.7185H80.3768V51.6879H84.3519V47.7185Z" fill="#CC0000"/>
<path d="M72.4234 43.7491H68.4484V47.7185H72.4234V43.7491Z" fill="#CC0000"/>
<path d="M76.3985 43.7491H72.4235V47.7185H76.3985V43.7491Z" fill="#CC0000"/>
<path d="M72.4234 47.7185H68.4484V51.6879H72.4234V47.7185Z" fill="#CC0000"/>
<path d="M76.3985 47.7185H72.4235V51.6879H76.3985V47.7185Z" fill="#CC0000"/>
<path d="M64.4733 43.7491H60.4983V47.7185H64.4733V43.7491Z" fill="#CC0000"/>
<path d="M68.4483 43.7491H64.4733V47.7185H68.4483V43.7491Z" fill="#CC0000"/>
<path d="M64.4733 47.7185H60.4983V51.6879H64.4733V47.7185Z" fill="#CC0000"/>
<path d="M68.4483 47.7185H64.4733V51.6879H68.4483V47.7185Z" fill="#CC0000"/>
<path d="M56.5232 43.7491H52.5482V47.7185H56.5232V43.7491Z" fill="#CC0000"/>
<path d="M60.4983 43.7491H56.5233V47.7185H60.4983V43.7491Z" fill="#CC0000"/>
<path d="M56.5232 47.7185H52.5482V51.6879H56.5232V47.7185Z" fill="#CC0000"/>
<path d="M60.4983 47.7185H56.5233V51.6879H60.4983V47.7185Z" fill="#CC0000"/>
<path d="M48.5732 43.7491H44.5981V47.7185H48.5732V43.7491Z" fill="#CC0000"/>
<path d="M52.5483 43.7491H48.5732V47.7185H52.5483V43.7491Z" fill="#CC0000"/>
<path d="M48.5732 47.7185H44.5981V51.6879H48.5732V47.7185Z" fill="#CC0000"/>
<path d="M52.5483 47.7185H48.5732V51.6879H52.5483V47.7185Z" fill="#CC0000"/>
<path d="M40.6232 43.7491H36.6482V47.7185H40.6232V43.7491Z" fill="#CC0000"/>
<path d="M44.5983 43.7491H40.6233V47.7185H44.5983V43.7491Z" fill="#CC0000"/>
<path d="M40.6232 47.7185H36.6482V51.6879H40.6232V47.7185Z" fill="#CC0000"/>
<path d="M44.5983 47.7185H40.6233V51.6879H44.5983V47.7185Z" fill="#CC0000"/>
<path d="M32.6733 43.7491H28.6982V47.7185H32.6733V43.7491Z" fill="#CC0000"/>
<path d="M36.6481 43.7491H32.6731V47.7185H36.6481V43.7491Z" fill="#CC0000"/>
<path d="M32.6733 47.7185H28.6982V51.6879H32.6733V47.7185Z" fill="#CC0000"/>
<path d="M28.6947 43.7491H24.7197V47.7185H28.6947V43.7491Z" fill="#CC0000"/>
<path d="M28.6947 47.7185H24.7197V51.6879H28.6947V47.7185Z" fill="#CC0000"/>
<path d="M24.7195 43.7491H20.7445V47.7185H24.7195V43.7491Z" fill="#CC0000"/>
<path d="M24.7195 47.7185H20.7445V51.6879H24.7195V47.7185Z" fill="#CC0000"/>
<path d="M16.7696 43.7491H12.7946V47.7185H16.7696V43.7491Z" fill="#CC0000"/>
<path d="M16.7696 47.7185H12.7946V51.6879H16.7696V47.7185Z" fill="#CC0000"/>
<path d="M12.7946 43.7491H8.81958V47.7185H12.7946V43.7491Z" fill="#CC0000"/>
<path d="M12.7946 47.7185H8.81958V51.6879H12.7946V47.7185Z" fill="#CC0000"/>
<path d="M36.6481 47.7185H32.6731V51.6879H36.6481V47.7185Z" fill="#CC0000"/>
<path d="M147.956 35.8102H143.981V39.7797H147.956V35.8102Z" fill="#EC3530"/>
<path d="M147.956 31.8408H143.981V35.8102H147.956V31.8408Z" fill="#EC3530"/>
<path d="M147.956 27.8713H143.981V31.8408H147.956V27.8713Z" fill="#EDEDED"/>
<path d="M151.931 39.7796H147.956V43.749H151.931V39.7796Z" fill="#EC3530"/>
<path d="M155.906 39.7796H151.931V43.749H155.906V39.7796Z" fill="#EC3530"/>
<path d="M151.931 43.7491H147.956V47.7185H151.931V43.7491Z" fill="#CC0000"/>
<path d="M155.906 47.7185H151.931V51.6879H155.906V47.7185Z" fill="#CC0000"/>
<path d="M155.906 43.7491H151.931V47.7185H155.906V43.7491Z" fill="#CC0000"/>
<path d="M151.931 35.8102H147.956V39.7797H151.931V35.8102Z" fill="#EC3530"/>
<path d="M155.906 35.8102H151.931V39.7797H155.906V35.8102Z" fill="#EC3530"/>
<path d="M159.881 39.7796H155.906V43.749H159.881V39.7796Z" fill="#EC3530"/>
<path d="M159.881 47.7185H155.906V51.6879H159.881V47.7185Z" fill="#CC0000"/>
<path d="M159.881 43.7491H155.906V47.7185H159.881V43.7491Z" fill="#CC0000"/>
<path d="M163.856 47.7185H159.881V51.6879H163.856V47.7185Z" fill="#CC0000"/>
<path d="M163.856 43.7491H159.881V47.7185H163.856V43.7491Z" fill="#CC0000"/>
<path d="M159.881 35.8102H155.906V39.7797H159.881V35.8102Z" fill="#EC3530"/>
<path d="M155.906 31.8408H151.931V35.8102H155.906V31.8408Z" fill="#EC3530"/>
<path d="M151.931 31.8408H147.956V35.8102H151.931V31.8408Z" fill="#EDEDED"/>
<path d="M151.931 27.8713H147.956V31.8408H151.931V27.8713Z" fill="#EC3530"/>
<path d="M147.956 23.8984H143.981V27.8678H147.956V23.8984Z" fill="#EC3530"/>
<path d="M140.006 39.7796H136.031V43.749H140.006V39.7796Z" fill="#EC3530"/>
<path d="M140.006 35.8102H136.031V39.7797H140.006V35.8102Z" fill="#EC3530"/>
<path d="M140.006 31.8408H136.031V35.8102H140.006V31.8408Z" fill="#EC3530"/>
<path d="M140.006 27.8713H136.031V31.8408H140.006V27.8713Z" fill="#EC3530"/>
<path d="M140.006 23.8984H136.031V27.8678H140.006V23.8984Z" fill="#EC3530"/>
<path d="M20.7446 15.9595H16.7695V19.9289H20.7446V15.9595Z" fill="#EC3530"/>
<path d="M16.7696 8.02063H12.7946V11.9901H16.7696V8.02063Z" fill="#EC3530"/>
<path d="M20.7446 8.02063H16.7695V11.9901H20.7446V8.02063Z" fill="#EC3530"/>
<path d="M16.7696 15.9595H12.7946V19.9289H16.7696V15.9595Z" fill="#EC3530"/>
<path d="M12.7946 8.02063H8.81958V11.9901H12.7946V8.02063Z" fill="#EC3530"/>
<path d="M12.7946 15.9595H8.81958V19.9289H12.7946V15.9595Z" fill="#BC0000"/>
<path d="M8.8195 8.02063H4.84448V11.9901H8.8195V8.02063Z" fill="#EC3530"/>
<path d="M20.7446 11.99H16.7695V15.9594H20.7446V11.99Z" fill="#BC0000"/>
<path d="M24.7195 11.99H20.7445V15.9594H24.7195V11.99Z" fill="#BC0000"/>
<path d="M16.7696 11.99H12.7946V15.9594H16.7696V11.99Z" fill="#BC0000"/>
<path d="M12.7946 11.99H8.81958V15.9594H12.7946V11.99Z" fill="#BC0000"/>
<path d="M8.8195 11.99H4.84448V15.9594H8.8195V11.99Z" fill="#BC0000"/>
<path d="M8.8195 15.9595H4.84448V19.9289H8.8195V15.9595Z" fill="#BC0000"/>
<path d="M4.84453 8.02063H0.869507V11.9901H4.84453V8.02063Z" fill="#EC3530"/>
<path d="M8.8195 4.05115H4.84448V8.02059H8.8195V4.05115Z" fill="#EC3530"/>
<path d="M4.84453 4.05115H0.869507V8.02059H4.84453V4.05115Z" fill="#EC3530"/>
<path d="M12.7946 4.05115H8.81958V8.02059H12.7946V4.05115Z" fill="#EC3530"/>
<path d="M16.7696 4.05115H12.7946V8.02059H16.7696V4.05115Z" fill="#EC3530"/>
<path d="M12.7946 0.0817261H8.81958V4.05117H12.7946V0.0817261Z" fill="#EC3530"/>
<path d="M24.7195 8.02063H20.7445V11.9901H24.7195V8.02063Z" fill="#EC3530"/>
<path d="M20.7446 4.05115H16.7695V8.02059H20.7446V4.05115Z" fill="#EC3530"/>
<path d="M16.7696 0.0817261H12.7946V4.05117H16.7696V0.0817261Z" fill="#EC3530"/>
<path d="M8.8195 0.0817261H4.84448V4.05117H8.8195V0.0817261Z" fill="#EC3530"/>
<path d="M4.84453 0.0817261H0.869507V4.05117H4.84453V0.0817261Z" fill="#EC3530"/>
<path d="M8.8195 19.9289H4.84448V23.8983H8.8195V19.9289Z" fill="#FF941F"/>
<path d="M8.8195 23.8984H4.84448V27.8678H8.8195V23.8984Z" fill="#FFC431"/>
<path d="M8.8195 27.8713H4.84448V31.8408H8.8195V27.8713Z" fill="#FF941F"/>
<path d="M12.7946 27.8713H8.81958V31.8408H12.7946V27.8713Z" fill="#FF941F"/>
<path d="M8.8195 31.8408H4.84448V35.8102H8.8195V31.8408Z" fill="#EC3530"/>
<path d="M8.8195 35.8102H4.84448V39.7797H8.8195V35.8102Z" fill="#EC3530"/>
<path d="M8.8195 39.7796H4.84448V43.749H8.8195V39.7796Z" fill="#CC0000"/>
<path d="M8.8195 43.7491H4.84448V47.7185H8.8195V43.7491Z" fill="#CC0000"/>
<path d="M136.027 39.7796H132.052V43.749H136.027V39.7796Z" fill="#EC3530"/>
<path d="M136.027 35.8102H132.052V39.7797H136.027V35.8102Z" fill="#EC3530"/>
<path d="M136.027 31.8408H132.052V35.8102H136.027V31.8408Z" fill="#EC3530"/>
<path d="M136.027 27.8713H132.052V31.8408H136.027V27.8713Z" fill="#EC3530"/>
<path d="M136.027 23.8984H132.052V27.8678H136.027V23.8984Z" fill="#EC3530"/>
<path d="M136.027 19.9289H132.052V23.8983H136.027V19.9289Z" fill="#EC3530"/>
<path d="M132.052 39.7796H128.077V43.749H132.052V39.7796Z" fill="#EC3530"/>
<path d="M132.052 35.8102H128.077V39.7797H132.052V35.8102Z" fill="#EC3530"/>
<path d="M132.052 31.8408H128.077V35.8102H132.052V31.8408Z" fill="#EC3530"/>
<path d="M132.052 27.8713H128.077V31.8408H132.052V27.8713Z" fill="#EC3530"/>
<path d="M132.052 23.8984H128.077V27.8678H132.052V23.8984Z" fill="#EC3530"/>
<path d="M132.052 19.9289H128.077V23.8983H132.052V19.9289Z" fill="#EC3530"/>
<path d="M140.006 19.9289H136.031V23.8983H140.006V19.9289Z" fill="#EC3530"/>
<path d="M143.981 19.9289H140.006V23.8983H143.981V19.9289Z" fill="#EC3530"/>
<path d="M128.077 39.7796H124.102V43.749H128.077V39.7796Z" fill="#EC3530"/>
<path d="M128.077 35.8102H124.102V39.7797H128.077V35.8102Z" fill="#EC3530"/>
<path d="M128.077 31.8408H124.102V35.8102H128.077V31.8408Z" fill="#EC3530"/>
<path d="M128.077 27.8713H124.102V31.8408H128.077V27.8713Z" fill="#EC3530"/>
<path d="M128.077 23.8984H124.102V27.8678H128.077V23.8984Z" fill="#EC3530"/>
<path d="M128.077 19.9289H124.102V23.8983H128.077V19.9289Z" fill="#EC3530"/>
<path d="M124.102 39.7796H120.127V43.749H124.102V39.7796Z" fill="#EC3530"/>
<path d="M124.102 35.8102H120.127V39.7797H124.102V35.8102Z" fill="#EC3530"/>
<path d="M124.102 31.8408H120.127V35.8102H124.102V31.8408Z" fill="#EC3530"/>
<path d="M124.102 27.8713H120.127V31.8408H124.102V27.8713Z" fill="#EC3530"/>
<path d="M124.102 23.8984H120.127V27.8678H124.102V23.8984Z" fill="#EC3530"/>
<path d="M124.102 19.9289H120.127V23.8983H124.102V19.9289Z" fill="#EC3530"/>
<path d="M120.127 39.7796H116.152V43.749H120.127V39.7796Z" fill="#EC3530"/>
<path d="M120.127 35.8102H116.152V39.7797H120.127V35.8102Z" fill="#EC3530"/>
<path d="M120.127 31.8408H116.152V35.8102H120.127V31.8408Z" fill="#EC3530"/>
<path d="M120.127 27.8713H116.152V31.8408H120.127V27.8713Z" fill="#EC3530"/>
<path d="M120.127 23.8984H116.152V27.8678H120.127V23.8984Z" fill="#EC3530"/>
<path d="M120.127 19.9289H116.152V23.8983H120.127V19.9289Z" fill="#EC3530"/>
<path d="M116.152 39.7796H112.177V43.749H116.152V39.7796Z" fill="#EC3530"/>
<path d="M116.152 35.8102H112.177V39.7797H116.152V35.8102Z" fill="#EC3530"/>
<path d="M116.152 31.8408H112.177V35.8102H116.152V31.8408Z" fill="#EC3530"/>
<path d="M116.152 27.8713H112.177V31.8408H116.152V27.8713Z" fill="#EC3530"/>
<path d="M116.152 23.8984H112.177V27.8678H116.152V23.8984Z" fill="#EC3530"/>
<path d="M116.152 19.9289H112.177V23.8983H116.152V19.9289Z" fill="#EC3530"/>
<path d="M112.177 39.7796H108.202V43.749H112.177V39.7796Z" fill="#EC3530"/>
<path d="M112.177 35.8102H108.202V39.7797H112.177V35.8102Z" fill="#EC3530"/>
<path d="M112.177 31.8408H108.202V35.8102H112.177V31.8408Z" fill="#EC3530"/>
<path d="M112.177 27.8713H108.202V31.8408H112.177V27.8713Z" fill="#EC3530"/>
<path d="M112.177 23.8984H108.202V27.8678H112.177V23.8984Z" fill="#EC3530"/>
<path d="M112.177 19.9289H108.202V23.8983H112.177V19.9289Z" fill="#EC3530"/>
<path d="M112.177 8.02063H108.202V11.9901H112.177V8.02063Z" fill="#23B6D8"/>
<path d="M116.152 11.99H112.177V15.9594H116.152V11.99Z" fill="#23B6D8"/>
<path d="M120.127 11.99H116.152V15.9594H120.127V11.99Z" fill="#23B6D8"/>
<path d="M124.102 15.9595H120.127V19.9289H124.102V15.9595Z" fill="#23B6D8"/>
<path d="M128.077 15.9595H124.102V19.9289H128.077V15.9595Z" fill="#23B6D8"/>
<path d="M108.202 8.02063H104.227V11.9901H108.202V8.02063Z" fill="#23B6D8"/>
<path d="M104.227 4.05115H100.252V8.02059H104.227V4.05115Z" fill="#23B6D8"/>
<path d="M100.252 4.05115H96.277V8.02059H100.252V4.05115Z" fill="#23B6D8"/>
<path d="M96.277 0.0817261H92.302V4.05117H96.277V0.0817261Z" fill="#EC3530"/>
<path d="M108.202 15.9595H104.227V19.9289H108.202V15.9595Z" fill="#CC0000"/>
<path d="M104.227 11.99H100.252V15.9594H104.227V11.99Z" fill="#8AEEFF"/>
<path d="M112.177 11.99H108.202V15.9594H112.177V11.99Z" fill="#DCFCFF"/>
<path d="M112.177 15.9595H108.202V19.9289H112.177V15.9595Z" fill="#8AEEFF"/>
<path d="M116.152 15.9595H112.177V19.9289H116.152V15.9595Z" fill="#DCFCFF"/>
<path d="M120.127 15.9595H116.152V19.9289H120.127V15.9595Z" fill="#DCFCFF"/>
<path d="M108.202 11.99H104.227V15.9594H108.202V11.99Z" fill="#DCFCFF"/>
<path d="M100.252 8.02063H96.277V11.9901H100.252V8.02063Z" fill="#DCFCFF"/>
<path d="M104.227 8.02063H100.252V11.9901H104.227V8.02063Z" fill="#DCFCFF"/>
<path d="M96.277 4.05115H92.302V8.02059H96.277V4.05115Z" fill="#DCFCFF"/>
<path d="M104.227 15.9595H100.252V19.9289H104.227V15.9595Z" fill="#8AEEFF"/>
<path d="M100.252 11.99H96.277V15.9594H100.252V11.99Z" fill="#8AEEFF"/>
<path d="M96.277 8.02063H92.302V11.9901H96.277V8.02063Z" fill="#8AEEFF"/>
<path d="M92.302 4.05115H88.327V8.02059H92.302V4.05115Z" fill="#DCFCFF"/>
<path d="M100.252 15.9595H96.277V19.9289H100.252V15.9595Z" fill="#8AEEFF"/>
<path d="M96.277 11.99H92.302V15.9594H96.277V11.99Z" fill="#8AEEFF"/>
<path d="M92.302 8.02063H88.327V11.9901H92.302V8.02063Z" fill="#8AEEFF"/>
<path d="M88.3269 4.05115H84.3519V8.02059H88.3269V4.05115Z" fill="#DCFCFF"/>
<path d="M96.277 15.9595H92.302V19.9289H96.277V15.9595Z" fill="#8AEEFF"/>
<path d="M92.302 11.99H88.327V15.9594H92.302V11.99Z" fill="#8AEEFF"/>
<path d="M88.3269 8.02063H84.3519V11.9901H88.3269V8.02063Z" fill="#8AEEFF"/>
<path d="M84.3519 4.05115H80.3768V8.02059H84.3519V4.05115Z" fill="#DCFCFF"/>
<path d="M92.302 15.9595H88.327V19.9289H92.302V15.9595Z" fill="#3DD2F4"/>
<path d="M88.3269 15.9595H84.3519V19.9289H88.3269V15.9595Z" fill="#8AEEFF"/>
<path d="M84.3519 15.9595H80.3768V19.9289H84.3519V15.9595Z" fill="#3DD2F4"/>
<path d="M80.3733 15.9595H76.3983V19.9289H80.3733V15.9595Z" fill="#3DD2F4"/>
<path d="M76.3985 15.9595H72.4235V19.9289H76.3985V15.9595Z" fill="#3DD2F4"/>
<path d="M88.3269 11.99H84.3519V15.9594H88.3269V11.99Z" fill="#3DD2F4"/>
<path d="M84.3519 11.99H80.3768V15.9594H84.3519V11.99Z" fill="#8AEEFF"/>
<path d="M80.3733 11.99H76.3983V15.9594H80.3733V11.99Z" fill="#3DD2F4"/>
<path d="M76.3985 11.99H72.4235V15.9594H76.3985V11.99Z" fill="#3DD2F4"/>
<path d="M84.3519 8.02063H80.3768V11.9901H84.3519V8.02063Z" fill="#3DD2F4"/>
<path d="M80.3733 8.02063H76.3983V11.9901H80.3733V8.02063Z" fill="#8AEEFF"/>
<path d="M76.3985 8.02063H72.4235V11.9901H76.3985V8.02063Z" fill="#3DD2F4"/>
<path d="M80.3733 4.05115H76.3983V8.02059H80.3733V4.05115Z" fill="#DCFCFF"/>
<path d="M76.3985 4.05115H72.4235V8.02059H76.3985V4.05115Z" fill="#DCFCFF"/>
<path d="M92.302 0.0817261H88.327V4.05117H92.302V0.0817261Z" fill="#EC3530"/>
<path d="M88.3269 0.0817261H84.3519V4.05117H88.3269V0.0817261Z" fill="#EC3530"/>
<path d="M84.3519 0.0817261H80.3768V4.05117H84.3519V0.0817261Z" fill="#EC3530"/>
<path d="M80.3733 0.0817261H76.3983V4.05117H80.3733V0.0817261Z" fill="#EC3530"/>
<path d="M76.3985 0.0817261H72.4235V4.05117H76.3985V0.0817261Z" fill="#EC3530"/>
<path d="M72.4234 0.0817261H68.4484V4.05117H72.4234V0.0817261Z" fill="#EC3530"/>
<path d="M72.4234 4.05115H68.4484V8.02059H72.4234V4.05115Z" fill="#DCFCFF"/>
<path d="M72.4234 8.02063H68.4484V11.9901H72.4234V8.02063Z" fill="#3DD2F4"/>
<path d="M72.4234 11.99H68.4484V15.9594H72.4234V11.99Z" fill="#3DD2F4"/>
<path d="M72.4234 15.9595H68.4484V19.9289H72.4234V15.9595Z" fill="#3DD2F4"/>
<path d="M68.4483 0.0817261H64.4733V4.05117H68.4483V0.0817261Z" fill="#EC3530"/>
<path d="M64.4733 4.05115H60.4983V8.02059H64.4733V4.05115Z" fill="#EC3530"/>
<path d="M60.4983 4.05115H56.5233V8.02059H60.4983V4.05115Z" fill="#EC3530"/>
<path d="M64.4733 0.0817261H60.4983V4.05117H64.4733V0.0817261Z" fill="#EC3530"/>
<path d="M56.5232 4.05115H52.5482V8.02059H56.5232V4.05115Z" fill="#EC3530"/>
<path d="M52.5483 4.05115H48.5732V8.02059H52.5483V4.05115Z" fill="#EC3530"/>
<path d="M64.4733 8.02063H60.4983V11.9901H64.4733V8.02063Z" fill="#EC3530"/>
<path d="M60.4983 8.02063H56.5233V11.9901H60.4983V8.02063Z" fill="#EC3530"/>
<path d="M56.5232 8.02063H52.5482V11.9901H56.5232V8.02063Z" fill="#EC3530"/>
<path d="M52.5483 8.02063H48.5732V11.9901H52.5483V8.02063Z" fill="#EC3530"/>
<path d="M48.5732 8.02063H44.5981V11.9901H48.5732V8.02063Z" fill="#EC3530"/>
<path d="M64.4733 11.99H60.4983V15.9594H64.4733V11.99Z" fill="#EC3530"/>
<path d="M60.4983 11.99H56.5233V15.9594H60.4983V11.99Z" fill="#EC3530"/>
<path d="M56.5232 11.99H52.5482V15.9594H56.5232V11.99Z" fill="#EC3530"/>
<path d="M52.5483 11.99H48.5732V15.9594H52.5483V11.99Z" fill="#EC3530"/>
<path d="M48.5732 11.99H44.5981V15.9594H48.5732V11.99Z" fill="#EC3530"/>
<path d="M44.5983 11.99H40.6233V15.9594H44.5983V11.99Z" fill="#EC3530"/>
<path d="M64.4733 15.9595H60.4983V19.9289H64.4733V15.9595Z" fill="#EC3530"/>
<path d="M60.4983 15.9595H56.5233V19.9289H60.4983V15.9595Z" fill="#CC0000"/>
<path d="M56.5232 15.9595H52.5482V19.9289H56.5232V15.9595Z" fill="#CC0000"/>
<path d="M52.5483 15.9595H48.5732V19.9289H52.5483V15.9595Z" fill="#EC3530"/>
<path d="M48.5732 15.9595H44.5981V19.9289H48.5732V15.9595Z" fill="#EC3530"/>
<path d="M44.5983 15.9595H40.6233V19.9289H44.5983V15.9595Z" fill="#EC3530"/>
<path d="M40.6232 15.9595H36.6482V19.9289H40.6232V15.9595Z" fill="#EC3530"/>
<path d="M68.4483 4.05115H64.4733V8.02059H68.4483V4.05115Z" fill="#DCFCFF"/>
<path d="M68.4483 8.02063H64.4733V11.9901H68.4483V8.02063Z" fill="#3DD2F4"/>
<path d="M68.4483 11.99H64.4733V15.9594H68.4483V11.99Z" fill="#3DD2F4"/>
<path d="M68.4483 15.9595H64.4733V19.9289H68.4483V15.9595Z" fill="#EC3530"/>
<path d="M64.4733 0.0817261H60.4983V4.05117H64.4733V0.0817261Z" fill="#EC3530"/>
<path d="M44.5983 8.02063H40.6233V11.9901H44.5983V8.02063Z" fill="#EC3530"/>
<path d="M40.6232 11.99H36.6482V15.9594H40.6232V11.99Z" fill="#EC3530"/>
<path d="M36.6481 15.9595H32.6731V19.9289H36.6481V15.9595Z" fill="#EC3530"/>
<path d="M32.6733 11.99H28.6982V15.9594H32.6733V11.99Z" fill="#EC3530"/>
<path d="M28.6947 15.9595H24.7197V19.9289H28.6947V15.9595Z" fill="#EC3530"/>
<path d="M28.6947 11.99H24.7197V15.9594H28.6947V11.99Z" fill="#EC3530"/>
<path d="M24.7195 15.9595H20.7445V19.9289H24.7195V15.9595Z" fill="#EC3530"/>
<path d="M40.6232 8.02063H36.6482V11.9901H40.6232V8.02063Z" fill="#EC3530"/>
<path d="M36.6481 11.99H32.6731V15.9594H36.6481V11.99Z" fill="#EC3530"/>
<path d="M32.6733 15.9595H28.6982V19.9289H32.6733V15.9595Z" fill="#EC3530"/>
<path d="M108.202 39.7796H104.227V43.749H108.202V39.7796Z" fill="#EC3530"/>
<path d="M108.202 35.8102H104.227V39.7797H108.202V35.8102Z" fill="#EC3530"/>
<path d="M108.202 31.8408H104.227V35.8102H108.202V31.8408Z" fill="#EC3530"/>
<path d="M108.202 27.8713H104.227V31.8408H108.202V27.8713Z" fill="#EC3530"/>
<path d="M108.202 23.8984H104.227V27.8678H108.202V23.8984Z" fill="#EC3530"/>
<path d="M108.202 19.9289H104.227V23.8983H108.202V19.9289Z" fill="#CC0000"/>
<path d="M104.227 39.7796H100.252V43.749H104.227V39.7796Z" fill="#EC3530"/>
<path d="M104.227 35.8102H100.252V39.7797H104.227V35.8102Z" fill="#EC3530"/>
<path d="M104.227 31.8408H100.252V35.8102H104.227V31.8408Z" fill="#EC3530"/>
<path d="M104.227 27.8713H100.252V31.8408H104.227V27.8713Z" fill="#EC3530"/>
<path d="M104.227 23.8984H100.252V27.8678H104.227V23.8984Z" fill="#EC3530"/>
<path d="M104.227 19.9289H100.252V23.8983H104.227V19.9289Z" fill="#EC3530"/>
<path d="M100.252 39.7796H96.277V43.749H100.252V39.7796Z" fill="#EC3530"/>
<path d="M100.252 35.8102H96.277V39.7797H100.252V35.8102Z" fill="#EC3530"/>
<path d="M100.252 31.8408H96.277V35.8102H100.252V31.8408Z" fill="#EC3530"/>
<path d="M100.252 27.8713H96.277V31.8408H100.252V27.8713Z" fill="#EC3530"/>
<path d="M100.252 23.8984H96.277V27.8678H100.252V23.8984Z" fill="#EC3530"/>
<path d="M100.252 19.9289H96.277V23.8983H100.252V19.9289Z" fill="#EC3530"/>
<path d="M96.277 39.7796H92.302V43.749H96.277V39.7796Z" fill="#EC3530"/>
<path d="M96.277 35.8102H92.302V39.7797H96.277V35.8102Z" fill="#EC3530"/>
<path d="M96.277 31.8408H92.302V35.8102H96.277V31.8408Z" fill="#EC3530"/>
<path d="M96.277 27.8713H92.302V31.8408H96.277V27.8713Z" fill="#EC3530"/>
<path d="M96.277 23.8984H92.302V27.8678H96.277V23.8984Z" fill="#EC3530"/>
<path d="M96.277 19.9289H92.302V23.8983H96.277V19.9289Z" fill="#EC3530"/>
<path d="M92.302 39.7796H88.327V43.749H92.302V39.7796Z" fill="#EC3530"/>
<path d="M92.302 35.8102H88.327V39.7797H92.302V35.8102Z" fill="#EC3530"/>
<path d="M92.302 31.8408H88.327V35.8102H92.302V31.8408Z" fill="#EC3530"/>
<path d="M92.302 27.8713H88.327V31.8408H92.302V27.8713Z" fill="#EC3530"/>
<path d="M92.302 23.8984H88.327V27.8678H92.302V23.8984Z" fill="#EC3530"/>
<path d="M92.302 19.9289H88.327V23.8983H92.302V19.9289Z" fill="#EC3530"/>
<path d="M88.3269 39.7796H84.3519V43.749H88.3269V39.7796Z" fill="#EC3530"/>
<path d="M88.3269 35.8102H84.3519V39.7797H88.3269V35.8102Z" fill="#EC3530"/>
<path d="M88.3269 31.8408H84.3519V35.8102H88.3269V31.8408Z" fill="#EC3530"/>
<path d="M88.3269 27.8713H84.3519V31.8408H88.3269V27.8713Z" fill="#EC3530"/>
<path d="M88.3269 23.8984H84.3519V27.8678H88.3269V23.8984Z" fill="#EC3530"/>
<path d="M88.3269 19.9289H84.3519V23.8983H88.3269V19.9289Z" fill="#EC3530"/>
<path d="M84.3519 39.7796H80.3768V43.749H84.3519V39.7796Z" fill="#EC3530"/>
<path d="M84.3519 35.8102H80.3768V39.7797H84.3519V35.8102Z" fill="#EC3530"/>
<path d="M84.3519 31.8408H80.3768V35.8102H84.3519V31.8408Z" fill="#EC3530"/>
<path d="M84.3519 27.8713H80.3768V31.8408H84.3519V27.8713Z" fill="#EC3530"/>
<path d="M84.3519 23.8984H80.3768V27.8678H84.3519V23.8984Z" fill="#EC3530"/>
<path d="M84.3519 19.9289H80.3768V23.8983H84.3519V19.9289Z" fill="#EC3530"/>
<path d="M80.3733 39.7796H76.3983V43.749H80.3733V39.7796Z" fill="#EC3530"/>
<path d="M80.3733 35.8102H76.3983V39.7797H80.3733V35.8102Z" fill="#EC3530"/>
<path d="M80.3733 31.8408H76.3983V35.8102H80.3733V31.8408Z" fill="#EC3530"/>
<path d="M80.3733 27.8713H76.3983V31.8408H80.3733V27.8713Z" fill="#EC3530"/>
<path d="M80.3733 23.8984H76.3983V27.8678H80.3733V23.8984Z" fill="#EC3530"/>
<path d="M80.3733 19.9289H76.3983V23.8983H80.3733V19.9289Z" fill="#EC3530"/>
<path d="M76.3985 39.7796H72.4235V43.749H76.3985V39.7796Z" fill="#EC3530"/>
<path d="M76.3985 35.8102H72.4235V39.7797H76.3985V35.8102Z" fill="#EC3530"/>
<path d="M76.3985 31.8408H72.4235V35.8102H76.3985V31.8408Z" fill="#EC3530"/>
<path d="M76.3985 27.8713H72.4235V31.8408H76.3985V27.8713Z" fill="#EC3530"/>
<path d="M76.3985 23.8984H72.4235V27.8678H76.3985V23.8984Z" fill="#EC3530"/>
<path d="M76.3985 19.9289H72.4235V23.8983H76.3985V19.9289Z" fill="#EC3530"/>
<path d="M72.4234 39.7796H68.4484V43.749H72.4234V39.7796Z" fill="#EC3530"/>
<path d="M72.4234 35.8102H68.4484V39.7797H72.4234V35.8102Z" fill="#EC3530"/>
<path d="M72.4234 31.8408H68.4484V35.8102H72.4234V31.8408Z" fill="#EC3530"/>
<path d="M72.4234 27.8713H68.4484V31.8408H72.4234V27.8713Z" fill="#EC3530"/>
<path d="M72.4234 23.8984H68.4484V27.8678H72.4234V23.8984Z" fill="#EC3530"/>
<path d="M72.4234 19.9289H68.4484V23.8983H72.4234V19.9289Z" fill="#EC3530"/>
<path d="M68.4483 39.7796H64.4733V43.749H68.4483V39.7796Z" fill="#EC3530"/>
<path d="M68.4483 35.8102H64.4733V39.7797H68.4483V35.8102Z" fill="#EC3530"/>
<path d="M68.4483 31.8408H64.4733V35.8102H68.4483V31.8408Z" fill="#EC3530"/>
<path d="M68.4483 27.8713H64.4733V31.8408H68.4483V27.8713Z" fill="#EC3530"/>
<path d="M68.4483 23.8984H64.4733V27.8678H68.4483V23.8984Z" fill="#CC0000"/>
<path d="M72.4234 23.8984H68.4484V27.8678H72.4234V23.8984Z" fill="#CC0000"/>
<path d="M76.3985 23.8984H72.4235V27.8678H76.3985V23.8984Z" fill="#CC0000"/>
<path d="M80.3733 23.8984H76.3983V27.8678H80.3733V23.8984Z" fill="#CC0000"/>
<path d="M84.3519 23.8984H80.3768V27.8678H84.3519V23.8984Z" fill="#CC0000"/>
<path d="M88.3269 23.8984H84.3519V27.8678H88.3269V23.8984Z" fill="#CC0000"/>
<path d="M92.302 23.8984H88.327V27.8678H92.302V23.8984Z" fill="#CC0000"/>
<path d="M96.277 23.8984H92.302V27.8678H96.277V23.8984Z" fill="#CC0000"/>
<path d="M100.252 23.8984H96.277V27.8678H100.252V23.8984Z" fill="#CC0000"/>
<path d="M104.227 23.8984H100.252V27.8678H104.227V23.8984Z" fill="#CC0000"/>
<path d="M108.202 23.8984H104.227V27.8678H108.202V23.8984Z" fill="#CC0000"/>
<path d="M112.177 23.8984H108.202V27.8678H112.177V23.8984Z" fill="#CC0000"/>
<path d="M116.152 23.8984H112.177V27.8678H116.152V23.8984Z" fill="#CC0000"/>
<path d="M68.4483 19.9289H64.4733V23.8983H68.4483V19.9289Z" fill="#EC3530"/>
<path d="M64.4733 39.7796H60.4983V43.749H64.4733V39.7796Z" fill="#EC3530"/>
<path d="M64.4733 35.8102H60.4983V39.7797H64.4733V35.8102Z" fill="#EC3530"/>
<path d="M64.4733 31.8408H60.4983V35.8102H64.4733V31.8408Z" fill="#EC3530"/>
<path d="M64.4733 27.8713H60.4983V31.8408H64.4733V27.8713Z" fill="#EC3530"/>
<path d="M64.4733 23.8984H60.4983V27.8678H64.4733V23.8984Z" fill="#CC0000"/>
<path d="M64.4733 19.9289H60.4983V23.8983H64.4733V19.9289Z" fill="#CC0000"/>
<path d="M60.4983 39.7796H56.5233V43.749H60.4983V39.7796Z" fill="#EC3530"/>
<path d="M60.4983 35.8102H56.5233V39.7797H60.4983V35.8102Z" fill="#EC3530"/>
<path d="M60.4983 31.8408H56.5233V35.8102H60.4983V31.8408Z" fill="#EC3530"/>
<path d="M60.4983 27.8713H56.5233V31.8408H60.4983V27.8713Z" fill="#EC3530"/>
<path d="M60.4983 23.8984H56.5233V27.8678H60.4983V23.8984Z" fill="#EC3530"/>
<path d="M60.4983 19.9289H56.5233V23.8983H60.4983V19.9289Z" fill="#CC0000"/>
<path d="M56.5232 39.7796H52.5482V43.749H56.5232V39.7796Z" fill="#EC3530"/>
<path d="M56.5232 35.8102H52.5482V39.7797H56.5232V35.8102Z" fill="#EC3530"/>
<path d="M56.5232 31.8408H52.5482V35.8102H56.5232V31.8408Z" fill="#EC3530"/>
<path d="M56.5232 27.8713H52.5482V31.8408H56.5232V27.8713Z" fill="#EC3530"/>
<path d="M56.5232 23.8984H52.5482V27.8678H56.5232V23.8984Z" fill="#EC3530"/>
<path d="M56.5232 19.9289H52.5482V23.8983H56.5232V19.9289Z" fill="#EC3530"/>
<path d="M52.5483 39.7796H48.5732V43.749H52.5483V39.7796Z" fill="#CC0000"/>
<path d="M52.5483 35.8102H48.5732V39.7797H52.5483V35.8102Z" fill="#EC3530"/>
<path d="M52.5483 31.8408H48.5732V35.8102H52.5483V31.8408Z" fill="#EC3530"/>
<path d="M52.5483 27.8713H48.5732V31.8408H52.5483V27.8713Z" fill="#EC3530"/>
<path d="M52.5483 23.8984H48.5732V27.8678H52.5483V23.8984Z" fill="#EC3530"/>
<path d="M52.5483 19.9289H48.5732V23.8983H52.5483V19.9289Z" fill="#EC3530"/>
<path d="M48.5732 39.7796H44.5981V43.749H48.5732V39.7796Z" fill="#EC3530"/>
<path d="M48.5732 35.8102H44.5981V39.7797H48.5732V35.8102Z" fill="#EC3530"/>
<path d="M48.5732 31.8408H44.5981V35.8102H48.5732V31.8408Z" fill="#EC3530"/>
<path d="M48.5732 27.8713H44.5981V31.8408H48.5732V27.8713Z" fill="#EC3530"/>
<path d="M48.5732 23.8984H44.5981V27.8678H48.5732V23.8984Z" fill="#EC3530"/>
<path d="M48.5732 19.9289H44.5981V23.8983H48.5732V19.9289Z" fill="#EC3530"/>
<path d="M44.5983 39.7796H40.6233V43.749H44.5983V39.7796Z" fill="#EC3530"/>
<path d="M44.5983 35.8102H40.6233V39.7797H44.5983V35.8102Z" fill="#EC3530"/>
<path d="M44.5983 31.8408H40.6233V35.8102H44.5983V31.8408Z" fill="#EC3530"/>
<path d="M44.5983 27.8713H40.6233V31.8408H44.5983V27.8713Z" fill="#EC3530"/>
<path d="M44.5983 23.8984H40.6233V27.8678H44.5983V23.8984Z" fill="#EC3530"/>
<path d="M44.5983 19.9289H40.6233V23.8983H44.5983V19.9289Z" fill="#EC3530"/>
<path d="M40.6232 39.7796H36.6482V43.749H40.6232V39.7796Z" fill="#EC3530"/>
<path d="M40.6232 35.8102H36.6482V39.7797H40.6232V35.8102Z" fill="#EC3530"/>
<path d="M40.6232 31.8408H36.6482V35.8102H40.6232V31.8408Z" fill="#EC3530"/>
<path d="M40.6232 27.8713H36.6482V31.8408H40.6232V27.8713Z" fill="#EC3530"/>
<path d="M40.6232 23.8984H36.6482V27.8678H40.6232V23.8984Z" fill="#EC3530"/>
<path d="M40.6232 19.9289H36.6482V23.8983H40.6232V19.9289Z" fill="#EC3530"/>
<path d="M36.6481 39.7796H32.6731V43.749H36.6481V39.7796Z" fill="#EC3530"/>
<path d="M36.6481 35.8102H32.6731V39.7797H36.6481V35.8102Z" fill="#EC3530"/>
<path d="M36.6481 31.8408H32.6731V35.8102H36.6481V31.8408Z" fill="#EC3530"/>
<path d="M36.6481 27.8713H32.6731V31.8408H36.6481V27.8713Z" fill="#EC3530"/>
<path d="M36.6481 23.8984H32.6731V27.8678H36.6481V23.8984Z" fill="#EC3530"/>
<path d="M36.6481 19.9289H32.6731V23.8983H36.6481V19.9289Z" fill="#EC3530"/>
<path d="M32.6733 39.7796H28.6982V43.749H32.6733V39.7796Z" fill="#EC3530"/>
<path d="M32.6733 35.8102H28.6982V39.7797H32.6733V35.8102Z" fill="#EC3530"/>
<path d="M32.6733 31.8408H28.6982V35.8102H32.6733V31.8408Z" fill="#EC3530"/>
<path d="M32.6733 27.8713H28.6982V31.8408H32.6733V27.8713Z" fill="#EC3530"/>
<path d="M32.6733 23.8984H28.6982V27.8678H32.6733V23.8984Z" fill="#EC3530"/>
<path d="M32.6733 19.9289H28.6982V23.8983H32.6733V19.9289Z" fill="#EC3530"/>
<path d="M28.6947 39.7796H24.7197V43.749H28.6947V39.7796Z" fill="#EC3530"/>
<path d="M28.6947 35.8102H24.7197V39.7797H28.6947V35.8102Z" fill="#EC3530"/>
<path d="M28.6947 31.8408H24.7197V35.8102H28.6947V31.8408Z" fill="#EC3530"/>
<path d="M28.6947 27.8713H24.7197V31.8408H28.6947V27.8713Z" fill="#EC3530"/>
<path d="M28.6947 23.8984H24.7197V27.8678H28.6947V23.8984Z" fill="#EC3530"/>
<path d="M28.6947 19.9289H24.7197V23.8983H28.6947V19.9289Z" fill="#EC3530"/>
<path d="M24.7195 39.7796H20.7445V43.749H24.7195V39.7796Z" fill="#EC3530"/>
<path d="M24.7195 35.8102H20.7445V39.7797H24.7195V35.8102Z" fill="#EC3530"/>
<path d="M24.7195 31.8408H20.7445V35.8102H24.7195V31.8408Z" fill="#EC3530"/>
<path d="M24.7195 27.8713H20.7445V31.8408H24.7195V27.8713Z" fill="#EC3530"/>
<path d="M24.7195 23.8984H20.7445V27.8678H24.7195V23.8984Z" fill="#EC3530"/>
<path d="M24.7195 19.9289H20.7445V23.8983H24.7195V19.9289Z" fill="#EC3530"/>
<path d="M20.7446 43.7491H16.7695V47.7185H20.7446V43.7491Z" fill="#CC0000"/>
<path d="M20.7446 47.7185H16.7695V51.6879H20.7446V47.7185Z" fill="#CC0000"/>
<path d="M20.7446 39.7796H16.7695V43.749H20.7446V39.7796Z" fill="#EC3530"/>
<path d="M20.7446 35.8102H16.7695V39.7797H20.7446V35.8102Z" fill="#EC3530"/>
<path d="M20.7446 31.8408H16.7695V35.8102H20.7446V31.8408Z" fill="#EC3530"/>
<path d="M20.7446 27.8713H16.7695V31.8408H20.7446V27.8713Z" fill="#EC3530"/>
<path d="M20.7446 23.8984H16.7695V27.8678H20.7446V23.8984Z" fill="#EC3530"/>
<path d="M20.7446 19.9289H16.7695V23.8983H20.7446V19.9289Z" fill="#EC3530"/>
<path d="M16.7696 39.7796H12.7946V43.749H16.7696V39.7796Z" fill="#EC3530"/>
<path d="M16.7696 35.8102H12.7946V39.7797H16.7696V35.8102Z" fill="#EC3530"/>
<path d="M16.7696 31.8408H12.7946V35.8102H16.7696V31.8408Z" fill="#EC3530"/>
<path d="M16.7696 27.8713H12.7946V31.8408H16.7696V27.8713Z" fill="#EC3530"/>
<path d="M16.7696 23.8984H12.7946V27.8678H16.7696V23.8984Z" fill="#EC3530"/>
<path d="M16.7696 19.9289H12.7946V23.8983H16.7696V19.9289Z" fill="#EC3530"/>
<path d="M12.7946 39.7796H8.81958V43.749H12.7946V39.7796Z" fill="#EC3530"/>
<path d="M12.7946 35.8102H8.81958V39.7797H12.7946V35.8102Z" fill="#EC3530"/>
<path d="M12.7946 31.8408H8.81958V35.8102H12.7946V31.8408Z" fill="#EC3530"/>
<path d="M12.7946 23.8984H8.81958V27.8678H12.7946V23.8984Z" fill="#FFC431"/>
<path d="M12.7946 19.9289H8.81958V23.8983H12.7946V19.9289Z" fill="#FF941F"/>
<path d="M52.5483 15.9595H48.5732V19.9289H52.5483V15.9595Z" fill="#CC0000"/>
<path d="M48.5732 15.9595H44.5981V19.9289H48.5732V15.9595Z" fill="#CC0000"/>
<path d="M44.5983 15.9595H40.6233V19.9289H44.5983V15.9595Z" fill="#CC0000"/>
<path d="M40.6232 15.9595H36.6482V19.9289H40.6232V15.9595Z" fill="#CC0000"/>
<path d="M36.6481 15.9595H32.6731V19.9289H36.6481V15.9595Z" fill="#CC0000"/>
<path d="M32.6733 15.9595H28.6982V19.9289H32.6733V15.9595Z" fill="#CC0000"/>
<path d="M28.6947 15.9595H24.7197V19.9289H28.6947V15.9595Z" fill="#CC0000"/>
<path d="M24.7195 15.9595H20.7445V19.9289H24.7195V15.9595Z" fill="#CC0000"/>
<path d="M20.7446 15.9595H16.7695V19.9289H20.7446V15.9595Z" fill="#CC0000"/>
<path d="M16.7696 15.9595H12.7946V19.9289H16.7696V15.9595Z" fill="#CC0000"/>
<path d="M112.177 31.8408V47.7185H116.152V51.688H132.052V47.7185H136.027V31.8408H132.052V27.8713H116.152V31.8408H112.177ZM116.152 35.8102H120.127V31.8408H128.077V35.8102H132.052V43.7491H128.077V47.7185H120.127V43.7491H116.152V35.8102Z" fill="#6D6D6D"/>
<path d="M120.127 35.8102H116.152V43.7491H120.127V47.7185H128.077V43.7491H132.052V35.8102H128.077V31.8408H120.127V35.8102Z" fill="#ADADAD"/>
<path d="M132.052 23.8984H128.077V27.8678H132.052V23.8984Z" fill="#161616"/>
<path d="M136.027 27.8713H132.052V31.8408H136.027V27.8713Z" fill="#161616"/>
<path d="M136.027 47.7185H132.052V51.6879H136.027V47.7185Z" fill="#161616"/>
<path d="M128.077 31.8408H124.102V35.8102H128.077V31.8408Z" fill="#CCCCCC"/>
<path d="M124.102 31.8408H120.127V35.8102H124.102V31.8408Z" fill="#CCCCCC"/>
<path d="M120.127 35.8102H116.152V39.7797H120.127V35.8102Z" fill="#CCCCCC"/>
<path d="M120.127 39.7796H116.152V43.749H120.127V39.7796Z" fill="#CCCCCC"/>
<path d="M124.102 43.7491H120.127V47.7185H124.102V43.7491Z" fill="#CCCCCC"/>
<path d="M128.077 43.7491H124.102V47.7185H128.077V43.7491Z" fill="#CCCCCC"/>
<path d="M132.052 39.7796H128.077V43.749H132.052V39.7796Z" fill="#CCCCCC"/>
<path d="M132.052 35.8102H128.077V39.7797H132.052V35.8102Z" fill="#CCCCCC"/>
<path d="M140.006 31.8408H136.031V35.8102H140.006V31.8408Z" fill="#161616"/>
<path d="M140.006 35.8102H136.031V39.7797H140.006V35.8102Z" fill="#161616"/>
<path d="M140.006 39.7796H136.031V43.749H140.006V39.7796Z" fill="#161616"/>
<path d="M140.006 43.7491H136.031V47.7185H140.006V43.7491Z" fill="#161616"/>
<path d="M132.052 51.6879H128.077V55.6574H132.052V51.6879Z" fill="#161616"/>
<path d="M128.077 51.6879H124.102V55.6574H128.077V51.6879Z" fill="#161616"/>
<path d="M124.102 51.6879H120.127V55.6574H124.102V51.6879Z" fill="#161616"/>
<path d="M112.177 39.7796H108.202V43.749H112.177V39.7796Z" fill="#161616"/>
<path d="M112.177 43.7491H108.202V47.7185H112.177V43.7491Z" fill="#161616"/>
<path d="M116.152 47.7185H112.177V51.6879H116.152V47.7185Z" fill="#161616"/>
<path d="M120.127 51.6879H116.152V55.6574H120.127V51.6879Z" fill="#161616"/>
<path d="M112.177 35.8102H108.202V39.7797H112.177V35.8102Z" fill="#161616"/>
<path d="M112.177 31.8408H108.202V35.8102H112.177V31.8408Z" fill="#161616"/>
<path d="M116.152 27.8713H112.177V31.8408H116.152V27.8713Z" fill="#161616"/>
<path d="M120.127 23.8984H116.152V27.8678H120.127V23.8984Z" fill="#161616"/>
<path d="M128.077 23.8984H124.102V27.8678H128.077V23.8984Z" fill="#161616"/>
<path d="M124.102 23.8984H120.127V27.8678H124.102V23.8984Z" fill="#161616"/>
<path d="M20.7446 31.8408V47.7185H24.7196V51.688H40.6197V47.7185H44.5947V31.8408H40.6197V27.8713H24.7196V31.8408H20.7446ZM24.7196 35.8102H28.6947V31.8408H36.6447V35.8102H40.6197V43.7491H36.6447V47.7185H28.6947V43.7491H24.7196V35.8102Z" fill="#6D6D6D"/>
<path d="M28.6981 35.8102H24.7196V43.7491H28.6981V47.7185H36.6482V43.7491H40.6232V35.8102H36.6482V31.8408H28.6981V35.8102Z" fill="#ADADAD"/>
<path d="M40.6232 23.8984H36.6482V27.8678H40.6232V23.8984Z" fill="#161616"/>
<path d="M44.5982 27.8713H40.6232V31.8408H44.5982V27.8713Z" fill="#161616"/>
<path d="M44.5982 47.7185H40.6232V51.6879H44.5982V47.7185Z" fill="#161616"/>
<path d="M36.6481 31.8408H32.6731V35.8102H36.6481V31.8408Z" fill="#CCCCCC"/>
<path d="M32.6731 31.8408H28.6981V35.8102H32.6731V31.8408Z" fill="#CCCCCC"/>
<path d="M28.6946 35.8102H24.7196V39.7797H28.6946V35.8102Z" fill="#CCCCCC"/>
<path d="M28.6946 39.7796H24.7196V43.749H28.6946V39.7796Z" fill="#CCCCCC"/>
<path d="M32.6731 43.7491H28.6981V47.7185H32.6731V43.7491Z" fill="#CCCCCC"/>
<path d="M36.6481 43.7491H32.6731V47.7185H36.6481V43.7491Z" fill="#CCCCCC"/>
<path d="M40.6232 39.7796H36.6482V43.749H40.6232V39.7796Z" fill="#CCCCCC"/>
<path d="M40.6232 35.8102H36.6482V39.7797H40.6232V35.8102Z" fill="#CCCCCC"/>
<path d="M48.5732 31.8408H44.5981V35.8102H48.5732V31.8408Z" fill="#161616"/>
<path d="M48.5732 35.8102H44.5981V39.7797H48.5732V35.8102Z" fill="#161616"/>
<path d="M48.5732 39.7796H44.5981V43.749H48.5732V39.7796Z" fill="#161616"/>
<path d="M48.5732 43.7491H44.5981V47.7185H48.5732V43.7491Z" fill="#161616"/>
<path d="M40.6232 51.6879H36.6482V55.6574H40.6232V51.6879Z" fill="#161616"/>
<path d="M36.6481 51.6879H32.6731V55.6574H36.6481V51.6879Z" fill="#161616"/>
<path d="M32.6731 51.6879H28.6981V55.6574H32.6731V51.6879Z" fill="#161616"/>
<path d="M20.7446 39.7796H16.7695V43.749H20.7446V39.7796Z" fill="#161616"/>
<path d="M20.7446 43.7491H16.7695V47.7185H20.7446V43.7491Z" fill="#161616"/>
<path d="M24.7196 47.7185H20.7446V51.6879H24.7196V47.7185Z" fill="#161616"/>
<path d="M28.6946 51.6879H24.7196V55.6574H28.6946V51.6879Z" fill="#161616"/>
<path d="M20.7446 35.8102H16.7695V39.7797H20.7446V35.8102Z" fill="#161616"/>
<path d="M20.7446 31.8408H16.7695V35.8102H20.7446V31.8408Z" fill="#161616"/>
<path d="M24.7196 27.8713H20.7446V31.8408H24.7196V27.8713Z" fill="#161616"/>
<path d="M28.6946 23.8984H24.7196V27.8678H28.6946V23.8984Z" fill="#161616"/>
<path d="M36.6481 23.8984H32.6731V27.8678H36.6481V23.8984Z" fill="#161616"/>
<path d="M32.6731 23.8984H28.6981V27.8678H32.6731V23.8984Z" fill="#161616"/>
</svg>
